SplineFontDB: 1.0
FontName: Norasi-Bold
FullName: Norasi Bold
FamilyName: Norasi
Weight: Bold
Copyright: Copyright © 1999, The National Font Project (v.beta ). Yannis Haralambous, Virach Sornlertlamvanich and Anutara Tantraporn. All rights reserved.\n\nModified by TLWG
Version: 1.1 : May 12, 2003
ItalicAngle: 0
UnderlinePosition: -100
UnderlineWidth: 50
Ascent: 1638
Descent: 410
NeedsXUIDChange: 1
FSType: 0
PfmFamily: 17
TTFWeight: 700
TTFWidth: 5
Panose: 2 0 5 6 0 0 0 2 0 4
LineGap: 18
VLineGap: 0
LangName: 1033 "" "" "" "TheNationalFontProject(v.beta).YannisHaralambous,VirachSornlertlamvanichandAnutaraTantraporn: Norasi Bold: 1999" "" "" "" "Norasi Bold is a trademark of the The National Font Project (v.beta ). Yannis Haralambous, Virach Sornlertlamvanich and Anutara Tantraporn." "" "Yannis Haralambous, Virach Sornlertlamvanich and Anutara Tantraporn" "This font was developed under the National Font Project at NECTEC as to be a free licensed font for Thai users and developers." "www.nectec.or.th/sll/" 
Encoding: compacted
OldEncoding: iso8859_1
DisplaySize: -72
AntiAlias: 1
WinInfo: 88 8 2
BeginPrivate: 4
BlueValues 41 [-14 0 696 727 770 800 926 944 1057 1059]
OtherBlues 11 [-326 -299]
ForceBold 4 true
BlueScale 8 0.039625
EndPrivate
BeginChars: 257 223
StartChar: exclam
Encoding: 33 33
OldEncoding: 33
Width: 262
VWidth: 1000
Flags: W
HStem: -8 172<125.063 134>
Fore
205 74 m 0
 205 51 197 31 181 15 c 0
 166 -0 147 -8 127 -8 c 0
 78 -8 53 19 53 74 c 0
 53 126 77 156 125 164 c 1
 175 164 202 134 205 74 c 0
201 819 m 1
 199 768 l 1
 147 238 l 1
 104 238 l 1
 95 348 87 442 80 519 c 0
 73 596 67 664 61 721 c 0
 59 737 57 753 56 768 c 0
 56 783 55 798 53 813 c 0
 53 900 77 944 125 944 c 0
 175 944 201 905 201 825 c 2
 201 819 l 1
EndSplineSet
EndChar
StartChar: quotedbl
Encoding: 34 34
OldEncoding: 34
Width: 475
VWidth: 1000
Flags: W
Fore
418 797 m 1
 375 537 l 1
 315 537 l 1
 306 594 298 640 292 675 c 0
 286 710 281 737 278 756 c 0
 274 775 272 788 271 797 c 0
 271 805 270 812 270 817 c 0
 270 864 295 887 344 887 c 0
 392 887 416 864 418 817 c 1
 418 797 l 1
201 797 m 1
 156 537 l 1
 98 537 l 1
 89 594 81 640 75 675 c 0
 69 710 64 737 60 756 c 0
 57 775 55 788 54 797 c 0
 54 805 53 812 53 817 c 0
 53 864 78 887 127 887 c 0
 175 887 199 864 201 817 c 1
 201 797 l 1
EndSplineSet
EndChar
StartChar: numbersign
Encoding: 35 35
OldEncoding: 35
Width: 747
VWidth: 1000
Flags: W
HStem: 0 21G<127 242 383 500> 291 110<29 166 301 422 555 684> 545 110<66 206 340 461 592 717> 906 20G<266 379 516 631>
DStem: 166 291 285 291 127 0 242 0 207 545 324 545 186 401 301 401 266 926 379 926 225 655 340 655 422 291 539 291 383 0 500 0 461 545 580 545 440 401 555 401 516 926 631 926 477 655 592 655
Fore
301 401 m 1
 440 401 l 1
 461 545 l 1
 324 545 l 1
 301 401 l 1
717 545 m 1
 580 545 l 1
 555 401 l 1
 684 401 l 1
 684 291 l 1
 539 291 l 1
 500 0 l 1
 383 0 l 1
 422 291 l 1
 285 291 l 1
 242 0 l 1
 127 0 l 1
 166 291 l 1
 29 291 l 1
 29 401 l 1
 186 401 l 1
 207 545 l 1
 66 545 l 1
 66 655 l 1
 225 655 l 1
 266 926 l 1
 379 926 l 1
 340 655 l 1
 477 655 l 1
 516 926 l 1
 631 926 l 1
 592 655 l 1
 717 655 l 1
 717 545 l 1
EndSplineSet
MinimumDistance: x29,-1 
EndChar
StartChar: dollar
Encoding: 36 36
OldEncoding: 36
Width: 692
VWidth: 1000
Flags: W
VStem: 59 138<728 756> 299 84<-117 0 80 389 621 879 957 1047> 498 143<226 260>
Fore
297 621 m 1
 297 879 l 1
 230 862 197 821 197 756 c 0
 197 741 199 726 205 711 c 0
 210 696 218 685 227 678 c 2
 297 621 l 1
498 227 m 0
 498 267 485 302 459 332 c 0
 452 337 443 344 431 353 c 0
 419 362 403 374 383 389 c 1
 383 80 l 1
 459 98 498 147 498 227 c 0
641 260 m 0
 641 118 555 33 383 4 c 1
 383 -117 l 1
 299 -117 l 1
 299 0 l 1
 213 4 130 31 49 80 c 1
 49 289 l 1
 104 289 l 1
 133 155 198 84 299 76 c 1
 299 436 l 1
 264 459 232 480 206 499 c 0
 179 517 157 535 139 551 c 0
 86 604 59 664 59 729 c 0
 59 800 87 857 141 899 c 0
 165 917 189 930 214 940 c 0
 239 950 268 956 299 958 c 1
 299 1047 l 1
 383 1047 l 1
 383 954 l 1
 477 938 l 2
 499 934 523 924 548 908 c 0
 573 893 590 878 598 864 c 1
 598 694 l 1
 543 694 l 1
 522 803 469 866 383 881 c 1
 383 571 l 1
 496 500 l 1
 569 440 l 1
 617 391 641 331 641 260 c 0
EndSplineSet
MinimumDistance: x10,-1 
EndChar
StartChar: percent
Encoding: 37 37
OldEncoding: 37
Width: 1093
VWidth: 1000
Flags: W
HStem: -14 21G<217 326> 0 78<759 782> 399 82<216 246> 467 82<884 906> 805 72<564 598>
VStem: 37 143<567 604> 569 144<163 207> 979 76<353 387>
DStem: 686 821 877 969 217 -14 326 -14
Fore
446 782 m 0
 446 791 443 807 436 831 c 1
 425 836 415 840 404 845 c 0
 394 850 384 855 373 862 c 2
 354 872 l 1
 315 868 276 829 238 754 c 0
 199 677 180 615 180 567 c 0
 180 510 202 481 246 481 c 0
 300 481 348 517 389 590 c 0
 427 658 446 722 446 782 c 0
979 369 m 0
 979 396 972 419 959 438 c 0
 947 457 928 467 903 467 c 0
 855 467 810 425 766 340 c 0
 730 266 713 208 713 164 c 0
 713 106 736 78 782 78 c 0
 833 78 879 113 922 184 c 0
 942 216 957 246 966 276 c 0
 975 307 979 337 979 369 c 0
1055 379 m 0
 1055 291 1029 210 977 133 c 0
 921 44 849 0 760 0 c 0
 697 0 650 19 617 57 c 0
 585 96 569 145 569 207 c 0
 569 286 601 363 666 438 c 0
 731 512 804 549 885 549 c 0
 998 549 1055 492 1055 379 c 0
877 969 m 1
 326 -14 l 1
 217 -14 l 1
 686 821 l 1
 649 810 614 805 582 805 c 0
 569 805 558 805 547 805 c 0
 536 805 525 806 514 809 c 1
 520 778 l 1
 520 747 517 716 510 685 c 0
 503 654 492 623 477 592 c 0
 470 577 458 557 440 532 c 0
 380 444 306 399 217 399 c 0
 160 399 115 419 84 459 c 0
 53 498 37 547 37 604 c 0
 37 686 68 765 131 840 c 0
 193 913 266 950 352 950 c 0
 386 950 424 937 465 909 c 1
 513 887 550 877 575 877 c 0
 645 877 713 907 780 969 c 1
 877 969 l 1
EndSplineSet
MinimumDistance: x17,-1 
EndChar
StartChar: ampersand
Encoding: 38 38
OldEncoding: 38
Width: 1058
VWidth: 1000
Flags: W
HStem: 545 65<645.063 668.69> 868 76<468 496>
VStem: 37 164<211 260> 252 147<713 768> 569 111<764 787>
Fore
569 772 m 0
 569 799 561 822 546 841 c 0
 530 859 509 868 483 868 c 0
 427 868 399 835 399 768 c 0
 399 717 413 663 440 604 c 1
 526 652 569 708 569 772 c 0
354 86 m 0
 399 86 453 111 516 160 c 1
 487 195 458 238 427 287 c 0
 396 336 364 391 330 453 c 1
 252 387 l 1
 233 367 219 345 212 324 c 0
 204 302 201 281 201 260 c 0
 201 238 204 217 212 196 c 0
 219 174 230 156 244 139 c 0
 257 123 274 110 293 100 c 0
 312 91 332 86 354 86 c 0
1030 158 m 1
 1021 125 1006 97 987 74 c 1
 931 15 870 -14 803 -14 c 0
 732 -14 655 23 573 96 c 1
 494 37 l 2
 481 29 467 21 450 14 c 0
 432 8 414 2 394 -2 c 0
 374 -6 355 -9 335 -11 c 0
 315 -13 296 -14 279 -14 c 0
 203 -14 144 4 101 42 c 0
 58 80 37 136 37 211 c 0
 37 324 110 424 256 510 c 2
 295 532 l 1
 276 588 264 629 259 653 c 0
 254 678 252 698 252 713 c 0
 252 744 258 774 269 802 c 0
 281 830 297 854 316 876 c 0
 336 897 360 913 387 926 c 0
 414 938 444 944 477 944 c 0
 533 944 581 929 621 898 c 0
 660 867 680 823 680 766 c 0
 680 703 654 649 602 602 c 0
 593 593 577 582 556 569 c 0
 535 557 509 543 477 526 c 1
 499 483 523 441 549 402 c 0
 575 364 602 326 631 291 c 1
 698 380 731 450 731 502 c 0
 731 530 702 545 645 545 c 1
 645 610 l 1
 977 610 l 1
 977 547 l 1
 935 540 908 534 897 528 c 0
 890 526 882 520 873 511 c 0
 865 502 855 489 846 473 c 2
 813 414 l 2
 793 378 772 344 751 311 c 0
 729 279 707 247 684 217 c 1
 698 198 714 181 734 165 c 0
 754 149 778 136 805 125 c 0
 819 118 836 115 858 115 c 0
 885 115 907 119 922 129 c 0
 930 132 938 139 947 150 c 0
 956 160 968 175 983 193 c 1
 1030 158 l 1
EndSplineSet
MinimumDistance: x35,-1 
EndChar
StartChar: quotesingle
Encoding: 39 39
OldEncoding: 39
Width: 276
VWidth: 1000
Flags: W
Fore
164 899 m 0
 156 903 144 905 129 905 c 0
 106 905 86 897 69 881 c 0
 52 864 43 844 43 819 c 0
 43 796 52 777 69 761 c 0
 86 745 106 737 129 737 c 0
 136 737 142 738 146 738 c 0
 151 739 156 740 162 741 c 1
 162 731 l 2
 162 711 155 691 140 672 c 0
 126 653 110 637 92 625 c 0
 84 618 77 613 73 611 c 0
 68 609 66 608 66 608 c 1
 84 557 l 1
 84 557 92 561 109 569 c 0
 125 578 143 590 163 607 c 0
 183 624 201 646 217 672 c 0
 233 698 242 729 242 766 c 0
 242 800 234 828 218 851 c 0
 202 873 184 890 164 899 c 0
EndSplineSet
EndChar
StartChar: parenleft
Encoding: 40 40
OldEncoding: 40
Width: 430
VWidth: 1000
Flags: W
VStem: 20 148<343 409>
Fore
358 -248 m 1
 246 -177 162 -87 105 20 c 0
 49 128 20 248 20 381 c 0
 20 634 134 834 362 983 c 1
 391 932 l 1
 322 873 271 816 240 760 c 0
 227 738 216 712 207 681 c 0
 197 650 190 618 184 584 c 0
 179 550 175 515 172 479 c 0
 169 444 168 410 168 379 c 0
 168 297 170 237 174 198 c 0
 178 159 185 127 195 102 c 0
 218 35 244 -23 273 -72 c 0
 303 -121 343 -163 395 -199 c 1
 358 -248 l 1
EndSplineSet
MinimumDistance: x9,-1 
EndChar
StartChar: parenright
Encoding: 41 41
OldEncoding: 41
Width: 430
VWidth: 1000
Flags: W
VStem: 260 148<341 407>
Fore
70 -250 m 1
 182 -179 266 -89 323 18 c 0
 379 126 408 246 408 379 c 0
 408 631 294 832 66 981 c 1
 37 930 l 1
 106 871 157 814 188 758 c 0
 201 736 212 710 221 679 c 0
 231 648 238 616 244 582 c 0
 249 547 253 513 256 477 c 0
 259 442 260 408 260 377 c 0
 260 295 258 234 254 196 c 0
 250 157 243 125 233 100 c 0
 210 33 184 -25 155 -74 c 0
 125 -123 85 -165 33 -201 c 1
 70 -250 l 1
EndSplineSet
MinimumDistance: x2,-1 
EndChar
StartChar: asterisk
Encoding: 42 42
OldEncoding: 42
Width: 608
VWidth: 1000
Flags: W
VStem: 238 131<419 437 867 885>
Fore
530 596 m 0
 520 603 507 608 493 612 c 0
 478 616 463 621 447 625 c 0
 432 629 417 633 402 638 c 0
 388 643 376 648 367 653 c 1
 376 659 388 663 402 667 c 0
 417 670 432 674 447 678 c 0
 463 682 478 686 493 691 c 0
 507 696 520 701 530 707 c 0
 570 730 580 760 559 799 c 0
 536 837 504 844 465 819 c 0
 454 814 443 806 432 796 c 0
 399 763 l 0
 388 751 378 740 367 730 c 0
 356 720 345 712 336 707 c 1
 336 730 341 757 352 790 c 0
 363 822 369 850 369 874 c 0
 369 898 364 915 354 928 c 0
 345 940 328 946 303 946 c 0
 259 946 238 922 238 874 c 0
 238 850 243 822 254 790 c 0
 265 757 271 730 272 707 c 1
 263 712 253 720 242 730 c 0
 231 740 220 751 209 763 c 0
 176 796 l 0
 165 806 154 814 143 819 c 0
 102 844 70 837 47 799 c 0
 25 760 35 730 78 707 c 0
 89 701 102 696 117 691 c 0
 132 686 147 682 162 678 c 0
 177 674 191 670 206 667 c 0
 220 663 232 659 242 653 c 1
 232 648 220 643 206 638 c 0
 191 633 177 629 162 625 c 0
 147 621 132 616 117 612 c 0
 102 608 89 603 78 596 c 0
 35 573 25 542 47 504 c 0
 70 466 102 459 143 483 c 0
 154 490 165 499 176 509 c 0
 187 519 198 530 209 541 c 0
 220 552 231 562 242 572 c 0
 253 583 263 591 272 596 c 1
 271 574 265 547 254 514 c 0
 243 481 238 453 238 430 c 0
 238 381 259 356 303 356 c 0
 328 356 345 362 354 375 c 0
 364 387 369 406 369 430 c 0
 369 442 367 456 364 470 c 0
 360 484 356 499 352 514 c 0
 348 529 344 544 341 558 c 0
 338 572 336 585 336 596 c 1
 345 591 355 583 366 572 c 0
 376 562 387 551 398 540 c 0
 410 528 421 517 432 507 c 0
 443 497 454 489 465 483 c 0
 504 459 536 466 559 504 c 0
 580 542 570 573 530 596 c 0
EndSplineSet
MinimumDistance: x16,-1 
EndChar
StartChar: plus
Encoding: 43 43
OldEncoding: 43
Width: 792
VWidth: 1000
Flags: W
HStem: 0 21G<344 451> 311 105<35 344 451 758> 705 20G<344 451>
VStem: 344 107<0 311 416 725>
Fore
758 311 m 1
 451 311 l 1
 451 0 l 1
 344 0 l 1
 344 311 l 1
 35 311 l 1
 35 416 l 1
 344 416 l 1
 344 725 l 1
 451 725 l 1
 451 416 l 1
 758 416 l 1
 758 311 l 1
EndSplineSet
MinimumDistance: x0,-1 y7,9 y7,8 y1,3 y1,2 x4,6 x4,5 x1,11 x1,0 
EndChar
StartChar: comma
Encoding: 44 44
OldEncoding: 44
Width: 290
VWidth: 1000
Flags: W
Fore
164 158 m 0
 156 162 144 164 129 164 c 0
 106 164 86 156 69 139 c 0
 52 123 43 102 43 78 c 0
 43 55 52 35 69 19 c 0
 86 4 106 -4 129 -4 c 0
 136 -4 142 -4 146 -3 c 0
 151 -2 156 -1 162 0 c 1
 162 -10 l 2
 162 -31 155 -51 140 -70 c 0
 126 -89 110 -104 92 -117 c 0
 84 -124 77 -128 73 -130 c 0
 68 -132 66 -133 66 -133 c 1
 84 -184 l 1
 84 -184 92 -180 109 -172 c 0
 125 -164 143 -151 163 -134 c 0
 183 -117 201 -96 217 -70 c 0
 233 -44 242 -12 242 25 c 0
 242 59 234 87 218 110 c 0
 202 132 184 148 164 158 c 0
EndSplineSet
EndChar
StartChar: hyphen
Encoding: 45 45
OldEncoding: 45
Width: 571
VWidth: 1000
Flags: W
HStem: 170 68<61 506>
Fore
506 170 m 1
 61 170 l 1
 61 238 l 1
 506 238 l 1
 506 170 l 1
EndSplineSet
EndChar
StartChar: period
Encoding: 46 46
OldEncoding: 46
Width: 249
VWidth: 1000
Flags: W
Fore
203 66 m 0
 203 44 194 26 177 11 c 0
 160 -3 141 -10 121 -10 c 0
 100 -10 82 -3 67 11 c 0
 51 26 43 44 43 66 c 0
 43 87 51 106 66 122 c 0
 81 138 99 145 121 145 c 0
 141 145 160 137 177 121 c 0
 194 104 203 86 203 66 c 0
EndSplineSet
EndChar
StartChar: slash
Encoding: 47 47
OldEncoding: 47
Width: 501
VWidth: 1000
Flags: W
DStem: 387 977 496 977 6 -240 113 -240
Fore
496 977 m 1
 113 -240 l 1
 6 -240 l 1
 387 977 l 1
 496 977 l 1
EndSplineSet
MinimumDistance: x0,-1 
EndChar
StartChar: zero
Encoding: 48 48
OldEncoding: 48
Width: 722
VWidth: 1000
Flags: W
HStem: -16 67<348 366> 877 67<348 366>
VStem: 45 164<431 497> 512 164<431 497>
Fore
512 463 m 0
 512 739 461 877 360 877 c 0
 259 877 209 739 209 463 c 0
 209 188 259 51 360 51 c 0
 461 51 512 188 512 463 c 0
676 463 m 0
 676 343 656 242 616 162 c 0
 562 43 477 -16 360 -16 c 0
 302 -16 252 -1 212 29 c 0
 172 59 139 97 115 144 c 0
 90 191 72 243 61 299 c 0
 51 355 45 410 45 463 c 0
 45 515 51 569 61 626 c 0
 72 682 90 734 116 781 c 0
 141 828 174 867 214 898 c 0
 254 929 303 944 360 944 c 0
 475 944 560 884 616 764 c 0
 656 681 676 580 676 463 c 0
EndSplineSet
MinimumDistance: x4,-1 
EndChar
StartChar: one
Encoding: 49 49
OldEncoding: 49
Width: 448
VWidth: 1000
Flags: W
HStem: 0 55<39.0627 67.9836 380 424>
VStem: 158 147<127 769>
Fore
424 0 m 1
 39 0 l 1
 39 55 l 1
 83 55 113 61 131 72 c 0
 149 83 158 106 158 141 c 2
 158 752 l 2
 158 782 150 797 133 797 c 0
 129 797 94 784 29 760 c 1
 29 813 l 1
 270 946 l 1
 305 940 l 1
 305 119 l 2
 305 87 313 68 328 61 c 2
 326 63 l 2
 342 58 375 55 424 55 c 1
 424 0 l 1
EndSplineSet
MinimumDistance: x10,-1 
EndChar
StartChar: two
Encoding: 50 50
OldEncoding: 50
Width: 708
VWidth: 1000
Flags: W
HStem: 0 135<233 510> 811 133<279 344>
VStem: 451 149<635 684>
DStem: 285 301 426 344 45 39 233 135
Fore
670 213 m 1
 588 0 l 1
 45 0 l 1
 45 39 l 1
 285 301 l 2
 395 423 451 534 451 635 c 0
 451 692 436 736 407 766 c 0
 377 796 335 811 279 811 c 0
 235 811 199 793 170 758 c 0
 148 732 126 689 104 629 c 1
 45 645 l 1
 60 737 92 809 141 863 c 0
 190 917 258 944 344 944 c 0
 381 944 415 938 445 925 c 0
 476 912 503 894 526 870 c 0
 550 847 568 820 581 787 c 0
 594 755 600 721 600 684 c 0
 600 583 542 470 426 344 c 2
 233 135 l 1
 506 135 l 2
 532 135 553 141 569 154 c 0
 573 158 580 166 588 178 c 0
 596 190 606 208 618 231 c 1
 670 213 l 1
EndSplineSet
MinimumDistance: x16,-1 
EndChar
StartChar: three
Encoding: 51 51
OldEncoding: 51
Width: 634
VWidth: 1000
Flags: W
HStem: 827 117<283 326>
VStem: 406 141<707 748> 459 133<254 307>
Fore
592 307 m 0
 592 205 552 123 473 61 c 0
 439 34 400 14 355 2 c 0
 311 -10 263 -16 211 -16 c 0
 178 -16 149 -12 123 -2 c 0
 108 3 92 12 75 25 c 0
 58 37 49 54 49 76 c 0
 49 99 56 115 71 125 c 0
 85 134 100 139 117 139 c 0
 126 139 139 137 156 131 c 0
 172 126 191 115 213 100 c 0
 233 87 252 77 267 72 c 0
 283 66 295 63 303 63 c 0
 352 63 390 83 418 123 c 0
 445 161 459 205 459 254 c 0
 459 284 454 309 444 328 c 0
 425 365 396 393 357 414 c 0
 318 434 264 444 193 444 c 1
 186 494 l 1
 332 540 406 611 406 707 c 0
 406 743 394 773 371 795 c 0
 347 816 318 827 283 827 c 0
 213 827 152 779 100 682 c 1
 45 698 l 1
 94 862 188 944 326 944 c 0
 388 944 441 927 483 894 c 0
 526 861 547 812 547 748 c 0
 547 678 511 616 440 561 c 1
 458 552 473 542 486 532 c 0
 499 523 511 513 522 504 c 0
 548 481 566 451 577 415 c 0
 587 379 592 343 592 307 c 0
EndSplineSet
MinimumDistance: x0,-1 
EndChar
StartChar: four
Encoding: 52 52
OldEncoding: 52
Width: 667
VWidth: 1000
Flags: W
HStem: 0 21G<371 510> 221 119<115 369 510 637> 906 20G<422 510>
VStem: 371 139<0 221 340 709>
DStem: 422 926 369 709 8 328 115 340
Fore
369 340 m 1
 369 709 l 1
 115 340 l 1
 369 340 l 1
637 221 m 1
 510 221 l 1
 510 0 l 1
 371 0 l 1
 371 221 l 1
 8 221 l 1
 8 328 l 1
 422 926 l 1
 510 926 l 1
 510 340 l 1
 637 340 l 1
 637 221 l 1
EndSplineSet
MinimumDistance: x3,-1 x10,12 y12,10 y12,11 y4,6 y4,5 y9,7 x7,9 x7,8 x4,13 x4,3 
EndChar
StartChar: five
Encoding: 53 53
OldEncoding: 53
Width: 651
VWidth: 1000
Flags: W
HStem: -16 84<217 295> 791 139<257 512>
DStem: 223 930 258 791 74 596 217 707
Fore
606 944 m 1
 551 811 l 1
 544 797 528 791 502 791 c 2
 258 791 l 1
 217 707 l 1
 291 694 351 675 398 648 c 0
 445 622 483 593 510 561 c 0
 521 547 531 531 541 511 c 0
 550 491 558 470 565 449 c 0
 572 427 577 404 581 382 c 0
 584 359 586 339 586 319 c 0
 586 216 548 133 473 72 c 0
 399 13 314 -16 217 -16 c 0
 93 -16 31 16 31 80 c 0
 31 103 39 120 55 132 c 0
 72 144 87 150 102 150 c 0
 137 150 174 134 215 102 c 0
 246 79 273 68 295 68 c 0
 345 68 385 91 414 137 c 0
 441 178 455 229 455 291 c 0
 455 381 414 449 332 496 c 0
 296 515 259 530 220 541 c 0
 181 552 142 557 102 557 c 0
 83 557 74 567 74 586 c 2
 74 596 l 1
 223 930 l 1
 510 930 l 2
 526 930 545 945 567 975 c 1
 606 944 l 1
EndSplineSet
MinimumDistance: x3,-1 
EndChar
StartChar: six
Encoding: 54 54
OldEncoding: 54
Width: 675
VWidth: 1000
Flags: W
HStem: -16 71<335 365> 508 96<319 377>
VStem: 35 164<355 403> 479 154<253 307>
Fore
479 254 m 0
 479 423 426 508 319 508 c 0
 298 508 278 506 261 501 c 0
 244 496 229 487 217 475 c 1
 213 463 209 447 205 427 c 0
 201 407 199 384 199 356 c 0
 199 325 201 291 205 256 c 0
 209 221 216 188 227 159 c 0
 238 129 254 105 275 85 c 0
 297 65 324 55 356 55 c 0
 380 55 399 61 415 72 c 0
 430 83 443 97 453 116 c 0
 462 134 469 155 473 179 c 0
 477 203 479 228 479 254 c 0
633 307 m 0
 633 262 626 220 613 180 c 0
 600 141 581 106 556 77 c 0
 531 47 500 25 463 8 c 0
 426 -8 384 -16 336 -16 c 0
 279 -16 231 -4 193 20 c 0
 154 45 124 77 100 117 c 0
 77 156 60 201 50 252 c 0
 40 302 35 353 35 403 c 0
 35 477 50 547 81 612 c 0
 112 678 153 735 205 784 c 0
 257 834 317 872 386 901 c 0
 455 930 527 944 602 944 c 1
 610 891 l 1
 512 873 430 836 365 779 c 0
 299 723 255 650 231 561 c 1
 241 567 250 571 257 574 c 0
 265 578 274 582 285 586 c 0
 317 598 348 604 377 604 c 0
 416 604 452 597 484 582 c 0
 516 567 543 546 565 519 c 0
 587 493 604 461 615 425 c 0
 627 389 633 350 633 307 c 0
EndSplineSet
MinimumDistance: x13,-1 
EndChar
StartChar: seven
Encoding: 55 55
OldEncoding: 55
Width: 655
VWidth: 1000
Flags: W
HStem: -8 21G<223 348> 795 133<216 483>
DStem: 483 795 631 883 223 -8 348 -8
Fore
631 883 m 1
 348 -8 l 1
 223 -8 l 1
 483 795 l 1
 223 795 l 2
 189 795 162 786 141 770 c 0
 137 767 130 758 120 743 c 0
 110 728 96 707 80 678 c 1
 25 702 l 1
 111 928 l 1
 631 928 l 1
 631 883 l 1
EndSplineSet
MinimumDistance: x0,-1 
EndChar
StartChar: eight
Encoding: 56 56
OldEncoding: 56
Width: 624
VWidth: 1000
Flags: W
HStem: -16 71<305 336> 874 70<286 320>
VStem: 47 135<207 241> 55 131<720 754> 426 127<720 757> 444 134<186 219>
Fore
426 743 m 0
 426 779 416 808 397 831 c 0
 375 860 344 874 303 874 c 0
 270 874 243 864 220 842 c 0
 198 820 186 791 186 754 c 0
 186 692 233 629 326 563 c 1
 341 575 354 587 366 598 c 0
 377 609 384 616 387 621 c 0
 413 655 426 696 426 743 c 0
444 186 m 0
 444 233 431 269 406 295 c 0
 395 307 378 323 354 342 c 0
 331 361 302 384 266 412 c 1
 248 394 236 381 229 374 c 0
 223 366 218 360 215 354 c 0
 204 339 196 321 190 298 c 0
 185 275 182 252 182 227 c 0
 182 178 195 137 219 104 c 0
 244 72 279 55 324 55 c 0
 359 55 388 68 411 92 c 0
 433 117 444 148 444 186 c 0
578 219 m 0
 578 178 570 143 556 114 c 0
 542 84 522 60 498 41 c 0
 473 22 444 8 412 -2 c 0
 379 -12 344 -16 307 -16 c 0
 273 -16 240 -11 209 -1 c 0
 177 9 150 24 126 44 c 0
 102 64 83 88 69 116 c 0
 54 144 47 176 47 213 c 0
 47 243 50 268 55 289 c 0
 61 309 69 327 79 343 c 0
 89 359 102 374 118 388 c 0
 133 402 152 418 172 436 c 0
 176 439 181 442 185 446 c 0
 190 451 197 456 205 463 c 1
 198 471 191 479 184 485 c 0
 177 492 171 499 164 506 c 0
 146 522 130 538 117 552 c 0
 103 566 92 581 83 597 c 0
 74 613 67 630 62 650 c 0
 58 670 55 694 55 721 c 0
 55 756 62 788 77 815 c 0
 91 842 110 866 134 885 c 0
 158 904 185 919 216 929 c 0
 247 939 279 944 311 944 c 0
 343 944 373 940 402 932 c 0
 432 924 458 911 480 894 c 0
 503 877 521 855 534 829 c 0
 546 803 553 773 553 737 c 0
 553 681 538 637 508 604 c 0
 478 571 440 541 393 512 c 1
 399 507 405 501 412 495 c 0
 418 488 425 483 432 477 c 0
 454 459 474 442 492 425 c 0
 509 408 525 389 538 370 c 0
 551 350 560 328 567 304 c 0
 574 280 578 252 578 219 c 0
EndSplineSet
MinimumDistance: x19,-1 
EndChar
StartChar: nine
Encoding: 57 57
OldEncoding: 57
Width: 677
VWidth: 1000
Flags: W
HStem: 319 93<297 348> 874 70<311 338>
VStem: 41 158<601 655> 475 166<516 582>
Fore
475 549 m 2
 475 766 424 874 322 874 c 0
 240 874 199 801 199 655 c 0
 199 629 201 602 206 572 c 0
 211 543 218 517 229 494 c 0
 240 470 255 451 274 435 c 0
 294 419 318 412 348 412 c 0
 390 412 429 426 463 455 c 1
 471 459 475 472 475 496 c 2
 475 549 l 2
641 551 m 0
 641 395 593 265 498 160 c 0
 387 35 248 -27 82 -27 c 1
 74 33 l 1
 120 38 163 51 204 70 c 0
 244 89 281 113 313 142 c 0
 346 172 375 205 399 242 c 0
 424 279 443 318 457 360 c 1
 406 333 353 319 297 319 c 0
 219 319 156 348 106 406 c 0
 63 457 41 523 41 602 c 0
 41 696 66 776 115 840 c 0
 142 875 174 901 212 919 c 0
 250 936 291 944 336 944 c 0
 436 944 513 901 569 815 c 0
 617 739 641 651 641 551 c 0
EndSplineSet
MinimumDistance: x9,-1 
EndChar
StartChar: colon
Encoding: 58 58
OldEncoding: 58
Width: 264
VWidth: 1000
Flags: W
HStem: -12 184<114.165 130> 473 184<114.165 130>
Fore
49 565 m 0
 49 539 56 517 71 500 c 0
 85 482 104 473 127 473 c 0
 150 473 169 482 184 500 c 0
 199 517 207 539 207 565 c 0
 207 591 199 613 184 631 c 0
 169 649 150 657 127 657 c 0
 104 657 85 649 71 631 c 0
 56 613 49 591 49 565 c 0
49 80 m 0
 49 54 56 32 71 14 c 0
 85 -3 104 -12 127 -12 c 0
 150 -12 169 -3 184 14 c 0
 199 32 207 54 207 80 c 0
 207 106 199 128 184 145 c 0
 169 163 150 172 127 172 c 0
 104 172 85 163 71 145 c 0
 56 128 49 106 49 80 c 0
EndSplineSet
EndChar
StartChar: semicolon
Encoding: 59 59
OldEncoding: 59
Width: 264
VWidth: 1000
Flags: W
HStem: 4 170<115 138> 481 185<104.158 125>
Fore
160 168 m 0
 156 171 150 172 143 173 c 0
 137 174 130 174 123 174 c 0
 100 174 80 166 62 150 c 0
 45 133 37 113 37 88 c 0
 37 65 45 45 62 29 c 0
 80 12 100 4 123 4 c 0
 132 4 144 5 158 8 c 1
 158 -2 l 2
 158 -23 150 -42 135 -61 c 0
 120 -81 104 -96 86 -109 c 0
 78 -115 71 -120 67 -122 c 0
 62 -124 59 -125 59 -125 c 1
 78 -178 l 1
 78 -178 86 -174 102 -166 c 0
 119 -158 137 -145 158 -127 c 0
 178 -109 197 -87 213 -61 c 0
 229 -35 238 -4 238 33 c 0
 238 68 230 97 214 120 c 0
 198 142 180 158 160 168 c 0
39 573 m 0
 39 547 46 526 60 508 c 0
 75 490 94 481 117 481 c 0
 140 481 159 490 174 508 c 0
 189 526 197 547 197 573 c 0
 197 599 189 621 174 639 c 0
 159 657 140 666 117 666 c 0
 94 666 75 657 60 639 c 0
 46 621 39 599 39 573 c 0
EndSplineSet
EndChar
StartChar: less
Encoding: 60 60
OldEncoding: 60
Width: 792
VWidth: 1000
Flags: W
DStem: 4 311 137 365 731 -18 731 94 731 748 731 635 4 416 137 365
Fore
731 -18 m 1
 4 311 l 1
 4 416 l 1
 731 748 l 1
 731 635 l 1
 137 365 l 1
 731 94 l 1
 731 -18 l 1
EndSplineSet
MinimumDistance: x0,-1 
EndChar
StartChar: equal
Encoding: 61 61
OldEncoding: 61
Width: 806
VWidth: 1000
Flags: W
HStem: 168 98<63 786> 428 98<63 786>
Fore
786 428 m 1
 63 428 l 1
 63 526 l 1
 786 526 l 1
 786 428 l 1
786 168 m 1
 63 168 l 1
 63 266 l 1
 786 266 l 1
 786 168 l 1
EndSplineSet
EndChar
StartChar: greater
Encoding: 62 62
OldEncoding: 62
Width: 790
VWidth: 1000
Flags: W
DStem: 59 635 59 748 651 365 786 416 651 365 786 311 59 94 59 -18
Fore
786 311 m 1
 59 -18 l 1
 59 94 l 1
 651 365 l 1
 59 635 l 1
 59 748 l 1
 786 416 l 1
 786 311 l 1
EndSplineSet
MinimumDistance: x0,-1 
EndChar
StartChar: question
Encoding: 63 63
OldEncoding: 63
Width: 550
VWidth: 1000
Flags: W
HStem: -8 178<260 281> 893 76<235 262>
VStem: 27 155<722 752> 180 178<71 89> 362 160<711 745>
Fore
522 723 m 0
 522 752 518 780 510 807 c 0
 502 834 488 860 469 885 c 0
 442 918 409 940 371 951 c 0
 332 963 296 969 262 969 c 0
 231 969 201 964 172 953 c 0
 143 943 118 928 97 909 c 0
 76 890 59 867 46 841 c 0
 33 814 27 784 27 752 c 0
 27 716 36 690 54 673 c 0
 73 656 92 647 113 647 c 0
 132 647 148 653 162 665 c 0
 175 676 182 694 182 717 c 2
 182 723 l 2
 182 733 180 744 175 757 c 0
 170 770 162 781 152 791 c 0
 145 797 140 804 136 811 c 0
 133 818 131 823 131 825 c 0
 131 842 142 857 164 872 c 0
 175 879 187 884 200 888 c 0
 213 891 225 893 236 893 c 0
 276 893 308 878 330 848 c 0
 352 818 362 780 362 735 c 0
 362 708 359 678 352 644 c 0
 345 611 333 574 315 535 c 2
 279 449 l 2
 251 382 238 308 238 227 c 1
 295 227 l 1
 310 307 323 356 334 377 c 0
 346 399 359 419 374 438 c 0
 388 457 403 477 418 496 c 0
 456 539 483 580 499 618 c 0
 514 657 522 692 522 723 c 0
180 80 m 0
 180 55 189 34 206 17 c 0
 223 0 244 -8 268 -8 c 0
 293 -8 314 0 332 17 c 0
 350 34 358 55 358 80 c 0
 358 104 350 126 332 143 c 0
 314 161 293 170 268 170 c 0
 244 170 223 161 206 143 c 0
 189 126 180 104 180 80 c 0
EndSplineSet
MinimumDistance: x0,-1 
EndChar
StartChar: at
Encoding: 64 64
OldEncoding: 64
Width: 1056
VWidth: 1000
Flags: W
HStem: -16 84<538 588> 190 82<740 764> 625 96<602 620> 680 20G<694 831> 868 76<525 572>
VStem: 43 154<415 464> 319 132<363 401> 920 92<511 545>
Fore
612 393 m 0
 623 421 633 447 641 474 c 0
 649 501 653 528 653 555 c 0
 653 601 641 625 616 625 c 0
 570 625 531 597 500 541 c 0
 485 513 473 487 464 462 c 0
 455 437 451 410 451 383 c 0
 451 320 472 289 516 289 c 0
 550 289 582 324 612 393 c 0
1012 530 m 0
 1012 447 989 373 944 307 c 0
 894 229 826 190 741 190 c 0
 718 190 698 195 682 204 c 0
 666 213 650 225 635 240 c 0
 631 245 627 250 624 255 c 0
 620 260 617 265 614 270 c 1
 582 240 l 2
 565 226 547 214 527 205 c 0
 508 195 488 190 469 190 c 0
 424 190 388 207 360 239 c 0
 333 271 319 317 319 379 c 0
 319 443 341 512 385 586 c 0
 438 676 512 721 606 721 c 0
 631 721 649 715 660 705 c 0
 672 694 681 684 688 676 c 1
 694 700 l 1
 831 700 l 1
 735 338 l 1
 733 305 l 1
 733 283 743 272 764 272 c 0
 790 272 812 281 831 299 c 0
 851 317 867 339 880 365 c 0
 893 390 902 418 909 449 c 0
 916 479 920 505 920 528 c 0
 920 576 909 621 888 663 c 0
 867 704 839 740 805 771 c 0
 771 802 731 826 687 843 c 0
 643 860 598 868 553 868 c 0
 492 868 439 856 394 833 c 0
 350 809 313 777 284 736 c 0
 254 696 232 649 218 596 c 0
 204 543 197 487 197 428 c 0
 197 378 207 330 226 286 c 0
 246 241 273 203 306 171 c 0
 340 139 379 114 423 95 c 0
 467 77 515 68 565 68 c 0
 649 68 740 91 840 139 c 1
 870 66 l 1
 808 38 751 18 701 4 c 0
 652 -10 607 -16 567 -16 c 0
 401 -16 268 35 168 139 c 0
 124 184 93 232 73 284 c 0
 53 335 43 387 43 440 c 0
 43 585 91 705 188 801 c 0
 288 896 410 944 553 944 c 0
 677 944 783 907 870 834 c 0
 965 757 1012 656 1012 530 c 0
EndSplineSet
MinimumDistance: x8,-1 
EndChar
StartChar: A
Encoding: 65 65
OldEncoding: 65
Width: 1015
VWidth: 1000
Flags: W
HStem: 0 59<23.0313 36.9612 305 332 608 666 982 993> 285 92<344 594> 906 20G<465 541>
DStem: 465 926 471 672 131 135 344 377 465 926 307 285 131 135 252 141
Fore
344 377 m 1
 594 377 l 1
 471 672 l 1
 344 377 l 1
993 0 m 1
 608 0 l 1
 608 59 l 1
 664 59 l 2
 676 59 685 63 691 70 c 0
 697 76 700 83 700 88 c 0
 700 99 698 112 693 128 c 0
 688 144 683 158 676 172 c 2
 627 285 l 1
 307 285 l 1
 252 141 l 1
 245 128 242 113 242 98 c 0
 242 72 272 59 332 59 c 1
 332 0 l 1
 23 0 l 1
 23 59 l 1
 46 59 67 67 86 81 c 0
 105 95 120 113 131 135 c 1
 465 926 l 1
 541 926 l 1
 872 166 l 2
 892 124 909 95 925 81 c 0
 940 67 963 59 993 59 c 1
 993 0 l 1
EndSplineSet
MinimumDistance: x2,-1 
EndChar
StartChar: B
Encoding: 66 66
OldEncoding: 66
Width: 923
VWidth: 1000
Flags: W
HStem: 0 61<47.0626 78.7771> 0 84<414 471> 438 88<360.063 415.475> 842 84<369 448> 868 58<47 55.2>
VStem: 176 184<143 438 526 785> 645 184<671 689> 674 200<254.125 273>
Fore
645 674 m 0
 645 786 573 842 430 842 c 2
 371 842 l 2
 364 842 360 834 360 817 c 2
 360 526 l 1
 469 528 l 2
 586 531 645 580 645 674 c 0
674 260 m 0
 674 347 627 403 535 426 c 0
 500 434 442 438 360 438 c 1
 360 125 l 2
 360 107 367 95 381 88 c 2
 379 88 l 2
 393 85 414 84 444 84 c 0
 597 84 674 143 674 260 c 0
874 254 m 0
 872 175 841 113 782 68 c 0
 724 23 646 0 551 0 c 2
 47 0 l 1
 47 61 l 1
 99 61 133 68 151 80 c 0
 168 92 176 120 176 164 c 2
 176 762 l 2
 176 789 174 811 170 828 c 0
 166 845 152 855 129 858 c 2
 47 868 l 1
 47 926 l 1
 463 926 l 2
 707 926 829 844 829 682 c 0
 829 646 823 616 809 590 c 0
 795 564 778 541 756 522 c 0
 749 515 740 510 729 505 c 0
 718 500 707 495 694 489 c 1
 814 447 874 369 874 254 c 0
EndSplineSet
MinimumDistance: x13,-1 
EndChar
StartChar: C
Encoding: 67 67
OldEncoding: 67
Width: 942
VWidth: 1000
Flags: W
HStem: -16 90<509 547> 840 90<484 530> 908 20G<799 868>
VStem: 43 213<415 481>
Fore
891 170 m 1
 880 151 867 133 851 117 c 0
 835 100 815 84 791 68 c 0
 751 40 708 19 660 5 c 0
 613 -9 563 -16 510 -16 c 0
 438 -16 372 -6 313 15 c 0
 255 37 205 68 166 111 c 0
 84 198 43 312 43 453 c 0
 43 585 87 700 176 797 c 0
 218 842 266 875 318 897 c 0
 371 919 427 930 485 930 c 0
 504 930 524 929 545 927 c 0
 565 925 585 923 603 921 c 0
 622 919 637 916 650 914 c 0
 663 912 672 911 676 909 c 2
 758 885 l 1
 774 886 788 900 799 928 c 1
 868 928 l 1
 881 598 l 1
 807 598 l 1
 791 676 758 736 711 777 c 0
 663 819 603 840 530 840 c 0
 440 840 372 799 326 719 c 0
 304 682 287 642 274 598 c 0
 262 554 256 504 256 449 c 0
 256 395 262 347 273 303 c 0
 285 259 304 220 330 184 c 0
 354 150 384 123 418 103 c 0
 452 84 495 74 547 74 c 0
 645 74 743 121 842 215 c 1
 891 170 l 1
EndSplineSet
MinimumDistance: x24,-1 
EndChar
StartChar: D
Encoding: 68 68
OldEncoding: 68
Width: 1056
VWidth: 1000
Flags: W
HStem: 0 61<51.0313 78.4576> 0 84<402 457> 844 84<378 436> 868 60<51 63.3333>
VStem: 170 186<143 785> 805 207<431 481>
Fore
805 461 m 0
 805 588 767 683 692 748 c 0
 657 779 616 803 569 819 c 0
 523 836 466 844 399 844 c 0
 380 844 368 842 364 839 c 0
 359 835 356 824 356 805 c 2
 356 125 l 2
 356 106 364 94 378 90 c 0
 392 86 406 84 418 84 c 0
 550 84 648 115 711 178 c 0
 773 241 805 335 805 461 c 0
1012 461 m 0
 1012 399 1002 344 984 294 c 0
 966 244 939 199 903 160 c 0
 809 53 666 0 475 0 c 2
 51 0 l 1
 51 61 l 1
 74 61 94 63 109 66 c 0
 124 68 136 73 145 80 c 0
 155 87 161 97 165 111 c 0
 168 124 170 142 170 164 c 2
 170 764 l 2
 170 793 168 815 164 833 c 0
 160 850 147 859 125 862 c 2
 51 868 l 1
 51 928 l 1
 455 928 l 2
 618 928 749 892 846 821 c 0
 956 743 1012 623 1012 461 c 0
EndSplineSet
MinimumDistance: x10,-1 
EndChar
StartChar: E
Encoding: 69 69
OldEncoding: 69
Width: 937
VWidth: 1000
Flags: W
HStem: 0 61<51.0627 76.9696> 0 86<402 564> 438 94<354 549> 698 21G<733 811> 844 84<381 580>
VStem: 166 188<143 438 532 785>
Fore
889 262 m 1
 819 0 l 1
 51 0 l 1
 51 61 l 1
 96 61 127 69 142 83 c 0
 158 97 166 124 166 164 c 2
 166 764 l 2
 166 795 164 818 160 831 c 0
 156 845 143 854 121 858 c 2
 51 868 l 1
 51 928 l 1
 811 928 l 1
 811 698 l 1
 733 698 l 1
 724 767 706 808 680 823 c 0
 653 837 608 844 547 844 c 2
 383 844 l 2
 373 844 366 840 361 831 c 0
 357 823 354 814 354 805 c 2
 354 532 l 1
 528 532 l 2
 578 532 608 539 621 551 c 0
 637 565 649 601 657 659 c 1
 739 659 l 1
 739 313 l 1
 657 313 l 1
 649 373 638 409 625 420 c 0
 612 432 580 438 528 438 c 2
 354 438 l 1
 354 127 l 2
 354 115 359 105 368 97 c 0
 376 90 393 86 416 86 c 2
 524 86 l 2
 602 86 658 96 692 117 c 0
 713 129 733 147 752 171 c 0
 771 195 788 225 803 262 c 1
 889 262 l 1
EndSplineSet
MinimumDistance: x18,-1 
EndChar
StartChar: F
Encoding: 70 70
OldEncoding: 70
Width: 843
VWidth: 1000
Flags: W
HStem: 0 61<49.0626 77.6375 448 469> 442 90<352 546> 698 21G<737 817> 842 84<368 578> 858 68<119 121>
VStem: 164 188<159 442 532 785>
Fore
817 698 m 1
 737 698 l 1
 729 765 711 806 684 821 c 0
 657 835 613 842 553 842 c 2
 373 842 l 2
 359 842 352 831 352 811 c 2
 352 532 l 1
 522 532 l 2
 569 532 601 541 618 558 c 0
 636 575 647 608 651 657 c 1
 729 657 l 1
 729 311 l 1
 651 311 l 1
 647 362 636 396 617 415 c 0
 599 433 567 442 522 442 c 2
 352 442 l 1
 352 164 l 2
 352 124 360 97 377 83 c 0
 393 69 424 61 469 61 c 1
 469 0 l 1
 49 0 l 1
 49 61 l 1
 102 61 136 70 150 86 c 0
 159 100 164 131 164 180 c 2
 164 762 l 2
 164 784 162 801 159 813 c 0
 155 825 151 835 145 842 c 0
 140 849 135 853 130 855 c 0
 125 857 122 858 119 858 c 2
 49 868 l 1
 49 926 l 1
 813 926 l 1
 817 698 l 1
EndSplineSet
MinimumDistance: x5,-1 
EndChar
StartChar: G
Encoding: 71 71
OldEncoding: 71
Width: 1038
VWidth: 1000
Flags: W
HStem: -16 86<542 576> 446 68<614.031 650.919 984.25 995> 842 88<526 572>
VStem: 47 213<431 481> 729 174<127 369>
Fore
995 446 m 1
 952 442 928 438 924 434 c 0
 910 421 903 395 903 358 c 2
 903 94 l 2
 903 86 897 77 886 69 c 0
 874 60 859 52 841 44 c 0
 822 37 801 30 777 24 c 0
 753 17 730 12 707 6 c 0
 672 -1 644 -6 621 -10 c 0
 597 -14 576 -16 557 -16 c 0
 388 -16 257 32 164 129 c 0
 117 178 86 230 71 286 c 0
 55 341 47 402 47 469 c 0
 47 603 93 713 184 801 c 0
 228 843 280 875 339 897 c 0
 398 919 462 930 530 930 c 0
 543 930 557 929 572 929 c 0
 588 928 603 927 618 925 c 0
 634 923 648 921 660 919 c 0
 673 916 683 914 690 911 c 2
 772 885 l 1
 790 885 803 900 813 930 c 1
 887 930 l 1
 897 614 l 1
 825 614 l 1
 767 766 675 842 551 842 c 0
 499 842 455 832 420 812 c 0
 384 792 353 760 326 717 c 0
 302 679 286 637 275 592 c 0
 265 547 260 497 260 442 c 0
 260 389 266 340 279 295 c 0
 291 250 311 212 338 180 c 0
 371 143 404 116 437 97 c 0
 471 79 513 70 565 70 c 0
 580 70 597 71 615 74 c 0
 634 76 651 80 668 84 c 0
 709 95 729 110 729 129 c 2
 729 344 l 2
 729 375 727 398 722 412 c 0
 717 425 705 435 684 440 c 0
 672 444 649 446 614 446 c 1
 614 514 l 1
 995 514 l 1
 995 446 l 1
EndSplineSet
MinimumDistance: x2,-1 
EndChar
StartChar: H
Encoding: 72 72
OldEncoding: 72
Width: 1077
VWidth: 1000
Flags: W
HStem: 0 61<53 76 459 480.997 596 618 1002 1024> 424 94<360 719> 870 58<53.0035 86 452 481 596.001 630 996 1024>
VStem: 174 186<159 424 518 785> 719 184<159 424 518 787>
Fore
1024 870 m 1
 1024 928 l 1
 596 928 l 1
 596 870 l 1
 597 870 604 870 616 869 c 0
 629 869 643 867 659 863 c 0
 676 860 687 855 694 848 c 0
 704 840 710 829 714 816 c 0
 717 803 719 783 719 756 c 2
 719 518 l 1
 360 518 l 1
 360 756 l 2
 360 783 362 803 366 816 c 0
 369 829 375 840 383 848 c 0
 391 855 403 860 420 863 c 0
 436 867 450 869 462 869 c 0
 473 870 480 870 481 870 c 1
 481 928 l 1
 53 928 l 1
 53 870 l 1
 56 870 63 870 76 869 c 0
 88 869 103 867 121 863 c 0
 139 860 151 855 158 848 c 0
 165 841 169 831 171 818 c 0
 173 805 174 795 174 786 c 2
 174 176 l 2
 174 152 173 132 172 118 c 0
 171 103 165 91 156 80 c 0
 150 74 139 70 121 68 c 0
 103 65 88 63 76 62 c 0
 63 62 56 61 53 61 c 1
 53 0 l 1
 481 0 l 1
 481 61 l 1
 479 61 471 62 459 62 c 0
 446 63 431 65 414 68 c 0
 396 70 384 74 379 80 c 0
 372 87 367 97 365 110 c 0
 362 123 360 148 360 186 c 2
 360 424 l 1
 719 424 l 1
 719 186 l 2
 719 148 717 123 714 110 c 0
 710 97 705 87 698 80 c 0
 693 74 681 70 664 68 c 0
 646 65 631 63 618 62 c 0
 606 62 599 61 596 61 c 1
 596 0 l 1
 1024 0 l 1
 1024 61 l 1
 1023 61 1015 62 1002 62 c 0
 990 63 975 65 957 68 c 0
 940 70 929 74 924 80 c 0
 913 91 907 103 905 118 c 0
 904 132 903 152 903 176 c 2
 903 778 l 2
 903 785 904 797 906 813 c 0
 908 829 913 841 920 848 c 0
 926 855 939 860 956 863 c 0
 974 867 990 869 1002 869 c 0
 1015 870 1023 870 1024 870 c 1
EndSplineSet
MinimumDistance: x54,-1 
EndChar
StartChar: I
Encoding: 73 73
OldEncoding: 73
Width: 507
VWidth: 1000
Flags: W
HStem: 0 61<39.0626 68.2753 438 467> 866 60<39.0312 92.7403 422 467>
VStem: 160 184<143 785>
Fore
467 0 m 1
 39 0 l 1
 39 61 l 1
 87 61 119 68 135 81 c 0
 152 94 160 122 160 164 c 2
 160 762 l 2
 160 806 155 834 145 848 c 0
 139 857 125 863 105 864 c 0
 86 866 63 866 39 866 c 1
 39 926 l 1
 467 926 l 1
 467 866 l 1
 440 866 417 866 398 864 c 0
 380 863 367 857 360 848 c 0
 350 836 344 807 344 762 c 2
 344 164 l 2
 344 120 352 92 369 80 c 0
 385 68 418 61 467 61 c 1
 467 0 l 1
EndSplineSet
MinimumDistance: x14,-1 
EndChar
StartChar: J
Encoding: 74 74
OldEncoding: 74
Width: 569
VWidth: 1000
Flags: W
HStem: -16 198<113 182> 866 62<125.063 156.23 528 545>
VStem: 33 172<82 98> 246 180<239 785>
Fore
545 866 m 1
 478 866 440 851 432 821 c 0
 428 808 426 788 426 764 c 2
 426 264 l 2
 426 182 408 116 371 66 c 0
 328 11 266 -16 182 -16 c 0
 144 -16 113 -9 88 6 c 0
 51 28 33 58 33 96 c 0
 33 115 40 134 55 154 c 0
 70 173 89 182 113 182 c 0
 145 182 169 172 183 151 c 0
 198 129 205 107 205 84 c 0
 205 76 206 71 209 70 c 0
 212 68 214 68 217 68 c 0
 236 68 246 91 246 139 c 2
 246 764 l 2
 246 808 238 836 221 848 c 0
 205 860 173 866 125 866 c 1
 125 928 l 1
 545 928 l 1
 545 866 l 1
EndSplineSet
MinimumDistance: x2,-1 
EndChar
StartChar: K
Encoding: 75 75
OldEncoding: 75
Width: 1105
VWidth: 1000
Flags: W
HStem: 0 61<61.0626 91.2055 460 489 590.031 638.248 1020.43 1041.98> 866 62<61.0626 90.1067 460 494 582.063 616.184 940 977>
VStem: 182 189<143 406 532 785>
DStem: 385 420 524 526 643 150 922 98
Fore
1042 0 m 1
 590 0 l 1
 590 61 l 1
 620 61 642 62 655 63 c 0
 669 65 678 68 682 74 c 0
 683 75 684 79 684 84 c 0
 684 92 680 102 672 114 c 0
 664 125 654 137 643 150 c 2
 385 420 l 1
 371 406 l 1
 371 164 l 2
 371 145 372 128 374 114 c 0
 376 99 380 89 387 82 c 0
 398 71 414 65 434 63 c 0
 455 62 473 61 489 61 c 1
 489 0 l 1
 61 0 l 1
 61 61 l 1
 117 61 154 70 172 88 c 0
 176 92 179 102 180 119 c 0
 182 135 182 156 182 180 c 2
 182 762 l 2
 182 803 174 830 158 845 c 0
 141 859 109 866 61 866 c 1
 61 928 l 1
 494 928 l 1
 494 866 l 1
 470 866 449 865 428 861 c 0
 408 858 393 852 385 844 c 0
 378 837 374 827 373 813 c 0
 371 799 371 782 371 762 c 2
 371 532 l 1
 623 762 l 2
 658 796 676 823 676 842 c 0
 676 858 644 866 582 866 c 1
 582 928 l 1
 977 928 l 1
 977 866 l 1
 958 866 940 866 923 864 c 0
 906 863 888 858 870 850 c 0
 855 843 840 833 824 819 c 0
 809 806 790 788 768 766 c 2
 524 526 l 1
 922 98 l 2
 933 87 949 79 972 72 c 0
 994 65 1018 61 1042 61 c 1
 1042 0 l 1
EndSplineSet
MinimumDistance: x43,-1 
EndChar
StartChar: L
Encoding: 76 76
OldEncoding: 76
Width: 909
VWidth: 1000
Flags: W
HStem: 0 61<53.0627 78.9696> 0 86<420 534> 868 60<471.25 481>
VStem: 168 188<143 785>
Fore
893 270 m 1
 819 0 l 1
 53 0 l 1
 53 61 l 1
 98 61 129 69 144 83 c 0
 160 97 168 124 168 164 c 2
 168 764 l 2
 168 786 167 805 164 820 c 0
 161 836 156 845 150 848 c 2
 53 868 l 1
 53 928 l 1
 481 928 l 1
 481 868 l 1
 403 860 l 2
 394 859 385 855 377 848 c 0
 363 836 356 808 356 764 c 2
 356 127 l 2
 356 119 357 113 358 110 c 0
 360 106 363 102 369 96 c 0
 371 94 379 91 392 89 c 0
 405 87 417 86 428 86 c 2
 469 86 l 2
 526 86 572 88 607 92 c 0
 642 96 668 102 684 111 c 0
 707 122 730 140 752 166 c 0
 773 192 794 227 813 270 c 1
 893 270 l 1
EndSplineSet
MinimumDistance: x15,-1 
EndChar
StartChar: M
Encoding: 77 77
OldEncoding: 77
Width: 1323
VWidth: 1000
Flags: W
HStem: 0 59<1258 1266> 0 61<55.0626 87.4229 406 424 838.031 870.141> 864 62<1238 1266> 866 60<59 66.8>
VStem: 186 111<175 664> 961 188<159 689>
DStem: 297 664 369 926 602 0 664 276
Fore
1266 0 m 1
 838 0 l 1
 838 61 l 1
 866 61 890 63 908 67 c 0
 927 70 939 76 946 84 c 0
 956 98 961 130 961 180 c 2
 961 690 l 1
 649 0 l 1
 602 0 l 1
 297 664 l 1
 297 215 l 2
 297 155 302 115 311 96 c 0
 325 73 362 61 424 61 c 1
 424 0 l 1
 55 0 l 1
 55 61 l 1
 119 61 156 71 166 90 c 0
 180 112 186 154 186 215 c 2
 186 760 l 2
 186 803 180 832 166 846 c 0
 163 849 159 851 154 852 c 0
 148 853 143 855 137 856 c 2
 59 866 l 1
 59 926 l 1
 369 926 l 1
 664 276 l 1
 948 926 l 1
 1266 926 l 1
 1266 864 l 1
 1219 864 1188 857 1172 842 c 0
 1157 827 1149 799 1149 760 c 2
 1149 164 l 2
 1149 109 1164 77 1194 68 c 1
 1266 59 l 1
 1266 0 l 1
EndSplineSet
MinimumDistance: x30,-1 
EndChar
StartChar: N
Encoding: 78 78
OldEncoding: 78
Width: 1093
VWidth: 1000
Flags: W
HStem: -12 21G<852 915> 0 61<49.0626 77.4436 400 416> 866 62<49.0626 70.197 678.063 707.401 1024 1047>
VStem: 180 111<179 688> 805 110<317 741>
DStem: 291 688 322 928 852 -12 805 317
Fore
1047 866 m 1
 1018 866 994 863 975 855 c 0
 956 848 943 838 936 827 c 0
 922 806 915 767 915 711 c 2
 915 -12 l 1
 852 -12 l 1
 291 688 l 1
 291 217 l 2
 291 156 296 115 305 96 c 0
 317 73 354 61 416 61 c 1
 416 0 l 1
 49 0 l 1
 49 61 l 1
 112 61 150 74 164 98 c 0
 175 115 180 154 180 217 c 2
 180 807 l 1
 147 847 104 866 49 866 c 1
 49 928 l 1
 322 928 l 1
 805 317 l 1
 805 711 l 2
 805 742 805 767 804 786 c 0
 803 806 800 820 795 829 c 0
 780 854 741 866 678 866 c 1
 678 928 l 1
 1047 928 l 1
 1047 866 l 1
EndSplineSet
MinimumDistance: x3,-1 
EndChar
StartChar: O
Encoding: 79 79
OldEncoding: 79
Width: 1021
VWidth: 1000
Flags: W
HStem: -16 88<500 518> 852 92<500 518>
VStem: 53 199<431 497> 770 199<431 497>
Fore
53 463 m 0
 53 396 65 333 89 275 c 0
 113 217 145 167 186 124 c 0
 227 81 276 47 332 22 c 0
 388 -4 447 -16 510 -16 c 0
 574 -16 634 -4 689 22 c 0
 744 47 793 81 835 124 c 0
 876 167 909 217 933 275 c 0
 957 333 969 396 969 463 c 0
 969 530 957 592 933 650 c 0
 909 708 876 759 835 803 c 0
 793 847 744 881 689 906 c 0
 634 931 574 944 510 944 c 0
 447 944 388 931 332 906 c 0
 276 881 227 847 186 803 c 0
 145 759 113 708 89 650 c 0
 65 592 53 530 53 463 c 0
252 463 m 0
 252 517 259 568 272 615 c 0
 286 663 304 703 328 738 c 0
 351 773 378 801 410 821 c 0
 441 842 475 852 512 852 c 0
 547 852 581 842 612 821 c 0
 644 801 671 773 694 738 c 0
 717 703 736 663 750 615 c 0
 763 568 770 517 770 463 c 0
 770 408 763 357 750 309 c 0
 736 261 717 220 694 185 c 0
 671 151 644 123 612 102 c 0
 581 82 547 72 512 72 c 0
 475 72 441 82 410 102 c 0
 378 123 351 151 328 185 c 0
 304 220 286 261 272 309 c 0
 259 357 252 408 252 463 c 0
EndSplineSet
MinimumDistance: x8,-1 
EndChar
StartChar: P
Encoding: 80 80
OldEncoding: 80
Width: 827
VWidth: 1000
Flags: W
HStem: 0 61<51.0313 80.7649 450 473> 389 90<353 436> 844 84<369 410> 866 62<51.0627 79.4978>
VStem: 164 182<143 389 480 785> 608 197<655 689>
Fore
608 666 m 0
 608 724 590 769 554 799 c 0
 518 829 460 844 381 844 c 0
 367 844 358 842 353 839 c 0
 349 835 346 827 346 815 c 2
 346 481 l 1
 352 480 360 479 371 479 c 2
 408 479 l 2
 541 479 608 541 608 666 c 0
805 668 m 0
 805 618 793 575 769 538 c 0
 745 500 712 469 670 444 c 0
 637 425 600 411 558 402 c 0
 516 394 470 389 418 389 c 2
 346 389 l 1
 346 164 l 2
 346 123 356 96 375 82 c 0
 394 68 427 61 473 61 c 1
 473 0 l 1
 51 0 l 1
 51 61 l 1
 77 61 99 63 116 67 c 0
 133 70 144 75 150 82 c 0
 156 90 160 102 162 118 c 0
 163 133 164 154 164 180 c 2
 164 764 l 2
 164 805 157 832 142 846 c 0
 128 859 98 866 51 866 c 1
 51 928 l 1
 432 928 l 2
 525 928 606 911 674 877 c 0
 761 830 805 760 805 668 c 0
EndSplineSet
MinimumDistance: x8,-1 
EndChar
StartChar: Q
Encoding: 81 81
OldEncoding: 81
Width: 991
VWidth: 1000
Flags: W
HStem: -219 61<880 898> 850 100<480 498>
VStem: 33 203<436 486> 745 201<436 486>
Fore
33 465 m 0
 33 410 41 358 56 309 c 0
 72 260 94 215 122 175 c 0
 150 135 183 100 221 71 c 0
 259 41 302 18 348 2 c 1
 389 -57 l 1
 433 -109 487 -149 552 -177 c 0
 617 -205 692 -219 776 -219 c 2
 899 -219 l 1
 899 -158 l 1
 874 -158 849 -156 821 -153 c 0
 794 -149 767 -142 739 -131 c 0
 712 -120 685 -105 658 -85 c 0
 632 -65 608 -40 588 -8 c 1
 640 4 687 25 731 53 c 0
 775 82 812 117 844 159 c 0
 875 200 900 247 919 299 c 0
 937 351 946 406 946 465 c 0
 946 532 934 595 910 653 c 0
 886 712 854 764 812 808 c 0
 770 852 722 887 667 912 c 0
 611 938 552 950 489 950 c 0
 427 950 368 938 312 912 c 0
 257 887 209 852 167 808 c 0
 125 764 93 712 69 653 c 0
 45 595 33 532 33 465 c 0
236 463 m 0
 236 516 242 566 255 613 c 0
 268 660 286 701 309 736 c 0
 332 771 360 799 391 819 c 0
 423 840 456 850 492 850 c 0
 527 850 560 840 591 819 c 0
 622 799 649 771 672 736 c 0
 695 701 713 660 726 613 c 0
 739 566 745 516 745 463 c 0
 745 410 739 359 726 312 c 0
 713 265 695 224 672 189 c 0
 649 155 622 127 591 106 c 0
 560 86 527 76 492 76 c 0
 456 76 423 86 391 106 c 0
 360 127 332 155 309 189 c 0
 286 224 268 265 255 312 c 0
 242 359 236 410 236 463 c 0
EndSplineSet
MinimumDistance: x17,-1 
EndChar
StartChar: R
Encoding: 82 82
OldEncoding: 82
Width: 999
VWidth: 1000
Flags: W
HStem: 0 61<53.0313 79.5186 448 473 948 963> 844 84<385 438> 866 62<53.0626 84.4829>
VStem: 166 188<143 412 498 785> 618 197<655.404 689>
Fore
618 678 m 0
 618 733 601 774 566 802 c 0
 531 830 482 844 418 844 c 0
 386 844 369 842 365 840 c 0
 358 836 354 826 354 811 c 2
 354 498 l 1
 393 498 424 500 450 505 c 0
 475 510 498 516 518 524 c 0
 585 552 618 603 618 678 c 0
963 0 m 1
 707 0 l 1
 387 414 l 1
 354 412 l 1
 354 164 l 2
 354 124 362 97 379 83 c 0
 395 69 427 61 473 61 c 1
 473 0 l 1
 53 0 l 1
 53 61 l 1
 81 61 103 64 120 69 c 0
 137 73 148 79 154 84 c 0
 162 92 166 124 166 180 c 2
 166 764 l 2
 166 784 165 802 163 816 c 0
 161 830 157 840 152 846 c 0
 138 859 105 866 53 866 c 1
 53 928 l 1
 453 928 l 2
 694 928 815 844 815 676 c 0
 815 556 738 476 584 436 c 1
 842 119 l 2
 858 98 876 84 895 75 c 0
 914 66 937 61 963 61 c 1
 963 0 l 1
EndSplineSet
MinimumDistance: x27,-1 
EndChar
StartChar: S
Encoding: 83 83
OldEncoding: 83
Width: 739
VWidth: 1000
Flags: W
HStem: -14 77<355 383> 854 90<342 358>
VStem: 78 176<698 745> 496 194<197 242>
Fore
690 242 m 0
 690 165 658 101 594 49 c 0
 565 29 533 13 497 2 c 0
 460 -9 423 -14 383 -14 c 0
 368 -14 351 -13 331 -10 c 0
 311 -8 289 -3 266 4 c 0
 223 19 193 27 178 27 c 0
 165 27 158 13 158 -14 c 1
 90 -14 l 1
 49 301 l 1
 111 301 l 1
 143 221 179 161 217 122 c 0
 255 83 302 63 356 63 c 0
 395 63 427 76 455 101 c 0
 482 127 496 158 496 197 c 0
 496 246 474 290 430 330 c 0
 421 338 404 350 382 365 c 0
 359 380 330 397 295 418 c 0
 225 460 176 496 147 524 c 0
 101 572 78 630 78 698 c 0
 78 735 85 769 98 799 c 0
 112 829 131 855 156 877 c 0
 180 898 209 915 241 927 c 0
 273 938 307 944 344 944 c 0
 358 944 374 942 392 939 c 0
 411 936 433 930 461 922 c 2
 532 899 l 1
 542 903 550 918 557 944 c 1
 621 944 l 1
 651 623 l 1
 584 623 l 1
 575 658 565 689 552 717 c 0
 539 744 522 769 502 791 c 0
 459 833 410 854 354 854 c 0
 323 854 298 844 281 824 c 0
 263 805 254 778 254 745 c 0
 254 698 288 651 356 604 c 2
 567 465 l 2
 649 410 690 336 690 242 c 0
EndSplineSet
MinimumDistance: x0,-1 
EndChar
StartChar: T
Encoding: 84 84
OldEncoding: 84
Width: 890
VWidth: 1000
Flags: W
HStem: 0 61<231.031 260.556 642 659> 838 90<274 350 539 612>
VStem: 350 189<159 838>
Fore
854 664 m 1
 778 664 l 1
 763 741 744 788 721 805 c 0
 706 814 689 822 670 828 c 0
 651 835 625 838 592 838 c 2
 539 838 l 1
 539 164 l 2
 539 123 546 96 562 82 c 0
 578 68 610 61 659 61 c 1
 659 0 l 1
 231 0 l 1
 231 61 l 1
 263 61 286 64 301 69 c 0
 316 73 328 79 336 86 c 1
 334 86 l 1
 345 97 350 128 350 180 c 2
 350 838 l 1
 299 838 l 2
 265 838 238 835 217 830 c 0
 197 826 180 818 168 807 c 0
 145 789 125 741 109 664 c 1
 35 664 l 1
 45 928 l 1
 844 928 l 1
 854 664 l 1
EndSplineSet
MinimumDistance: x5,-1 
EndChar
StartChar: U
Encoding: 85 85
OldEncoding: 85
Width: 1067
VWidth: 1000
Flags: W
HStem: -16 92<523 563> 866 62<39.0626 68.2859 454 471 668.063 693.327> 868 60<1012 1028>
VStem: 162 184<319 785> 795 108<319 737>
Fore
1028 868 m 1
 964 864 927 851 918 829 c 0
 908 810 903 771 903 711 c 2
 903 360 l 2
 903 313 899 269 892 230 c 0
 884 191 873 158 858 131 c 0
 829 82 787 45 730 20 c 0
 673 -4 605 -16 524 -16 c 0
 406 -16 315 13 254 73 c 0
 193 132 162 222 162 342 c 2
 162 764 l 2
 162 805 153 832 136 846 c 0
 119 859 87 866 39 866 c 1
 39 928 l 1
 471 928 l 1
 471 866 l 1
 422 866 389 860 372 848 c 0
 355 836 346 808 346 764 c 2
 346 332 l 2
 346 161 418 76 563 76 c 0
 657 76 726 109 768 174 c 0
 786 201 795 259 795 346 c 2
 795 711 l 2
 795 773 789 812 778 827 c 0
 760 853 724 866 668 866 c 1
 668 928 l 1
 1028 928 l 1
 1028 868 l 1
EndSplineSet
MinimumDistance: x2,-1 
EndChar
StartChar: V
Encoding: 86 86
OldEncoding: 86
Width: 1017
VWidth: 1000
Flags: W
HStem: -12 21G<500 567> 868 60<18.0157 45.4436 401 426 670.063 696.909 977 995>
DStem: 162 737 381 700 500 -12 563 287 743 739 893 813 563 287 567 -12
Fore
995 868 m 1
 969 868 952 866 944 862 c 0
 926 855 914 847 907 838 c 0
 900 828 896 820 893 813 c 2
 567 -12 l 1
 500 -12 l 1
 162 737 l 1
 151 765 140 788 129 807 c 0
 118 826 109 839 102 846 c 0
 90 857 77 863 63 865 c 0
 50 867 35 868 18 868 c 1
 18 928 l 1
 426 928 l 1
 426 868 l 1
 377 868 345 864 332 856 c 0
 329 855 327 852 327 848 c 0
 326 844 326 840 326 836 c 0
 326 830 330 816 340 794 c 0
 350 771 363 740 381 700 c 2
 563 287 l 1
 743 739 l 2
 749 753 754 767 758 780 c 0
 762 794 765 808 768 823 c 0
 768 853 735 868 670 868 c 1
 670 928 l 1
 995 928 l 1
 995 868 l 1
EndSplineSet
MinimumDistance: x3,-1 
EndChar
StartChar: W
Encoding: 87 87
OldEncoding: 87
Width: 1398
VWidth: 1000
Flags: W
HStem: -12 21G<442 500 901 967> 865 63<369.735 416 463.063 492.473 848 877> 868 60<33 45.25 1047 1054.5>
DStem: 645 653 696 520 520 324 500 -12 696 520 776 809 823 199 967 322
Fore
1364 870 m 1
 1330 864 1306 855 1292 846 c 0
 1279 836 1266 820 1255 797 c 1
 967 -12 l 1
 901 -12 l 1
 883 38 857 109 823 199 c 0
 789 289 747 396 696 520 c 1
 500 -12 l 1
 442 -12 l 1
 176 721 l 1
 156 780 141 814 133 823 c 0
 115 849 82 864 33 868 c 1
 33 928 l 1
 416 928 l 1
 416 866 l 1
 401 866 389 866 382 865 c 0
 374 865 368 864 362 862 c 0
 353 861 342 857 330 852 c 1
 330 841 330 831 331 821 c 0
 331 812 335 799 342 784 c 1
 520 324 l 1
 645 653 l 1
 604 758 l 2
 585 804 570 833 559 844 c 0
 544 859 512 866 463 866 c 1
 463 928 l 1
 877 928 l 1
 877 866 l 1
 808 866 773 856 770 836 c 1
 776 809 l 1
 967 322 l 1
 1120 731 l 2
 1127 750 1132 767 1135 782 c 0
 1137 797 1139 811 1139 823 c 0
 1139 841 1133 853 1122 858 c 1
 1047 868 l 1
 1047 928 l 1
 1364 928 l 1
 1364 870 l 1
EndSplineSet
MinimumDistance: x3,-1 
EndChar
StartChar: X
Encoding: 88 88
OldEncoding: 88
Width: 1107
VWidth: 1000
Flags: W
HStem: 0 59<61 68.3333 596 609.333 1036.33 1047> 0 61<396 424> 865 63<453 535 676.063 710.563 1036 1044>
DStem: 463 459 530 371 203 139 387 195 530 371 653 508 641 201 893 154 760 811 850 748 582 594 653 508
Fore
1047 0 m 1
 596 0 l 1
 596 59 l 1
 636 62 663 67 678 74 c 0
 693 81 700 87 700 92 c 0
 700 103 696 116 686 132 c 0
 677 148 662 171 641 201 c 2
 530 371 l 1
 387 195 l 2
 345 140 324 106 324 92 c 0
 324 72 357 61 424 61 c 1
 424 0 l 1
 61 0 l 1
 61 59 l 1
 83 62 102 65 119 68 c 0
 135 70 147 76 154 84 c 2
 205 139 l 1
 203 139 l 1
 463 459 l 1
 324 664 l 2
 259 760 213 819 184 840 c 0
 176 847 163 852 144 856 c 0
 126 860 103 864 76 868 c 1
 76 928 l 1
 535 928 l 1
 535 866 l 1
 510 866 489 866 472 865 c 0
 455 865 445 864 442 862 c 0
 438 859 434 857 429 854 c 0
 424 851 422 848 422 844 c 0
 422 831 433 809 455 777 c 0
 477 745 506 703 543 651 c 2
 582 594 l 1
 760 811 l 2
 767 821 770 831 770 842 c 0
 770 858 739 866 676 866 c 1
 676 928 l 1
 1044 928 l 1
 1044 866 l 1
 1019 866 995 862 973 853 c 0
 951 844 938 838 934 836 c 0
 928 833 918 823 901 805 c 0
 885 787 868 768 850 748 c 2
 653 508 l 1
 893 154 l 2
 912 124 935 101 961 86 c 0
 986 71 1015 62 1047 59 c 1
 1047 0 l 1
EndSplineSet
MinimumDistance: x44,-1 
EndChar
StartChar: Y
Encoding: 89 89
OldEncoding: 89
Width: 1028
VWidth: 1000
Flags: W
HStem: 0 61<287.063 322.162 716 754> 868 60<29.0157 51.2168 422 453 659.063 691.411> 870 58<991.4 999>
VStem: 424 190<143 412>
Fore
999 870 m 1
 961 865 933 857 913 846 c 0
 889 831 854 789 809 721 c 2
 614 424 l 1
 614 164 l 2
 614 145 615 128 617 113 c 0
 620 98 624 87 631 80 c 0
 639 72 653 67 673 65 c 0
 693 62 720 61 754 61 c 1
 754 0 l 1
 287 0 l 1
 287 61 l 1
 352 61 394 70 412 86 c 0
 420 94 424 126 424 180 c 2
 424 412 l 1
 365 496 318 565 283 616 c 0
 247 668 218 709 197 739 c 0
 175 769 158 791 147 805 c 0
 137 819 127 829 119 838 c 0
 106 850 93 858 79 862 c 0
 65 866 48 868 29 868 c 1
 29 928 l 1
 453 928 l 1
 453 868 l 1
 390 868 358 860 358 844 c 0
 358 837 360 830 364 823 c 0
 367 816 372 808 379 797 c 2
 559 520 l 1
 739 809 l 2
 742 814 745 820 748 825 c 0
 750 831 752 836 752 842 c 0
 752 859 721 868 659 868 c 1
 659 928 l 1
 999 928 l 1
 999 870 l 1
EndSplineSet
MinimumDistance: x3,-1 
EndChar
StartChar: Z
Encoding: 90 90
OldEncoding: 90
Width: 952
VWidth: 1000
Flags: W
HStem: 0 86<303 631> 844 84<342 629>
Fore
895 272 m 1
 856 0 l 1
 55 0 l 1
 55 41 l 1
 629 844 l 1
 362 844 l 2
 283 844 229 827 199 793 c 0
 185 779 171 736 156 664 c 1
 82 664 l 1
 113 928 l 1
 864 928 l 1
 864 887 l 1
 303 86 l 1
 610 86 l 2
 684 86 737 103 768 137 c 0
 775 147 783 163 794 185 c 0
 804 208 814 237 825 272 c 1
 895 272 l 1
EndSplineSet
EndChar
StartChar: bracketleft
Encoding: 91 91
OldEncoding: 91
Width: 350
VWidth: 1000
Flags: W
HStem: -172 70<213 348> 926 69<206 348>
VStem: 47 131<-61 885>
Fore
348 -172 m 1
 47 -172 l 1
 47 995 l 1
 348 995 l 1
 348 926 l 1
 215 926 l 2
 190 926 178 911 178 881 c 2
 178 -47 l 2
 178 -84 193 -102 221 -102 c 2
 348 -102 l 1
 348 -172 l 1
EndSplineSet
MinimumDistance: x0,-1 x7,0 x7,9 x6,3 x6,4 
EndChar
StartChar: backslash
Encoding: 92 92
OldEncoding: 92
Width: 505
VWidth: 1000
Flags: W
DStem: 6 977 113 977 389 -240 498 -240
Fore
498 -240 m 1
 389 -240 l 1
 6 977 l 1
 113 977 l 1
 498 -240 l 1
EndSplineSet
MinimumDistance: x0,-1 
EndChar
StartChar: bracketright
Encoding: 93 93
OldEncoding: 93
Width: 356
VWidth: 1000
Flags: W
HStem: -172 70<2 135> 926 69<2 135>
VStem: 172 131<-71.7879 885>
Fore
303 -172 m 1
 2 -172 l 1
 2 -102 l 1
 133 -102 l 2
 159 -102 172 -88 172 -59 c 2
 172 870 l 2
 172 907 158 926 129 926 c 2
 2 926 l 1
 2 995 l 1
 303 995 l 1
 303 -172 l 1
EndSplineSet
MinimumDistance: x0,-1 x5,8 x5,7 x4,1 x4,2 
EndChar
StartChar: asciicircum
Encoding: 94 94
OldEncoding: 94
Width: 679
VWidth: 1000
Flags: W
DStem: 287 920 340 788 29 397 147 397 340 788 393 920 532 397 651 397
Fore
651 397 m 1
 532 397 l 1
 340 788 l 1
 147 397 l 1
 29 397 l 1
 287 920 l 1
 393 920 l 1
 651 397 l 1
EndSplineSet
MinimumDistance: x0,-1 
EndChar
StartChar: underscore
Encoding: 95 95
OldEncoding: 95
Width: 720
VWidth: 1000
Flags: W
HStem: -115 72<2 719>
Fore
719 -115 m 1
 2 -115 l 1
 2 -43 l 1
 719 -43 l 1
 719 -115 l 1
EndSplineSet
EndChar
StartChar: grave
Encoding: 96 96
OldEncoding: 96
Width: 284
VWidth: 1000
Flags: W
Fore
268 418 m 1
 190 418 l 1
 55 502 l 2
 36 511 25 527 23 549 c 0
 23 576 38 590 68 590 c 0
 83 590 99 582 117 567 c 1
 268 418 l 1
EndSplineSet
EndChar
StartChar: a
Encoding: 97 97
OldEncoding: 97
Width: 710
VWidth: 1000
Flags: MW
HStem: -12 118 641 70<304 334>
VStem: 49 164<156 209> 76 166<528 541> 412 155<185.623 384 458 487>
Fore
412 385 m 1
 279 339 213 280 213 209 c 0
 213 180 222 155 240 133 c 0
 246 126 254 120 261 116 c 0
 269 111 279 109 293 109 c 0
 342 109 379 125 403 158 c 0
 406 162 408 168 410 177 c 0
 411 186 412 193 412 199 c 2
 412 385 l 1
672 70 m 1
 625 16 576 -10 524 -10 c 0
 463 -10 427 18 416 74 c 1
 341 18 276 -10 221 -10 c 0
 171 -10 129 5 97 36 c 0
 65 67 49 106 49 156 c 0
 49 231 83 292 152 340 c 0
 165 348 194 362 237 382 c 0
 280 402 338 427 412 459 c 1
 412 539 l 2
 412 607 381 641 319 641 c 0
 266 641 238 622 233 584 c 0
 233 580 235 571 238 559 c 0
 240 547 242 537 242 530 c 0
 242 524 240 515 238 505 c 0
 235 495 229 484 219 473 c 0
 212 465 202 459 189 455 c 0
 176 451 165 449 156 449 c 0
 132 449 113 455 98 469 c 0
 83 483 76 503 76 530 c 0
 76 586 106 633 168 670 c 0
 191 685 216 695 244 701 c 0
 271 708 300 711 332 711 c 0
 418 711 479 691 514 650 c 0
 550 610 567 546 567 459 c 2
 567 172 l 2
 567 128 575 106 590 106 c 0
 597 106 607 111 620 119 c 0
 632 127 650 141 672 160 c 1
 672 70 l 1
EndSplineSet
MinimumDistance: x32,-1 
EndChar
StartChar: b
Encoding: 98 98
OldEncoding: 98
Width: 821
VWidth: 1000
Flags: W
HStem: -10 80<392 426> 596 127<432 485>
VStem: 145 162<117 506 651 903> 596 172<321 375>
Fore
596 322 m 0
 596 358 594 392 589 422 c 0
 584 452 575 479 563 504 c 0
 533 565 489 596 432 596 c 0
 401 596 373 587 350 569 c 0
 322 547 307 524 307 498 c 2
 307 125 l 2
 307 115 312 107 321 100 c 0
 329 94 340 88 352 83 c 0
 365 78 378 75 391 73 c 0
 405 71 416 70 426 70 c 0
 539 70 596 154 596 322 c 0
768 375 m 0
 768 331 761 288 746 247 c 0
 732 205 711 166 684 129 c 0
 616 36 519 -10 393 -10 c 0
 367 -10 342 -9 318 -6 c 0
 295 -3 271 3 248 14 c 0
 215 29 190 43 172 54 c 0
 154 66 145 81 145 100 c 2
 145 874 l 2
 145 906 144 923 141 926 c 0
 134 933 125 936 113 936 c 2
 49 930 l 1
 49 987 l 1
 72 994 105 1004 146 1017 c 0
 188 1030 233 1044 283 1059 c 1
 307 1051 l 1
 307 651 l 1
 330 673 358 691 391 703 c 0
 424 716 455 723 485 723 c 0
 578 723 650 685 700 610 c 0
 722 576 739 540 751 501 c 0
 762 462 768 420 768 375 c 0
EndSplineSet
MinimumDistance: x11,-1 
EndChar
StartChar: c
Encoding: 99 99
OldEncoding: 99
Width: 688
VWidth: 1000
Flags: W
HStem: -10 137<336 397>
VStem: 45 150<334 391>
Fore
647 242 m 1
 569 74 466 -10 336 -10 c 0
 292 -10 252 -2 215 15 c 0
 178 32 146 60 119 98 c 0
 97 130 79 165 66 204 c 0
 52 243 45 286 45 334 c 0
 45 436 76 524 137 598 c 0
 201 673 285 711 389 711 c 0
 418 711 444 708 469 702 c 0
 494 697 517 687 539 674 c 0
 566 659 587 640 601 616 c 0
 615 593 623 570 623 547 c 0
 623 524 615 504 599 487 c 0
 583 471 563 463 537 463 c 0
 515 463 496 471 480 486 c 0
 465 502 453 522 446 545 c 0
 438 578 429 601 420 614 c 0
 410 628 392 635 365 635 c 0
 313 635 270 608 238 555 c 0
 209 509 195 454 195 391 c 0
 195 317 212 257 248 209 c 0
 287 154 337 127 397 127 c 0
 441 127 479 140 510 166 c 0
 521 174 534 187 548 204 c 0
 562 221 579 244 598 272 c 1
 647 242 l 1
EndSplineSet
MinimumDistance: x19,-1 
EndChar
StartChar: d
Encoding: 100 100
OldEncoding: 100
Width: 784
VWidth: 1000
Flags: W
HStem: -10 108<309 371> 647 76<329.346 362>
VStem: 25 159<337 391> 481 162<173 514 682 901>
Fore
481 514 m 1
 477 556 462 591 436 616 c 0
 425 627 412 635 396 640 c 0
 381 645 365 647 348 647 c 0
 317 647 290 639 269 623 c 0
 248 606 231 585 219 560 c 0
 207 535 198 507 193 477 c 0
 187 447 184 418 184 391 c 0
 184 358 187 325 194 290 c 0
 200 255 210 224 224 196 c 0
 239 168 258 144 282 126 c 0
 305 108 335 98 371 98 c 0
 429 98 466 124 481 174 c 1
 481 514 l 1
741 68 m 1
 508 -12 l 1
 481 2 l 1
 481 49 l 1
 435 10 378 -10 309 -10 c 0
 248 -10 191 8 139 43 c 0
 102 68 74 105 54 157 c 0
 34 208 25 268 25 338 c 0
 25 442 52 529 106 600 c 0
 168 682 248 723 346 723 c 0
 393 723 438 709 481 682 c 1
 481 874 l 2
 481 903 480 919 477 922 c 0
 472 930 461 934 446 934 c 2
 385 928 l 1
 385 987 l 1
 421 998 451 1007 475 1014 c 0
 500 1021 520 1027 537 1032 c 0
 553 1038 567 1042 579 1047 c 0
 612 1059 l 1
 643 1051 l 1
 643 188 l 2
 643 161 646 143 652 134 c 0
 658 125 672 121 694 121 c 2
 741 125 l 1
 741 68 l 1
EndSplineSet
MinimumDistance: x33,-1 
EndChar
StartChar: e
Encoding: 101 101
OldEncoding: 101
Width: 704
VWidth: 1000
Flags: W
HStem: -10 133<336 397> 408 84<193 446> 625 86<329 360>
VStem: 47 137<334 408>
Fore
330 625 m 0
 261 625 216 580 193 492 c 1
 446 492 l 1
 434 580 395 625 330 625 c 0
666 258 m 1
 651 199 621 146 578 98 c 0
 509 26 429 -10 336 -10 c 0
 254 -10 189 14 140 62 c 0
 92 111 61 176 49 258 c 0
 48 268 47 279 47 291 c 0
 47 303 47 317 47 334 c 0
 47 435 72 520 123 590 c 0
 182 670 261 711 360 711 c 0
 448 711 515 684 562 630 c 0
 609 576 633 502 633 408 c 1
 184 408 l 1
 188 218 259 123 397 123 c 0
 472 123 545 177 616 285 c 1
 666 258 l 1
EndSplineSet
MinimumDistance: x14,-1 
EndChar
StartChar: f
Encoding: 102 102
OldEncoding: 102
Width: 618
VWidth: 1000
Flags: W
HStem: 0 57<29 42.6667 412 442> 627 82<31 150 309 483> 979 80<375 426>
VStem: 150 159<143 627 709.25 738.656>
Fore
592 948 m 0
 592 925 585 906 571 891 c 0
 558 876 537 868 508 868 c 0
 496 868 483 872 470 881 c 0
 457 889 445 902 434 920 c 0
 412 959 393 979 375 979 c 0
 330 979 307 940 307 862 c 2
 307 709 l 1
 483 709 l 1
 483 627 l 1
 309 627 l 1
 309 172 l 2
 309 150 310 132 311 117 c 0
 313 102 316 91 322 84 c 0
 335 66 375 57 442 57 c 1
 442 0 l 1
 29 0 l 1
 29 57 l 1
 70 60 97 63 110 67 c 0
 123 70 130 73 133 76 c 0
 144 91 150 123 150 172 c 2
 150 627 l 1
 31 627 l 1
 31 709 l 1
 150 709 l 1
 154 942 246 1059 426 1059 c 0
 445 1059 463 1057 478 1055 c 0
 494 1052 510 1046 526 1036 c 0
 570 1012 592 982 592 948 c 0
EndSplineSet
MinimumDistance: x8,-1 x21,23 x21,22 x10,8 x10,9 
EndChar
StartChar: g
Encoding: 103 103
OldEncoding: 103
Width: 735
VWidth: 1000
Flags: W
HStem: -276 116<302 367> 245 68<322 377> 584 92<584 692>
VStem: 41 135<-121 -78> 96 156<467 535> 457 147<433 471>
Fore
457 434 m 0
 457 477 449 517 434 557 c 0
 414 616 381 645 336 645 c 0
 280 645 252 608 252 535 c 0
 252 387 293 313 375 313 c 0
 429 313 457 354 457 434 c 0
604 -39 m 0
 604 -28 599 -18 589 -10 c 0
 579 -2 566 4 551 8 c 0
 530 15 508 19 483 20 c 0
 459 22 435 23 412 23 c 2
 285 23 l 2
 264 23 246 25 231 29 c 1
 195 -20 176 -56 176 -78 c 0
 176 -132 240 -160 367 -160 c 0
 393 -160 418 -157 442 -152 c 0
 467 -146 492 -139 516 -131 c 0
 575 -111 604 -80 604 -39 c 0
692 584 m 1
 584 584 l 1
 597 547 604 509 604 471 c 0
 604 403 582 348 537 306 c 0
 492 265 434 244 365 244 c 0
 351 244 337 244 323 245 c 0
 308 245 296 247 287 250 c 2
 283 250 l 2
 277 250 272 247 267 242 c 0
 262 236 257 230 250 223 c 0
 231 203 221 188 221 180 c 0
 221 169 253 162 317 158 c 2
 494 147 l 2
 547 145 591 129 627 99 c 0
 662 70 680 31 680 -18 c 0
 680 -61 667 -98 641 -130 c 0
 615 -162 583 -189 544 -211 c 0
 505 -233 464 -249 421 -260 c 0
 378 -271 339 -276 303 -276 c 0
 279 -276 251 -274 221 -269 c 0
 191 -265 163 -256 136 -244 c 0
 110 -231 87 -215 69 -196 c 0
 50 -176 41 -151 41 -121 c 0
 41 -72 81 -16 162 47 c 1
 143 61 128 73 117 85 c 0
 106 97 100 110 100 125 c 0
 100 160 137 211 211 276 c 1
 134 319 96 382 96 467 c 0
 96 504 103 538 116 569 c 0
 129 601 147 628 170 650 c 0
 193 673 221 690 252 702 c 0
 283 715 317 721 354 721 c 0
 373 721 395 718 419 713 c 0
 443 707 469 699 498 688 c 0
 521 680 544 676 567 676 c 2
 692 676 l 1
 692 584 l 1
EndSplineSet
MinimumDistance: x5,-1 
EndChar
StartChar: h
Encoding: 104 104
OldEncoding: 104
Width: 806
VWidth: 1000
Flags: W
HStem: 0 53<49 56.8333 440 448> 608 115<446 500>
VStem: 143 162<143 524 637 920> 539 163<143 481>
Fore
786 0 m 1
 440 0 l 1
 440 53 l 1
 464 56 482 59 495 63 c 0
 508 68 517 72 524 78 c 0
 531 83 535 94 537 111 c 0
 538 127 539 147 539 170 c 2
 539 467 l 2
 539 561 508 608 446 608 c 0
 404 608 357 580 305 524 c 1
 305 170 l 2
 305 147 306 127 308 111 c 0
 310 94 315 83 322 76 c 0
 324 73 332 70 344 67 c 0
 356 63 376 58 403 51 c 1
 403 0 l 1
 49 0 l 1
 49 53 l 1
 96 59 124 70 133 88 c 0
 140 96 143 124 143 170 c 2
 143 920 l 1
 132 926 122 930 111 930 c 2
 51 926 l 1
 51 985 l 1
 281 1059 l 1
 305 1042 l 1
 305 637 l 1
 360 694 425 723 500 723 c 0
 635 723 702 638 702 469 c 2
 702 170 l 2
 702 126 705 99 711 88 c 0
 715 81 724 74 737 68 c 0
 751 61 767 54 786 47 c 1
 786 0 l 1
EndSplineSet
MinimumDistance: x28,-1 
EndChar
StartChar: i
Encoding: 105 105
OldEncoding: 105
Width: 419
VWidth: 1000
Flags: W
HStem: 0 55<27.0626 53.1537> 870 191<202 220>
VStem: 135 156<143 529>
Fore
395 0 m 1
 395 53 l 1
 341 61 311 70 305 78 c 0
 300 85 296 97 294 114 c 0
 292 131 291 149 291 168 c 2
 291 719 l 1
 268 727 l 1
 33 633 l 1
 33 582 l 1
 109 592 l 1
 126 591 135 566 135 518 c 2
 135 168 l 2
 135 124 129 95 116 79 c 0
 103 63 73 55 27 55 c 1
 27 0 l 1
 395 0 l 1
115 967 m 0
 115 939 123 916 140 898 c 0
 157 880 180 870 207 870 c 0
 233 870 254 880 271 898 c 0
 288 916 297 939 297 967 c 0
 297 994 288 1016 271 1034 c 0
 254 1052 233 1061 207 1061 c 0
 180 1061 157 1052 140 1034 c 0
 123 1016 115 994 115 967 c 0
EndSplineSet
MinimumDistance: x4,-1 
EndChar
StartChar: j
Encoding: 106 106
OldEncoding: 106
Width: 475
VWidth: 1000
Flags: W
HStem: 879 190<311.379 341>
VStem: 254 158<-23 539>
Fore
412 725 m 1
 389 733 l 1
 150 639 l 1
 150 586 l 1
 227 596 l 1
 245 595 254 570 254 522 c 2
 254 -45 l 2
 254 -130 252 -179 248 -193 c 0
 244 -206 238 -217 229 -226 c 0
 221 -235 213 -240 205 -240 c 0
 201 -240 193 -236 182 -228 c 0
 171 -221 162 -210 154 -195 c 0
 143 -175 130 -163 117 -157 c 0
 103 -151 89 -147 74 -147 c 0
 71 -147 64 -149 52 -153 c 0
 41 -156 32 -160 27 -166 c 0
 12 -181 4 -199 4 -221 c 0
 4 -248 16 -273 41 -294 c 0
 66 -315 102 -326 150 -326 c 0
 234 -326 299 -298 344 -244 c 0
 389 -189 412 -106 412 4 c 2
 412 725 l 1
233 973 m 0
 233 945 242 923 260 905 c 0
 278 887 300 879 326 879 c 0
 352 879 373 887 391 905 c 0
 409 923 418 945 418 973 c 0
 418 1000 409 1023 391 1041 c 0
 373 1060 352 1069 326 1069 c 0
 300 1069 278 1060 260 1041 c 0
 242 1023 233 1000 233 973 c 0
EndSplineSet
MinimumDistance: x0,-1 
EndChar
StartChar: k
Encoding: 107 107
OldEncoding: 107
Width: 829
VWidth: 1000
Flags: W
HStem: 0 57<49 56.5714 418.25 430> 0 59<461 507 799.5 817> 649 60<440.063 476.401 752 778>
VStem: 156 163<127 330 453 881>
DStem: 487 604 547 545 319 453 424 436
Fore
817 0 m 1
 461 0 l 1
 461 59 l 1
 498 59 l 2
 507 59 512 61 512 66 c 0
 512 67 511 70 508 76 c 2
 319 330 l 1
 319 117 l 2
 319 84 341 66 383 61 c 2
 430 57 l 1
 430 0 l 1
 49 0 l 1
 49 57 l 1
 102 64 130 69 133 72 c 0
 140 79 145 87 150 97 c 0
 154 108 156 122 156 141 c 2
 156 860 l 2
 156 892 154 910 150 915 c 0
 147 920 143 923 139 927 c 0
 135 930 128 932 117 932 c 2
 49 926 l 1
 49 981 l 1
 291 1055 l 1
 319 1047 l 1
 319 453 l 1
 487 604 l 2
 496 612 502 619 507 624 c 0
 512 628 514 633 514 637 c 0
 514 645 489 649 440 649 c 1
 440 709 l 1
 778 709 l 1
 778 647 l 1
 748 647 724 645 706 641 c 0
 687 637 671 631 657 625 c 0
 646 619 631 609 611 595 c 0
 592 581 570 564 547 545 c 2
 424 436 l 1
 641 160 l 2
 666 128 692 104 721 87 c 0
 750 70 782 61 817 59 c 1
 817 0 l 1
EndSplineSet
MinimumDistance: x35,-1 
EndChar
StartChar: l
Encoding: 108 108
OldEncoding: 108
Width: 428
VWidth: 1000
Flags: W
HStem: 0 55<382 399>
VStem: 141 154<128.878 897>
Fore
399 0 m 1
 35 0 l 1
 35 53 l 1
 74 59 102 68 118 81 c 0
 133 94 141 116 141 147 c 2
 141 860 l 2
 141 894 140 914 137 920 c 0
 133 929 123 934 106 934 c 2
 31 928 l 1
 31 987 l 1
 43 990 61 995 86 1002 c 0
 111 1010 137 1018 165 1027 c 0
 193 1036 219 1044 244 1052 c 0
 268 1059 285 1064 295 1067 c 1
 295 145 l 2
 295 85 330 55 399 55 c 1
 399 0 l 1
EndSplineSet
MinimumDistance: x0,-1 x14,0 x14,15 
EndChar
StartChar: m
Encoding: 109 109
OldEncoding: 109
Width: 1280
VWidth: 1000
Flags: W
HStem: 0 55<57.0627 77.046 415 430 461.031 481.192 824 836 864.063 882.861 1224 1231> 602 109<479 532 874 934>
VStem: 162 166<143 530> 563 166<143 481> 963 165<143 465>
Fore
1231 0 m 1
 864 0 l 1
 864 55 l 1
 930 55 963 88 963 154 c 2
 963 455 l 2
 963 504 958 539 950 559 c 0
 937 588 911 602 874 602 c 0
 814 602 766 576 729 524 c 1
 729 154 l 2
 729 122 736 98 751 81 c 0
 765 64 793 55 836 55 c 1
 836 0 l 1
 461 0 l 1
 461 55 l 1
 498 55 524 64 540 81 c 0
 555 98 563 122 563 154 c 2
 563 463 l 2
 563 556 535 602 479 602 c 0
 437 602 400 589 369 563 c 0
 341 543 328 531 328 528 c 2
 328 154 l 2
 328 122 335 98 350 81 c 0
 365 64 392 55 430 55 c 1
 430 0 l 1
 57 0 l 1
 57 55 l 1
 127 55 162 88 162 154 c 2
 162 539 l 2
 162 562 157 578 147 588 c 0
 146 589 142 590 135 590 c 0
 128 590 118 589 105 588 c 0
 93 586 78 584 61 582 c 1
 61 641 l 1
 96 652 125 661 148 668 c 0
 172 674 193 681 209 686 c 0
 225 692 239 696 251 699 c 0
 262 703 274 707 285 711 c 1
 319 711 l 1
 319 614 l 1
 363 642 396 661 417 673 c 0
 438 684 452 692 459 694 c 0
 486 705 511 711 532 711 c 0
 610 711 666 676 700 606 c 1
 773 676 851 711 934 711 c 0
 1064 711 1128 617 1128 430 c 2
 1128 154 l 2
 1128 122 1136 98 1152 81 c 0
 1168 64 1194 55 1231 55 c 1
 1231 0 l 1
EndSplineSet
MinimumDistance: x44,-1 x3,1 x3,2 x26,24 x26,25 
EndChar
StartChar: n
Encoding: 110 110
OldEncoding: 110
Width: 845
VWidth: 1000
Flags: W
HStem: 0 53<66.0078 84.6577 404.125 412> 592 117<444 508>
VStem: 158 159<127 522> 535 161<135 481>
Fore
782 0 m 1
 444 0 l 1
 444 53 l 1
 481 59 504 65 512 72 c 0
 527 83 535 113 535 162 c 2
 535 469 l 2
 535 551 504 592 444 592 c 0
 410 592 368 569 317 522 c 1
 317 117 l 2
 317 83 349 61 412 53 c 1
 412 0 l 1
 66 0 l 1
 66 53 l 1
 75 53 85 54 95 55 c 0
 105 57 115 59 123 63 c 0
 146 74 158 103 158 150 c 2
 158 514 l 2
 158 547 155 569 150 580 c 0
 148 582 144 584 138 585 c 0
 132 585 125 586 117 586 c 0
 111 586 103 584 92 582 c 0
 81 579 71 576 61 573 c 1
 61 641 l 1
 78 645 96 650 117 655 c 0
 137 661 158 667 179 674 c 0
 200 681 220 687 238 693 c 0
 255 699 269 705 279 709 c 1
 313 709 l 1
 313 614 l 1
 327 629 340 642 351 651 c 0
 363 661 373 669 383 676 c 0
 402 688 422 697 442 701 c 0
 463 706 485 709 508 709 c 0
 634 709 696 629 696 471 c 2
 696 137 l 2
 696 121 697 107 697 96 c 0
 698 85 702 77 709 72 c 0
 715 66 740 59 782 51 c 1
 782 0 l 1
EndSplineSet
MinimumDistance: x33,-1 
EndChar
StartChar: o
Encoding: 111 111
OldEncoding: 111
Width: 772
VWidth: 1000
Flags: W
HStem: -10 69<365.567 398> 635 76<365.567 398>
VStem: 45 168<325 375> 553 172<325 375>
Fore
45 350 m 0
 45 301 53 255 70 211 c 0
 86 167 109 129 139 96 c 0
 169 63 205 38 246 18 c 0
 287 -1 332 -10 383 -10 c 0
 433 -10 480 -1 521 18 c 0
 563 38 599 63 629 96 c 0
 659 129 682 167 699 211 c 0
 716 255 725 301 725 350 c 0
 725 399 716 446 699 489 c 0
 682 533 659 571 629 604 c 0
 599 637 563 663 521 682 c 0
 480 701 433 711 383 711 c 0
 332 711 287 701 246 682 c 0
 205 663 169 637 139 604 c 0
 109 571 86 533 70 489 c 0
 53 446 45 399 45 350 c 0
213 348 m 0
 213 388 216 425 223 459 c 0
 230 493 241 523 255 550 c 0
 269 577 287 597 308 612 c 0
 329 627 354 635 383 635 c 0
 413 635 439 627 460 612 c 0
 481 597 498 577 512 550 c 0
 526 523 536 493 543 459 c 0
 550 425 553 388 553 348 c 0
 553 309 550 271 544 237 c 0
 538 202 528 171 514 144 c 0
 500 118 483 97 461 82 c 0
 439 67 413 59 383 59 c 0
 354 59 329 67 308 82 c 0
 287 97 269 118 255 144 c 0
 241 171 230 202 223 237 c 0
 216 271 213 309 213 348 c 0
EndSplineSet
MinimumDistance: x8,-1 
EndChar
StartChar: p
Encoding: 112 112
OldEncoding: 112
Width: 780
VWidth: 1000
Flags: W
HStem: -299 59<37.0314 62.5554> -299 63<385 424> -10 80<420 438> 596 125<424 494>
VStem: 137 160<-172 29 141.068 515> 590 162<335 383>
Fore
297 -152 m 2
 297 29 l 1
 337 3 380 -10 428 -10 c 0
 480 -10 526 1 566 23 c 0
 607 44 640 74 668 111 c 0
 695 147 716 189 730 237 c 0
 744 284 752 332 752 383 c 0
 752 424 746 465 736 505 c 0
 726 545 710 581 689 613 c 0
 668 645 641 671 608 691 c 0
 575 711 537 721 494 721 c 0
 455 721 420 714 387 701 c 0
 354 688 323 668 293 639 c 1
 291 654 290 669 290 683 c 0
 289 697 289 712 289 727 c 1
 248 712 207 697 166 683 c 0
 125 669 83 655 41 641 c 1
 41 588 l 1
 106 592 l 2
 120 592 129 587 133 578 c 0
 136 567 137 547 137 520 c 2
 137 -164 l 2
 137 -191 130 -211 117 -222 c 0
 103 -234 76 -240 37 -240 c 1
 37 -299 l 1
 424 -299 l 1
 424 -236 l 1
 364 -236 328 -231 317 -221 c 0
 304 -212 297 -188 297 -152 c 2
590 336 m 0
 590 265 578 205 555 156 c 0
 529 98 487 70 430 70 c 0
 407 70 379 78 346 94 c 0
 313 111 297 129 297 150 c 2
 297 514 l 1
 302 537 318 557 344 572 c 0
 370 588 397 596 424 596 c 0
 454 596 480 588 501 572 c 0
 522 557 539 536 552 511 c 0
 565 486 574 458 581 427 c 0
 587 396 590 366 590 336 c 0
EndSplineSet
MinimumDistance: x6,-1 
EndChar
StartChar: q
Encoding: 113 113
OldEncoding: 113
Width: 780
VWidth: 1000
Flags: W
HStem: -317 63<356.125 381.834> 645 76<346 380>
VStem: 27 163<333 375> 489 158<-174 68 212 532>
Fore
741 -317 m 1
 741 -260 l 1
 679 -249 647 -226 647 -190 c 2
 647 707 l 1
 631 723 l 1
 610 719 l 1
 537 672 l 1
 505 689 476 702 450 710 c 0
 423 717 397 721 371 721 c 0
 317 721 270 711 227 690 c 0
 185 670 149 642 120 606 c 0
 90 571 68 529 51 482 c 0
 35 435 27 386 27 334 c 0
 27 290 31 247 41 206 c 0
 51 164 66 127 86 95 c 0
 106 63 133 38 166 18 c 0
 199 -1 239 -10 287 -10 c 0
 306 -10 328 -8 354 -2 c 0
 380 3 404 12 426 25 c 0
 437 31 448 39 459 46 c 0
 470 54 480 61 489 68 c 1
 489 -158 l 2
 489 -222 445 -254 356 -254 c 1
 356 -317 l 1
 741 -317 l 1
479 156 m 1
 455 127 414 113 358 113 c 0
 328 113 302 121 281 137 c 0
 259 154 241 174 228 200 c 0
 215 225 206 253 200 285 c 0
 194 316 190 346 190 375 c 0
 190 406 194 438 200 470 c 0
 206 502 215 531 228 557 c 0
 241 583 259 604 282 621 c 0
 304 637 332 645 365 645 c 0
 448 645 489 602 489 516 c 2
 489 213 l 1
 479 156 l 1
EndSplineSet
MinimumDistance: x2,-1 x21,23 x21,22 
EndChar
StartChar: r
Encoding: 114 114
OldEncoding: 114
Width: 587
VWidth: 1000
Flags: W
HStem: 0 55<400 424> 532 179<458 481>
VStem: 143 160<139 483>
Fore
555 614 m 0
 555 587 548 567 534 553 c 0
 519 539 502 532 481 532 c 0
 455 532 433 542 414 561 c 0
 408 567 404 572 401 578 c 0
 399 583 393 586 385 586 c 0
 369 586 351 573 332 549 c 0
 313 524 303 502 303 481 c 2
 303 152 l 2
 303 87 343 55 424 55 c 1
 424 0 l 1
 43 0 l 1
 43 51 l 1
 68 57 88 61 103 66 c 0
 119 70 129 73 133 76 c 0
 136 79 138 86 140 98 c 0
 142 111 143 125 143 141 c 2
 143 510 l 2
 143 556 135 580 119 580 c 2
 47 573 l 1
 47 627 l 1
 92 643 135 658 176 673 c 0
 217 687 251 700 276 711 c 1
 303 711 l 1
 303 616 l 1
 352 679 404 711 459 711 c 0
 523 711 555 679 555 614 c 0
EndSplineSet
MinimumDistance: x9,-1 x8,10 x8,9 
EndChar
StartChar: s
Encoding: 115 115
OldEncoding: 115
Width: 579
VWidth: 1000
Flags: W
HStem: -10 63<272 300> 0 21G<59 104> 643 68<266 285> 680 20G<420 467>
VStem: 59 125<514 561> 381 137<141 193>
Fore
518 193 m 0
 518 127 496 77 453 42 c 0
 409 7 356 -10 293 -10 c 0
 271 -10 240 -6 199 2 c 2
 125 16 l 2
 119 16 113 11 104 0 c 1
 59 0 l 1
 59 260 l 1
 121 260 l 1
 126 226 132 200 137 183 c 0
 143 166 152 144 164 117 c 0
 175 94 191 77 212 68 c 0
 233 58 257 53 283 53 c 0
 348 53 381 83 381 141 c 0
 381 178 360 210 317 236 c 0
 281 260 250 280 226 295 c 0
 202 310 183 323 168 333 c 0
 153 343 142 351 134 357 c 0
 127 364 121 369 117 375 c 0
 100 394 87 414 76 436 c 0
 65 458 59 484 59 514 c 0
 59 544 66 571 78 595 c 0
 90 619 106 639 126 656 c 0
 146 673 169 687 196 696 c 0
 222 706 250 711 279 711 c 0
 303 711 322 709 336 707 c 0
 350 704 358 701 362 698 c 2
 410 680 l 1
 410 680 413 687 420 700 c 1
 467 700 l 1
 475 463 l 1
 416 463 l 1
 391 583 344 643 274 643 c 0
 248 643 227 637 210 624 c 0
 193 611 184 590 184 561 c 0
 184 539 188 522 197 510 c 0
 205 498 218 486 236 475 c 2
 391 381 l 2
 414 367 433 355 447 343 c 0
 462 331 473 320 481 309 c 0
 506 279 518 240 518 193 c 0
EndSplineSet
MinimumDistance: x0,-1 
EndChar
StartChar: t
Encoding: 116 116
OldEncoding: 116
Width: 460
VWidth: 1000
Flags: W
HStem: 621 84<260 403>
VStem: 109 151<191 621>
Fore
438 121 m 1
 422 84 396 53 359 28 c 0
 323 2 287 -10 252 -10 c 0
 156 -10 109 57 109 193 c 2
 109 621 l 1
 37 621 l 1
 23 653 l 1
 35 664 47 675 60 686 c 0
 73 697 85 709 96 721 c 0
 119 745 142 773 165 805 c 0
 187 836 212 874 240 920 c 1
 260 856 l 1
 260 705 l 1
 403 705 l 1
 403 621 l 1
 260 621 l 1
 260 215 l 2
 260 137 278 98 313 98 c 0
 337 98 365 119 399 160 c 1
 438 121 l 1
EndSplineSet
MinimumDistance: x13,-1 x12,14 x12,13 
EndChar
StartChar: u
Encoding: 117 117
OldEncoding: 117
Width: 811
VWidth: 1000
Flags: W
HStem: 637 59<406.031 435.177> 643 53<41.0157 67.7905>
VStem: 131 160<191 577> 514 164<191 577>
Fore
766 55 m 1
 754 53 739 49 721 46 c 0
 703 43 685 38 666 31 c 2
 528 -16 l 1
 522 86 l 1
 492 55 l 2
 468 33 443 17 417 6 c 0
 390 -5 360 -10 328 -10 c 0
 304 -10 282 -7 260 -1 c 0
 238 5 218 14 199 27 c 0
 173 43 155 66 145 96 c 0
 136 126 131 159 131 195 c 2
 131 565 l 2
 131 595 124 616 111 627 c 0
 104 632 95 636 85 639 c 0
 75 642 60 643 41 643 c 1
 41 696 l 1
 291 696 l 1
 291 203 l 2
 291 186 295 170 302 153 c 0
 310 136 321 124 336 117 c 0
 343 114 351 112 360 111 c 0
 370 109 379 109 387 109 c 0
 425 109 464 125 504 158 c 0
 511 165 514 184 514 215 c 2
 514 563 l 2
 514 595 506 615 490 624 c 0
 475 632 446 637 406 637 c 1
 406 696 l 1
 678 696 l 1
 678 176 l 2
 678 149 683 131 694 123 c 0
 705 115 729 111 766 111 c 1
 766 55 l 1
EndSplineSet
MinimumDistance: x29,-1 
EndChar
StartChar: v
Encoding: 118 118
OldEncoding: 118
Width: 747
VWidth: 1000
Flags: W
HStem: 639 57<18.0157 42.6372 483.031 526.987 708.565 724.988> 641 55<327 342>
DStem: 102 594 283 575 348 8 418 238 555 582 659 608 418 238 406 -27
Fore
725 639 m 1
 711 639 698 637 685 632 c 0
 672 627 664 619 659 608 c 2
 406 -27 l 1
 348 8 l 1
 102 594 l 1
 100 598 97 603 93 609 c 0
 90 615 85 620 80 623 c 0
 72 629 63 634 55 636 c 0
 47 638 35 639 18 639 c 1
 18 696 l 1
 342 696 l 1
 342 641 l 1
 327 640 315 638 305 637 c 0
 296 636 287 631 281 625 c 0
 276 621 274 614 274 606 c 0
 274 599 277 589 283 575 c 2
 418 238 l 1
 555 582 l 2
 558 590 559 596 559 600 c 0
 559 611 556 620 549 627 c 0
 543 634 536 637 527 638 c 0
 518 639 504 639 483 639 c 1
 483 696 l 1
 725 696 l 1
 725 639 l 1
EndSplineSet
MinimumDistance: x2,-1 
EndChar
StartChar: w
Encoding: 119 119
OldEncoding: 119
Width: 1107
VWidth: 1000
Flags: W
HStem: 641 55<328.5 340 389.016 407.594 852.031 865.359>
DStem: 92 602 299 510 328 20 408 231 522 477 571 373 408 231 389 -23 889 510 1008 573 776 231 768 -23
Fore
1071 643 m 1
 1045 636 1024 613 1008 573 c 2
 768 -23 l 1
 715 20 l 1
 571 373 l 1
 389 -23 l 1
 328 20 l 1
 92 602 l 2
 83 624 63 637 35 641 c 1
 35 696 l 1
 340 696 l 1
 340 641 l 1
 294 637 270 626 270 608 c 0
 270 595 280 562 299 510 c 1
 408 231 l 1
 522 477 l 1
 477 602 l 2
 473 614 462 624 444 631 c 0
 427 638 408 641 389 641 c 1
 389 696 l 1
 731 696 l 1
 731 643 l 1
 655 625 l 1
 649 618 645 610 645 602 c 0
 645 597 655 566 676 510 c 2
 776 231 l 1
 889 510 l 2
 893 521 897 534 900 549 c 0
 904 564 905 577 905 588 c 0
 905 623 887 641 852 641 c 1
 852 696 l 1
 1071 696 l 1
 1071 643 l 1
EndSplineSet
MinimumDistance: x1,-1 
EndChar
StartChar: x
Encoding: 120 120
OldEncoding: 120
Width: 815
VWidth: 1000
Flags: W
HStem: 0 51<276 303 759 768> 639 57<63 71.25 388 406 430.031 455.46 676 697>
DStem: 324 358 371 272 164 125 270 117 371 272 461 416 473 115 645 135 467 581 578 584 412 496 461 416
Fore
768 0 m 1
 434 0 l 1
 434 51 l 1
 481 59 l 2
 487 61 489 67 489 78 c 0
 489 81 488 85 486 91 c 0
 484 97 480 105 473 115 c 2
 371 272 l 1
 270 117 l 2
 254 92 245 74 244 63 c 0
 242 59 247 56 258 54 c 0
 269 52 284 51 303 51 c 1
 303 0 l 1
 53 0 l 1
 53 51 l 1
 70 54 82 57 91 59 c 0
 100 62 106 65 111 68 c 0
 128 79 146 98 164 125 c 2
 324 358 l 1
 195 559 l 2
 165 604 l 0
 155 619 143 628 129 631 c 2
 63 639 l 1
 63 696 l 1
 406 696 l 1
 406 639 l 1
 363 639 342 634 342 623 c 0
 342 609 365 567 412 496 c 1
 435 531 453 559 467 581 c 0
 481 602 487 616 487 623 c 0
 487 634 468 639 430 639 c 1
 430 696 l 1
 698 696 l 1
 698 639 l 1
 642 639 602 621 578 584 c 2
 461 416 l 1
 645 135 l 2
 660 112 678 93 697 78 c 0
 717 63 741 54 768 51 c 1
 768 0 l 1
EndSplineSet
MinimumDistance: x36,-1 
EndChar
StartChar: y
Encoding: 121 121
OldEncoding: 121
Width: 780
VWidth: 1000
Flags: W
HStem: 651 58<374 395 530.031 554.647 758 768>
DStem: 131 614 319 588 389 39 473 244
Fore
469 -14 m 1
 696 596 l 2
 710 633 734 651 768 651 c 1
 768 709 l 1
 530 709 l 1
 530 651 l 1
 558 651 577 648 588 641 c 0
 596 636 600 628 600 618 c 1
 473 244 l 1
 319 588 l 2
 313 604 309 616 309 625 c 0
 309 642 338 651 395 651 c 1
 395 709 l 1
 55 709 l 1
 55 651 l 1
 98 643 123 631 131 614 c 2
 389 39 l 1
 346 -72 l 2
 322 -137 294 -170 264 -170 c 0
 259 -170 253 -169 246 -166 c 0
 239 -163 232 -160 225 -158 c 0
 214 -152 204 -148 194 -145 c 0
 183 -143 171 -141 158 -141 c 0
 126 -141 103 -151 88 -171 c 0
 73 -191 66 -212 66 -236 c 0
 66 -264 76 -288 97 -306 c 0
 118 -325 151 -334 195 -334 c 0
 297 -334 388 -227 469 -14 c 1
EndSplineSet
MinimumDistance: x8,-1 
EndChar
StartChar: z
Encoding: 122 122
OldEncoding: 122
Width: 718
VWidth: 1000
Flags: W
HStem: 0 80<262 456> 614 82<246 428>
DStem: 428 614 639 651 55 41 262 80
Fore
659 225 m 1
 639 0 l 1
 55 0 l 1
 55 41 l 1
 428 614 l 1
 258 614 l 2
 218 614 192 602 179 578 c 0
 166 553 158 522 156 485 c 1
 86 485 l 1
 94 696 l 1
 639 696 l 1
 639 651 l 1
 262 80 l 1
 428 80 l 2
 484 80 524 91 548 115 c 0
 572 138 588 181 598 244 c 1
 659 225 l 1
EndSplineSet
MinimumDistance: x1,-1 
EndChar
StartChar: braceleft
Encoding: 123 123
OldEncoding: 123
Width: 440
VWidth: 1000
Flags: W
VStem: 162 133<-57 217 519 793>
Fore
412 -248 m 1
 368 -248 331 -245 300 -240 c 0
 269 -234 245 -224 227 -209 c 0
 184 -175 162 -117 162 -35 c 2
 162 207 l 2
 162 251 151 284 129 306 c 0
 107 329 66 349 6 367 c 1
 65 383 105 403 128 426 c 0
 151 449 162 481 162 522 c 2
 162 772 l 2
 162 854 184 911 227 942 c 0
 261 969 323 983 412 983 c 1
 412 934 l 1
 367 923 336 906 319 883 c 0
 303 859 295 825 295 778 c 2
 295 545 l 2
 295 489 287 446 272 416 c 1
 256 393 236 376 211 367 c 1
 245 349 268 327 279 302 c 0
 289 277 295 238 295 186 c 2
 295 -43 l 2
 295 -89 303 -124 321 -146 c 0
 338 -169 368 -187 412 -201 c 1
 412 -248 l 1
EndSplineSet
MinimumDistance: x14,-1 
EndChar
StartChar: bar
Encoding: 124 124
OldEncoding: 124
Width: 137
VWidth: 1000
Flags: W
VStem: 25 71<-240 977>
Fore
96 -240 m 1
 25 -240 l 1
 25 977 l 1
 96 977 l 1
 96 -240 l 1
EndSplineSet
MinimumDistance: x0,-1 
EndChar
StartChar: braceright
Encoding: 125 125
OldEncoding: 125
Width: 385
VWidth: 1000
Flags: W
VStem: 141 129<-57 217 519 793>
Fore
369 348 m 1
 332 337 306 322 292 301 c 0
 278 281 270 249 270 207 c 2
 270 -35 l 2
 270 -117 250 -175 209 -209 c 0
 177 -235 115 -248 23 -248 c 1
 23 -201 l 1
 102 -179 141 -126 141 -43 c 2
 141 186 l 2
 141 244 149 285 164 311 c 2
 162 309 l 1
 174 332 194 351 221 365 c 1
 190 381 169 402 158 429 c 0
 147 456 141 494 141 545 c 2
 141 778 l 2
 141 823 132 858 115 882 c 0
 97 906 66 923 23 934 c 1
 23 983 l 1
 115 983 178 969 211 942 c 0
 251 911 270 853 270 770 c 2
 270 522 l 2
 270 450 303 403 369 383 c 1
 369 348 l 1
EndSplineSet
MinimumDistance: x2,-1 
EndChar
StartChar: asciitilde
Encoding: 126 126
OldEncoding: 126
Width: 753
VWidth: 1000
Flags: W
Fore
711 346 m 1
 666 293 l 1
 635 264 l 2
 605 240 567 227 520 227 c 0
 504 227 483 230 458 237 c 0
 432 243 403 253 369 268 c 0
 309 294 261 307 227 307 c 0
 193 307 156 274 117 207 c 1
 43 297 l 1
 91 378 154 418 233 418 c 0
 269 418 320 403 387 375 c 0
 418 362 445 353 468 347 c 0
 490 341 509 337 522 336 c 0
 554 336 593 369 639 436 c 1
 711 346 l 1
EndSplineSet
EndChar
StartChar: uniF700
Encoding: 128 63232
OldEncoding: 63232
Width: 735
VWidth: 1000
Flags: W
HStem: 0 21G<369 518> 207 61<201 218> 403 62<210 233> 618 93<467 489> 668 120<248 270> 758 20G<555 633>
VStem: 111 51<320.237 339> 369 149<0.0625166 53.6662>
Fore
518 403 m 2
 518 440 508 473 487 503 c 0
 467 532 439 557 403 578 c 0
 376 594 345 606 311 612 c 0
 277 619 240 623 201 623 c 2
 156 623 l 1
 177 653 214 668 264 668 c 0
 270 668 279 666 291 662 c 0
 303 657 318 653 336 647 c 0
 359 640 383 634 409 628 c 0
 434 622 453 618 467 618 c 0
 549 618 604 672 633 778 c 1
 555 778 l 1
 545 759 536 743 526 730 c 0
 517 717 504 711 489 711 c 0
 483 711 472 715 458 723 c 0
 443 731 429 739 414 748 c 2
 383 764 l 2
 364 775 345 782 326 784 c 0
 307 787 287 788 268 788 c 0
 240 788 212 782 186 769 c 0
 160 756 138 739 118 717 c 0
 98 695 81 669 68 640 c 0
 54 611 45 580 41 547 c 1
 138 547 212 539 264 524 c 0
 298 513 324 498 340 477 c 0
 356 457 366 432 369 403 c 1
 335 444 289 465 233 465 c 0
 191 465 160 453 140 428 c 0
 120 403 111 372 111 334 c 0
 111 305 120 277 139 249 c 0
 158 221 182 207 211 207 c 0
 238 207 261 217 281 238 c 0
 300 258 311 283 313 311 c 1
 331 277 345 235 354 184 c 0
 364 134 369 72 369 0 c 1
 518 0 l 1
 518 403 l 2
162 336 m 0
 162 355 166 371 175 384 c 0
 184 397 196 403 211 403 c 0
 226 403 238 397 248 384 c 0
 257 371 262 355 262 336 c 0
 262 317 257 301 248 288 c 0
 238 275 226 268 211 268 c 0
 196 268 184 275 175 288 c 0
 166 301 162 317 162 336 c 0
EndSplineSet
MinimumDistance: x0,-1 
EndChar
StartChar: uniF701
Encoding: 129 63233
OldEncoding: 63233
Width: 0
VWidth: 1000
Flags: W
HStem: 911 81<-659 -588> 1042 99<-596 -578>
Fore
-494 977 m 0
 -474 971 -456 966 -439 961 c 0
 -422 955 -406 949 -391 942 c 1
 -412 967 -439 990 -473 1011 c 0
 -507 1032 -543 1042 -582 1042 c 0
 -601 1042 -622 1040 -644 1035 c 0
 -667 1030 -678 1020 -678 1004 c 0
 -678 997 -672 993 -659 992 c 0
 -647 992 -635 991 -623 991 c 0
 -595 991 -572 990 -554 987 c 0
 -536 984 -515 981 -494 977 c 0
-307 821 m 1
 -329 836 -355 850 -386 861 c 0
 -417 873 -448 883 -479 891 c 0
 -500 896 -522 901 -546 905 c 0
 -570 909 -593 911 -616 911 c 0
 -627 911 -639 911 -651 911 c 0
 -665 911 -677 911 -688 909 c 0
 -713 909 -733 911 -749 913 c 0
 -764 916 -778 922 -788 932 c 0
 -797 937 -804 945 -810 955 c 0
 -816 966 -819 976 -819 985 c 0
 -819 1008 -809 1032 -790 1057 c 0
 -770 1081 -750 1098 -731 1108 c 0
 -692 1130 -644 1141 -590 1141 c 0
 -556 1141 -520 1133 -482 1117 c 0
 -445 1101 -411 1080 -381 1053 c 0
 -351 1025 -326 993 -306 955 c 0
 -286 918 -276 877 -276 834 c 1
 -307 821 l 1
EndSplineSet
EndChar
StartChar: uniF702
Encoding: 130 63234
OldEncoding: 63234
Width: 0
VWidth: 1000
Flags: W
HStem: 928 83<-661 -588> 1063 98<-596 -578>
VStem: -418 113<1104 1227>
Fore
-305 1227 m 1
 -418 1227 l 1
 -418 1104 l 1
 -445 1122 -473 1136 -502 1146 c 0
 -530 1156 -560 1161 -590 1161 c 0
 -644 1161 -692 1150 -731 1128 c 0
 -750 1118 -770 1100 -790 1075 c 0
 -809 1051 -819 1027 -819 1004 c 0
 -819 994 -816 984 -810 973 c 0
 -804 962 -797 954 -788 948 c 0
 -778 939 -764 933 -749 930 c 0
 -733 927 -713 926 -688 926 c 0
 -677 927 -665 928 -651 928 c 0
 -639 928 -627 928 -616 928 c 0
 -593 928 -570 926 -546 922 c 0
 -522 918 -500 913 -479 907 c 0
 -448 898 -414 885 -378 870 c 0
 -342 855 -308 837 -276 815 c 1
 -276 849 -279 879 -283 904 c 0
 -287 929 -294 952 -305 973 c 1
 -305 1227 l 1
-494 995 m 0
 -515 999 -536 1003 -554 1006 c 0
 -572 1008 -595 1010 -623 1010 c 0
 -635 1010 -647 1010 -659 1011 c 0
 -672 1011 -678 1015 -678 1022 c 0
 -678 1038 -667 1049 -644 1055 c 0
 -622 1060 -601 1063 -582 1063 c 0
 -543 1063 -507 1052 -473 1030 c 0
 -439 1008 -412 984 -391 958 c 1
 -406 967 -422 973 -439 979 c 0
 -456 984 -474 990 -494 995 c 0
EndSplineSet
MinimumDistance: x0,-1 
EndChar
StartChar: uniF703
Encoding: 131 63235
OldEncoding: 63235
Width: 0
VWidth: 1000
Flags: W
HStem: 928 83<-661 -588> 1063 98<-596 -578> 1147 80<-404 -391>
VStem: -362 86<1096.8 1109>
Fore
-276 848 m 1
 -276 909 -293 963 -326 1010 c 1
 -293 1034 -276 1066 -276 1106 c 0
 -276 1139 -289 1167 -313 1191 c 0
 -338 1215 -367 1227 -399 1227 c 0
 -425 1227 -449 1220 -470 1205 c 0
 -491 1191 -507 1172 -516 1149 c 1
 -541 1157 -565 1161 -590 1161 c 0
 -644 1161 -692 1150 -731 1128 c 0
 -750 1118 -770 1100 -790 1075 c 0
 -809 1051 -819 1027 -819 1004 c 0
 -819 994 -816 984 -810 973 c 0
 -804 962 -797 954 -788 948 c 0
 -778 939 -764 933 -749 930 c 0
 -733 927 -713 926 -688 926 c 0
 -677 927 -665 928 -651 928 c 0
 -639 928 -627 928 -616 928 c 0
 -593 928 -570 926 -546 922 c 0
 -522 918 -500 913 -479 907 c 0
 -448 898 -417 887 -386 876 c 0
 -355 864 -329 851 -307 836 c 1
 -276 848 l 1
-494 995 m 0
 -515 999 -536 1003 -554 1006 c 0
 -572 1008 -595 1010 -623 1010 c 0
 -635 1010 -647 1010 -659 1011 c 0
 -672 1011 -678 1015 -678 1022 c 0
 -678 1038 -667 1049 -644 1055 c 0
 -622 1060 -601 1063 -582 1063 c 0
 -543 1063 -507 1052 -473 1030 c 0
 -439 1008 -412 984 -391 958 c 1
 -406 967 -422 973 -439 979 c 0
 -456 984 -474 990 -494 995 c 0
-438 1106 m 0
 -438 1117 -435 1126 -427 1135 c 0
 -419 1143 -410 1147 -399 1147 c 0
 -388 1147 -380 1143 -373 1135 c 0
 -366 1126 -362 1117 -362 1106 c 0
 -362 1095 -366 1086 -373 1078 c 0
 -380 1071 -388 1067 -399 1067 c 0
 -410 1067 -419 1071 -427 1078 c 0
 -435 1086 -438 1095 -438 1106 c 0
EndSplineSet
MinimumDistance: x0,-1 
EndChar
StartChar: uniF704
Encoding: 132 63236
OldEncoding: 63236
Width: 0
VWidth: 1000
Flags: W
HStem: 927 84<-669 -588>
VStem: -395 90<1085 1227>
Fore
-590 1161 m 2
 -617 1164 -643 1162 -667 1155 c 0
 -691 1148 -712 1139 -731 1128 c 0
 -750 1118 -770 1100 -790 1075 c 0
 -809 1051 -819 1027 -819 1004 c 0
 -819 994 -816 984 -810 973 c 0
 -804 962 -797 954 -788 948 c 0
 -776 940 -763 934 -748 931 c 0
 -733 927 -713 926 -688 926 c 0
 -677 926 -665 926 -652 927 c 0
 -639 927 -627 928 -616 928 c 0
 -593 928 -570 926 -546 922 c 0
 -522 918 -500 913 -479 907 c 0
 -448 898 -414 885 -378 870 c 0
 -342 855 -308 837 -276 815 c 1
 -276 849 -279 879 -283 904 c 0
 -287 929 -294 952 -305 973 c 1
 -305 1227 l 1
 -395 1227 l 1
 -395 1085 l 1
 -420 1104 l 2
 -423 1107 -428 1111 -436 1116 c 1
 -436 1227 l 1
 -526 1227 l 1
 -526 1153 l 1
 -557 1159 l 1
 -590 1161 l 2
-494 995 m 0
 -515 1001 -536 1005 -554 1007 c 0
 -572 1009 -595 1010 -623 1010 c 0
 -635 1010 -647 1010 -659 1011 c 0
 -672 1011 -678 1015 -678 1022 c 0
 -678 1038 -667 1049 -644 1055 c 0
 -622 1060 -601 1063 -582 1063 c 0
 -543 1063 -507 1052 -473 1030 c 0
 -439 1008 -412 984 -391 958 c 1
 -406 967 -422 973 -439 979 c 0
 -456 984 -474 990 -494 995 c 0
EndSplineSet
MinimumDistance: x16,-1 
EndChar
StartChar: ellipsis
Encoding: 133 8230
OldEncoding: 8230
Width: 1087
VWidth: 1000
Flags: W
VStem: 145 191<51 69> 442 191<62 68> 741 191<62 66>
Fore
633 66 m 0
 633 22 602 -4 541 -12 c 1
 481 -12 448 13 442 63 c 1
 442 118 474 145 539 145 c 0
 567 145 591 137 608 121 c 0
 625 107 633 89 633 66 c 0
932 66 m 0
 932 22 900 -4 838 -12 c 1
 779 -12 747 13 741 63 c 1
 741 118 773 145 836 145 c 0
 863 145 887 137 907 121 c 0
 922 107 930 89 932 66 c 0
336 66 m 0
 336 14 304 -12 240 -12 c 0
 177 -12 145 14 145 66 c 0
 145 119 177 145 240 145 c 0
 304 145 336 119 336 66 c 0
EndSplineSet
MinimumDistance: x5,-1 
EndChar
StartChar: uniF705
Encoding: 134 63237
OldEncoding: 63237
Width: 0
VWidth: 1000
Flags: W
Fore
-319 1188 m 1
 -326 1059 l 1
 -342 907 l 1
 -343 899 -349 892 -358 886 c 0
 -368 880 -376 877 -383 877 c 0
 -393 877 -401 880 -410 886 c 0
 -418 892 -423 899 -424 907 c 1
 -438 1061 l 1
 -442 1188 l 1
 -319 1188 l 1
EndSplineSet
EndChar
StartChar: uniF706
Encoding: 135 63238
OldEncoding: 63238
Width: 0
VWidth: 1000
Flags: W
HStem: 858 66<-711 -694.5> 1130 52<-608 -598>
VStem: -702 61<1050.27 1083> -569 61<1050.27 1083> -403 127<1161 1182>
Fore
-276 1182 m 1
 -403 1182 l 1
 -403 1101 -419 1041 -451 1001 c 1
 -472 967 -505 946 -549 938 c 1
 -522 972 -508 1016 -508 1071 c 0
 -508 1100 -517 1125 -537 1148 c 0
 -556 1170 -579 1182 -606 1182 c 0
 -635 1182 -658 1170 -676 1146 c 0
 -694 1122 -702 1096 -702 1069 c 0
 -702 1004 -679 965 -631 954 c 1
 -651 937 -678 926 -711 924 c 1
 -711 858 l 1
 -592 858 l 2
 -550 858 -512 865 -478 879 c 0
 -445 892 -413 911 -383 934 c 0
 -312 991 -276 1074 -276 1182 c 1
-641 1067 m 0
 -641 1085 -638 1100 -631 1112 c 0
 -624 1124 -615 1130 -604 1130 c 0
 -593 1130 -585 1124 -579 1112 c 0
 -572 1100 -569 1085 -569 1067 c 0
 -569 1049 -572 1034 -579 1022 c 0
 -585 1010 -593 1004 -604 1004 c 0
 -615 1004 -624 1010 -631 1022 c 0
 -638 1034 -641 1049 -641 1067 c 0
EndSplineSet
MinimumDistance: x0,-1 
EndChar
StartChar: uniF707
Encoding: 136 63239
OldEncoding: 63239
Width: 0
VWidth: 1000
Flags: W
HStem: 848 51<-706 -698> 1051 73<-650.969 -640.411 -514 -506>
VStem: -801 62<943 961> -668 62<939 961> -602 63<973.063 993.875>
Fore
-268 1128 m 1
 -391 1128 l 1
 -387 1075 l 1
 -387 1016 l 1
 -394 1088 -436 1124 -512 1124 c 0
 -524 1124 -536 1121 -548 1115 c 0
 -559 1109 -569 1101 -578 1092 c 1
 -599 1113 -624 1124 -651 1124 c 0
 -687 1124 -715 1116 -735 1099 c 0
 -756 1082 -771 1063 -782 1042 c 0
 -789 1029 -794 1015 -797 1001 c 0
 -799 988 -801 973 -801 958 c 0
 -801 931 -791 906 -772 883 c 0
 -753 859 -730 848 -702 848 c 0
 -667 848 -642 859 -628 882 c 0
 -613 904 -606 926 -606 948 c 0
 -606 977 -610 999 -618 1016 c 0
 -627 1032 -638 1044 -651 1051 c 1
 -618 1051 -602 1025 -602 973 c 1
 -539 973 l 1
 -539 1025 -528 1051 -508 1051 c 0
 -485 1051 -473 1033 -473 997 c 0
 -473 978 -481 960 -498 943 c 0
 -514 926 -533 915 -555 909 c 1
 -555 844 l 1
 -364 844 -268 939 -268 1128 c 1
-739 948 m 0
 -739 963 -736 976 -728 985 c 0
 -721 995 -711 999 -700 999 c 0
 -689 999 -681 995 -676 985 c 0
 -670 976 -668 963 -668 948 c 0
 -668 933 -670 921 -676 912 c 0
 -681 904 -689 899 -700 899 c 0
 -711 899 -721 904 -728 912 c 0
 -736 921 -739 933 -739 948 c 0
EndSplineSet
MinimumDistance: x19,-1 
EndChar
StartChar: uniF708
Encoding: 137 63240
OldEncoding: 63240
Width: 0
VWidth: 1000
Flags: W
HStem: 975 92<-639 -530 -399 -293>
Fore
-537 1182 m 1
 -530 1067 l 1
 -639 1067 l 1
 -639 975 l 1
 -528 975 l 1
 -524 858 l 1
 -410 858 l 1
 -403 975 l 1
 -293 975 l 1
 -293 1067 l 1
 -399 1067 l 1
 -395 1182 l 1
 -537 1182 l 1
EndSplineSet
EndChar
StartChar: uniF709
Encoding: 138 63241
OldEncoding: 63241
Width: 0
VWidth: 1000
Flags: W
HStem: 834 55<-459 -443>
VStem: -588 101<952 969> -412 66<945 969> -328 113<1201 1221>
Fore
-315 1112 m 0
 -279 1127 -253 1143 -238 1160 c 0
 -223 1177 -215 1197 -215 1221 c 0
 -215 1227 -215 1234 -215 1241 c 0
 -215 1248 -216 1257 -219 1270 c 1
 -336 1243 l 1
 -333 1236 -331 1229 -330 1223 c 0
 -328 1216 -328 1209 -328 1202 c 0
 -328 1191 -337 1181 -354 1172 c 0
 -372 1164 -386 1158 -395 1155 c 0
 -457 1129 -504 1103 -538 1077 c 0
 -571 1051 -588 1014 -588 967 c 0
 -588 930 -575 898 -551 872 c 0
 -526 847 -495 834 -457 834 c 0
 -423 834 -396 846 -376 870 c 0
 -356 895 -346 926 -346 965 c 0
 -346 1019 -362 1056 -393 1075 c 1
 -382 1082 -370 1089 -356 1095 c 0
 -343 1101 -329 1107 -315 1112 c 0
-487 954 m 0
 -487 973 -484 990 -478 1004 c 0
 -472 1017 -463 1024 -451 1024 c 0
 -437 1024 -427 1017 -421 1004 c 0
 -415 990 -412 973 -412 954 c 0
 -412 935 -415 920 -422 907 c 0
 -429 895 -438 889 -451 889 c 0
 -463 889 -472 895 -478 907 c 0
 -484 920 -487 935 -487 954 c 0
EndSplineSet
MinimumDistance: x2,-1 
EndChar
StartChar: uniF70A
Encoding: 139 63242
OldEncoding: 63242
Width: 0
VWidth: 1000
Flags: W
Fore
-164 1167 m 1
 -170 1038 l 1
 -186 887 l 1
 -189 879 -195 871 -204 865 c 0
 -213 859 -221 856 -227 856 c 0
 -237 856 -246 859 -254 865 c 0
 -262 871 -267 879 -268 887 c 1
 -283 1040 l 1
 -289 1167 l 1
 -164 1167 l 1
EndSplineSet
EndChar
StartChar: uniF70B
Encoding: 140 63243
OldEncoding: 63243
Width: 0
VWidth: 1000
Flags: W
HStem: 858 66<-510 -493.5> 1130 52<-408 -397>
VStem: -502 62<1050.27 1083> -369 62<1049 1083> -203 127<1161 1182>
Fore
-76 1182 m 1
 -203 1182 l 1
 -203 1101 -218 1041 -250 1001 c 1
 -272 967 -304 946 -348 938 c 1
 -321 972 -307 1016 -307 1071 c 0
 -307 1100 -317 1125 -336 1148 c 0
 -355 1170 -378 1182 -406 1182 c 0
 -434 1182 -457 1170 -475 1146 c 0
 -493 1122 -502 1096 -502 1069 c 0
 -502 1004 -478 965 -430 954 c 1
 -451 937 -477 926 -510 924 c 1
 -510 858 l 1
 -391 858 l 2
 -349 858 -311 865 -278 879 c 0
 -244 892 -212 911 -182 934 c 0
 -111 991 -76 1074 -76 1182 c 1
-440 1067 m 0
 -440 1085 -437 1100 -430 1112 c 0
 -423 1124 -414 1130 -403 1130 c 0
 -393 1130 -384 1124 -378 1112 c 0
 -372 1100 -369 1085 -369 1067 c 0
 -369 1049 -372 1034 -378 1022 c 0
 -384 1010 -393 1004 -403 1004 c 0
 -414 1004 -423 1010 -430 1022 c 0
 -437 1034 -440 1049 -440 1067 c 0
EndSplineSet
MinimumDistance: x0,-1 
EndChar
StartChar: uniF70C
Encoding: 141 63244
OldEncoding: 63244
Width: 0
VWidth: 1000
Flags: W
HStem: 848 51<-497 -489> 1051 73<-441.969 -431.697 -305 -297>
VStem: -592 62<943 961> -459 62<939 961> -393 63<973.063 993.356>
Fore
-59 1128 m 1
 -182 1128 l 1
 -178 1075 l 1
 -178 1016 l 1
 -185 1088 -227 1124 -303 1124 c 0
 -315 1124 -327 1121 -339 1115 c 0
 -351 1109 -360 1101 -369 1092 c 1
 -390 1113 -415 1124 -442 1124 c 0
 -478 1124 -506 1116 -526 1099 c 0
 -547 1082 -563 1063 -573 1042 c 0
 -580 1029 -585 1015 -588 1001 c 0
 -591 988 -592 973 -592 958 c 0
 -592 931 -582 906 -563 883 c 0
 -544 859 -521 848 -494 848 c 0
 -458 848 -433 859 -419 882 c 0
 -404 904 -397 926 -397 948 c 0
 -397 977 -401 999 -410 1016 c 0
 -418 1032 -429 1044 -442 1051 c 1
 -410 1051 -393 1025 -393 973 c 1
 -330 973 l 1
 -330 1025 -319 1051 -299 1051 c 0
 -276 1051 -264 1033 -264 997 c 0
 -264 978 -272 960 -289 943 c 0
 -305 926 -324 915 -346 909 c 1
 -346 844 l 1
 -155 844 -59 939 -59 1128 c 1
-530 948 m 0
 -530 963 -527 976 -519 985 c 0
 -512 995 -502 999 -492 999 c 0
 -481 999 -472 995 -467 985 c 0
 -461 976 -459 963 -459 948 c 0
 -459 933 -461 921 -467 912 c 0
 -472 904 -481 899 -492 899 c 0
 -502 899 -512 904 -519 912 c 0
 -527 921 -530 933 -530 948 c 0
EndSplineSet
MinimumDistance: x19,-1 
EndChar
StartChar: uniF70D
Encoding: 142 63245
OldEncoding: 63245
Width: 0
VWidth: 1000
Flags: W
HStem: 942 21G<-336 -219> 1057 92<-451 -342 -211 -104>
Fore
-348 1266 m 1
 -342 1149 l 1
 -451 1149 l 1
 -451 1057 l 1
 -338 1057 l 1
 -336 942 l 1
 -219 942 l 1
 -215 1057 l 1
 -104 1057 l 1
 -104 1149 l 1
 -211 1149 l 1
 -207 1266 l 1
 -348 1266 l 1
EndSplineSet
EndChar
StartChar: uniF70E
Encoding: 143 63246
OldEncoding: 63246
Width: 0
VWidth: 1000
Flags: W
HStem: 834 55<-402 -385>
VStem: -530 98<952 969> -356 65<945 969> -272 112<1200 1221>
Fore
-260 1112 m 0
 -223 1127 -197 1143 -182 1160 c 0
 -167 1177 -160 1197 -160 1221 c 0
 -160 1226 -160 1232 -160 1239 c 0
 -160 1247 -161 1257 -164 1270 c 1
 -281 1243 l 1
 -278 1236 -276 1229 -274 1222 c 0
 -273 1214 -272 1207 -272 1200 c 0
 -272 1189 -281 1180 -299 1171 c 0
 -317 1163 -330 1157 -338 1153 c 0
 -401 1128 -449 1103 -481 1077 c 0
 -514 1051 -530 1014 -530 967 c 0
 -530 930 -518 898 -494 872 c 0
 -469 847 -438 834 -401 834 c 0
 -367 834 -340 846 -321 870 c 0
 -301 895 -291 926 -291 965 c 0
 -291 1018 -306 1055 -336 1075 c 1
 -325 1082 -313 1089 -300 1095 c 0
 -287 1101 -274 1107 -260 1112 c 0
-432 954 m 0
 -432 973 -429 990 -422 1004 c 0
 -415 1017 -406 1024 -393 1024 c 0
 -380 1024 -370 1017 -365 1004 c 0
 -359 990 -356 973 -356 954 c 0
 -356 935 -360 920 -367 907 c 0
 -373 895 -382 889 -393 889 c 0
 -406 889 -415 895 -422 907 c 0
 -429 920 -432 935 -432 954 c 0
EndSplineSet
MinimumDistance: x2,-1 
EndChar
StartChar: uniF70F
Encoding: 144 63247
OldEncoding: 63247
Width: 1087
VWidth: 1000
Flags: W
HStem: 0 72<693 782> 199 51<292.243 304> 690 98<344 382> 756 20G<836 985>
VStem: 111 149<117 141 236 405> 344 62<99 139> 545 149<72 533> 836 149<115 776>
Fore
985 125 m 2
 985 776 l 1
 836 776 l 1
 836 125 l 2
 836 107 830 94 819 85 c 0
 808 76 795 72 780 72 c 2
 694 72 l 1
 694 520 l 2
 694 699 587 788 373 788 c 0
 341 788 311 785 281 777 c 0
 251 770 221 756 193 737 c 1
 126 700 82 646 61 573 c 1
 124 573 172 567 205 555 c 1
 142 524 111 471 111 397 c 2
 111 139 l 2
 111 91 125 54 153 28 c 0
 181 1 218 -12 264 -12 c 0
 309 -12 344 -1 369 20 c 0
 393 42 406 74 406 117 c 0
 406 160 395 194 374 216 c 0
 353 239 328 250 301 250 c 0
 285 250 271 245 260 236 c 1
 260 422 l 2
 260 477 291 512 352 528 c 1
 304 588 253 625 197 637 c 1
 243 672 302 690 373 690 c 0
 421 690 461 674 495 643 c 0
 528 612 545 571 545 520 c 2
 545 0 l 1
 874 0 l 2
 910 0 937 10 956 31 c 0
 976 51 985 83 985 125 c 2
260 119 m 0
 260 142 263 161 269 176 c 0
 275 191 286 199 301 199 c 0
 316 199 327 191 334 176 c 0
 341 161 344 142 344 119 c 0
 344 96 341 76 334 61 c 0
 327 46 316 39 301 39 c 0
 286 39 275 46 269 61 c 0
 263 76 260 96 260 119 c 0
EndSplineSet
MinimumDistance: x0,-1 
EndChar
StartChar: quoteleft
Encoding: 145 8216
OldEncoding: 8216
Width: 333
VWidth: 1000
Flags: W
Fore
147 567 m 0
 156 563 167 561 182 561 c 0
 205 561 226 569 243 586 c 0
 260 602 268 623 268 647 c 0
 268 670 260 690 243 706 c 0
 226 721 205 729 182 729 c 0
 175 729 170 729 165 728 c 0
 150 725 l 1
 150 735 l 2
 150 756 157 776 171 795 c 0
 185 814 201 829 219 842 c 0
 227 849 234 853 239 855 c 0
 243 857 246 858 246 858 c 1
 227 909 l 1
 227 909 219 905 203 897 c 0
 186 889 168 876 148 859 c 0
 129 842 111 821 94 795 c 0
 78 769 70 737 70 700 c 0
 70 666 77 638 93 615 c 0
 109 593 127 577 147 567 c 0
EndSplineSet
EndChar
StartChar: quoteright
Encoding: 146 8217
OldEncoding: 8217
Width: 333
VWidth: 1000
Flags: W
Fore
190 903 m 0
 182 907 171 909 156 909 c 0
 132 909 112 901 95 885 c 0
 78 868 70 848 70 823 c 0
 70 800 78 781 95 765 c 0
 112 749 132 741 156 741 c 0
 162 741 168 742 173 742 c 0
 188 745 l 1
 188 735 l 2
 188 715 181 695 167 676 c 0
 153 657 137 641 119 629 c 0
 111 622 104 617 99 615 c 0
 95 613 92 612 92 612 c 1
 111 561 l 1
 111 561 119 565 135 573 c 0
 152 582 170 594 189 611 c 0
 209 628 227 650 244 676 c 0
 260 702 268 733 268 770 c 0
 268 804 260 833 245 855 c 0
 229 878 211 894 190 903 c 0
EndSplineSet
EndChar
StartChar: quotedblleft
Encoding: 147 8220
OldEncoding: 8220
Width: 677
VWidth: 1000
Flags: W
Fore
162 567 m 0
 166 565 171 563 178 562 c 0
 185 561 192 561 199 561 c 0
 225 561 247 570 265 587 c 0
 284 604 293 626 293 653 c 0
 293 678 284 699 265 716 c 0
 247 733 225 741 199 741 c 0
 189 741 177 740 164 737 c 1
 164 750 l 2
 164 771 172 793 187 813 c 0
 203 834 221 851 240 864 c 0
 248 871 255 876 260 878 c 0
 266 880 268 881 268 881 c 1
 248 936 l 1
 248 936 239 931 221 923 c 0
 203 914 184 900 163 882 c 0
 142 863 122 840 104 812 c 0
 87 784 78 750 78 711 c 0
 78 675 86 645 102 621 c 0
 119 596 139 578 162 567 c 0
436 567 m 0
 440 565 446 563 453 562 c 0
 459 561 466 561 473 561 c 0
 499 561 521 570 540 587 c 0
 558 604 567 626 567 653 c 0
 567 678 558 699 540 716 c 0
 521 733 499 741 473 741 c 0
 464 741 452 740 438 737 c 1
 438 750 l 2
 438 771 446 793 462 813 c 0
 478 834 495 851 514 864 c 0
 522 871 529 876 535 878 c 0
 540 880 543 881 543 881 c 1
 522 936 l 1
 522 936 513 931 496 923 c 0
 478 914 458 900 437 882 c 0
 416 863 397 840 379 812 c 0
 361 784 352 750 352 711 c 0
 352 675 360 645 377 621 c 0
 393 596 413 578 436 567 c 0
EndSplineSet
EndChar
StartChar: quotedblright
Encoding: 148 8221
OldEncoding: 8221
Width: 677
VWidth: 1000
Flags: W
Fore
483 913 m 0
 479 916 474 918 467 919 c 0
 460 919 453 920 446 920 c 0
 421 920 398 911 380 894 c 0
 361 877 352 855 352 827 c 0
 352 803 361 782 380 765 c 0
 398 748 421 739 446 739 c 0
 456 739 468 741 481 743 c 1
 481 731 l 2
 481 709 473 688 458 668 c 0
 442 647 425 630 406 616 c 0
 397 610 390 605 385 603 c 0
 380 601 377 600 377 600 c 1
 397 545 l 1
 397 545 406 549 424 558 c 0
 442 567 461 581 482 599 c 0
 503 617 523 641 541 669 c 0
 558 697 567 730 567 770 c 0
 567 806 559 836 543 860 c 0
 526 885 507 902 483 913 c 0
209 913 m 0
 205 916 199 918 193 919 c 0
 186 919 179 920 172 920 c 0
 146 920 124 911 105 894 c 0
 87 877 78 855 78 827 c 0
 78 803 87 782 105 765 c 0
 124 748 146 739 172 739 c 0
 182 739 193 741 207 743 c 1
 207 731 l 2
 207 709 199 688 183 668 c 0
 168 647 150 630 131 616 c 0
 123 610 116 605 111 603 c 0
 105 601 102 600 102 600 c 1
 123 545 l 1
 123 545 132 549 150 558 c 0
 167 567 187 581 208 599 c 0
 229 617 248 641 266 669 c 0
 284 697 293 730 293 770 c 0
 293 806 285 836 268 860 c 0
 252 885 232 902 209 913 c 0
EndSplineSet
EndChar
StartChar: bullet
Encoding: 149 8226
OldEncoding: 8226
Width: 552
VWidth: 1000
Flags: W
Fore
469 451 m 0
 469 425 464 400 454 376 c 0
 443 352 429 331 412 313 c 0
 394 296 373 282 350 271 c 0
 327 261 302 256 274 256 c 0
 248 256 224 261 200 271 c 0
 176 282 155 296 138 313 c 0
 121 331 108 352 97 376 c 0
 87 400 82 425 82 451 c 0
 82 478 87 503 97 526 c 0
 108 550 121 570 138 587 c 0
 155 604 176 617 200 628 c 0
 224 638 248 643 274 643 c 0
 302 643 327 638 350 628 c 0
 373 617 394 604 412 587 c 0
 429 570 443 550 454 526 c 0
 464 503 469 478 469 451 c 0
EndSplineSet
EndChar
StartChar: endash
Encoding: 150 8211
OldEncoding: 8211
Width: 1128
VWidth: 1000
Flags: W
HStem: 229 70<86 1026>
Fore
1026 229 m 1
 86 229 l 1
 86 299 l 1
 1026 299 l 1
 1026 229 l 1
EndSplineSet
EndChar
StartChar: emdash
Encoding: 151 8212
OldEncoding: 8212
Width: 2256
VWidth: 1000
Flags: W
HStem: 229 70<86 2052>
Fore
2052 229 m 1
 86 229 l 1
 86 299 l 1
 2052 299 l 1
 2052 229 l 1
EndSplineSet
EndChar
StartChar: uniF710
Encoding: 152 63248
OldEncoding: 63248
Width: 0
VWidth: 1000
Flags: W
HStem: 776 76<-288 -254> 1047 51<-407.805 -396>
VStem: -543 101<961 985> -358 61<963 985> -55 133<1079 1097>
Fore
78 1098 m 1
 -55 1098 l 1
 -55 1064 -60 1033 -69 1006 c 0
 -77 978 -89 954 -102 932 c 0
 -111 920 -121 908 -134 898 c 0
 -147 888 -161 879 -176 872 c 0
 -191 866 -207 861 -222 857 c 0
 -238 854 -253 852 -266 852 c 0
 -280 852 -296 853 -314 855 c 0
 -333 857 -349 860 -362 864 c 1
 -341 874 -324 890 -313 911 c 0
 -302 933 -297 956 -297 979 c 0
 -297 1020 -307 1050 -328 1069 c 0
 -348 1088 -372 1098 -399 1098 c 0
 -495 1098 -543 1053 -543 963 c 0
 -543 904 -517 857 -467 823 c 0
 -445 810 -414 798 -375 790 c 0
 -335 781 -301 776 -272 776 c 0
 -251 776 -227 778 -202 782 c 0
 -176 786 -152 792 -128 800 c 0
 -104 807 -82 816 -60 827 c 0
 -39 838 -22 851 -8 866 c 0
 19 895 40 929 55 968 c 0
 70 1007 78 1050 78 1098 c 1
-442 979 m 0
 -442 998 -439 1014 -431 1027 c 0
 -424 1040 -413 1047 -399 1047 c 0
 -386 1047 -375 1040 -369 1027 c 0
 -362 1014 -358 998 -358 979 c 0
 -358 960 -362 944 -369 931 c 0
 -375 918 -386 911 -399 911 c 0
 -413 911 -424 918 -431 931 c 0
 -439 944 -442 960 -442 979 c 0
EndSplineSet
EndChar
StartChar: uniF711
Encoding: 153 63249
OldEncoding: 63249
Width: 0
VWidth: 1000
Flags: W
HStem: 778 78<-421 -412> 938 76<-421 -412>
VStem: -532 77<889 907> -377 80<889 907>
Fore
-532 897 m 0
 -532 864 -521 836 -497 813 c 0
 -473 790 -445 778 -414 778 c 0
 -382 778 -355 790 -332 813 c 0
 -309 836 -297 864 -297 897 c 0
 -297 930 -309 957 -332 980 c 0
 -355 1002 -382 1014 -414 1014 c 0
 -445 1014 -473 1002 -497 980 c 0
 -521 957 -532 930 -532 897 c 0
-455 897 m 0
 -455 908 -451 918 -442 926 c 0
 -434 934 -425 938 -414 938 c 0
 -403 938 -394 934 -387 926 c 0
 -380 918 -377 908 -377 897 c 0
 -377 885 -380 875 -387 867 c 0
 -394 860 -403 856 -414 856 c 0
 -425 856 -434 860 -442 867 c 0
 -451 875 -455 885 -455 897 c 0
EndSplineSet
MinimumDistance: x4,-1 
EndChar
StartChar: uniF712
Encoding: 154 63250
OldEncoding: 63250
Width: 0
VWidth: 1000
Flags: W
HStem: 899 70<-569 -557> 991 56<-425 -414> 1059 71<-426 -408> 1067 74<-534 -514>
VStem: -709 97<979 1002> -507 65<942 966> -391 63<948 966>
Fore
-508 954 m 0
 -508 950 -508 947 -507 943 c 0
 -506 940 -505 936 -504 932 c 1
 -509 940 -518 948 -531 956 c 0
 -544 965 -556 969 -567 969 c 0
 -575 969 -583 967 -589 964 c 0
 -595 960 -600 956 -604 952 c 1
 -606 956 -607 961 -609 967 c 0
 -611 972 -612 978 -612 983 c 0
 -612 1008 -608 1025 -598 1036 c 0
 -588 1047 -578 1054 -567 1057 c 0
 -554 1064 -536 1067 -514 1067 c 0
 -483 1066 -460 1064 -445 1062 c 0
 -431 1060 -418 1059 -408 1059 c 0
 -388 1059 -372 1062 -358 1069 c 0
 -331 1083 -311 1101 -299 1125 c 0
 -287 1149 -281 1177 -281 1208 c 1
 -381 1196 l 1
 -381 1152 -393 1130 -416 1130 c 0
 -421 1130 -430 1131 -443 1133 c 0
 -456 1134 -469 1135 -481 1137 c 0
 -492 1138 -502 1139 -510 1140 c 0
 -518 1140 -526 1141 -532 1141 c 2
 -547 1141 l 2
 -592 1141 -630 1127 -662 1101 c 0
 -693 1074 -709 1035 -709 983 c 0
 -709 945 -694 911 -666 881 c 0
 -637 851 -601 832 -559 825 c 1
 -563 832 -567 840 -570 850 c 0
 -574 859 -575 868 -575 874 c 0
 -575 881 -575 887 -573 892 c 0
 -572 897 -569 899 -563 899 c 0
 -554 899 -545 893 -538 881 c 0
 -530 868 -524 859 -518 852 c 0
 -511 847 -502 841 -492 835 c 0
 -481 828 -466 825 -446 825 c 0
 -423 825 -404 830 -388 841 c 0
 -372 851 -361 862 -354 872 c 0
 -346 886 -340 898 -335 907 c 0
 -330 917 -328 931 -328 950 c 0
 -328 967 -330 980 -336 991 c 0
 -341 1002 -348 1011 -356 1018 c 0
 -375 1037 -398 1047 -424 1047 c 0
 -449 1047 -469 1038 -484 1020 c 0
 -500 1002 -508 980 -508 954 c 0
-442 956 m 0
 -442 966 -440 974 -435 981 c 0
 -430 988 -425 991 -418 991 c 0
 -410 991 -403 988 -398 981 c 0
 -394 974 -391 966 -391 956 c 0
 -391 948 -394 941 -399 935 c 0
 -405 929 -411 926 -418 926 c 0
 -425 926 -430 929 -435 935 c 0
 -440 941 -442 948 -442 956 c 0
EndSplineSet
MinimumDistance: x39,-1 
EndChar
StartChar: uniF713
Encoding: 155 63251
OldEncoding: 63251
Width: 0
VWidth: 1000
Flags: W
Fore
-295 1569 m 1
 -301 1452 l 1
 -315 1317 l 1
 -318 1307 -323 1300 -331 1294 c 0
 -338 1289 -346 1286 -354 1286 c 0
 -362 1286 -371 1289 -379 1294 c 0
 -387 1300 -392 1307 -393 1317 c 1
 -406 1454 l 1
 -410 1569 l 1
 -295 1569 l 1
EndSplineSet
EndChar
StartChar: uniF714
Encoding: 156 63252
OldEncoding: 63252
Width: 0
VWidth: 1000
Flags: W
HStem: 1290 64<-471 -458> 1520 51<-367 -358>
VStem: -451 58<1465 1483> -336 57<1465 1483> -215 113<1561 1583>
Fore
-102 1583 m 1
 -215 1583 l 1
 -215 1531 -223 1488 -238 1452 c 0
 -253 1417 -276 1391 -307 1376 c 1
 -288 1404 -279 1436 -279 1473 c 0
 -279 1496 -287 1518 -303 1539 c 0
 -319 1560 -340 1571 -365 1571 c 0
 -390 1571 -411 1560 -427 1538 c 0
 -443 1516 -451 1494 -451 1470 c 0
 -451 1421 -433 1389 -397 1374 c 1
 -421 1363 -445 1356 -471 1354 c 1
 -471 1290 l 1
 -395 1290 l 2
 -376 1290 -357 1292 -338 1295 c 0
 -319 1299 -300 1304 -281 1311 c 0
 -256 1318 -233 1330 -211 1349 c 0
 -189 1367 -170 1389 -155 1413 c 0
 -139 1438 -126 1465 -117 1494 c 0
 -107 1523 -102 1553 -102 1583 c 1
-393 1470 m 0
 -393 1484 -390 1496 -385 1505 c 0
 -380 1515 -373 1520 -365 1520 c 0
 -356 1520 -350 1515 -344 1505 c 0
 -339 1496 -336 1484 -336 1470 c 0
 -336 1457 -339 1446 -344 1437 c 0
 -350 1428 -356 1423 -365 1423 c 0
 -373 1423 -380 1428 -385 1437 c 0
 -390 1446 -393 1457 -393 1470 c 0
EndSplineSet
MinimumDistance: x0,-1 
EndChar
StartChar: uniF715
Encoding: 157 63253
OldEncoding: 63253
Width: 0
VWidth: 1000
Flags: W
HStem: 1290 47<-498 -489> 1475 67<-450.969 -440.978 -326 -310>
VStem: -586 56<1376 1393> -465 55<1375 1393> -406 58<1403.06 1422.86>
Fore
-102 1544 m 1
 -213 1544 l 1
 -209 1497 l 1
 -209 1442 l 1
 -216 1509 -254 1542 -324 1542 c 0
 -335 1542 -345 1539 -356 1533 c 0
 -367 1527 -376 1520 -383 1511 c 1
 -390 1520 -399 1527 -411 1533 c 0
 -422 1539 -436 1542 -451 1542 c 0
 -482 1542 -507 1534 -525 1519 c 0
 -544 1503 -558 1485 -569 1466 c 0
 -580 1445 -586 1419 -586 1391 c 0
 -586 1366 -577 1343 -559 1322 c 0
 -541 1301 -520 1290 -496 1290 c 0
 -464 1290 -442 1300 -429 1321 c 0
 -416 1341 -410 1361 -410 1380 c 0
 -410 1408 -413 1428 -421 1443 c 0
 -428 1457 -438 1468 -451 1475 c 1
 -421 1475 -406 1451 -406 1403 c 1
 -348 1403 l 1
 -348 1451 -339 1475 -319 1475 c 0
 -298 1475 -287 1458 -287 1425 c 0
 -287 1409 -295 1393 -310 1377 c 0
 -326 1362 -343 1351 -362 1346 c 1
 -362 1286 l 1
 -189 1286 -102 1372 -102 1544 c 1
-530 1380 m 0
 -530 1394 -527 1405 -520 1414 c 0
 -513 1423 -504 1427 -494 1427 c 0
 -484 1427 -477 1423 -472 1414 c 0
 -467 1405 -465 1394 -465 1380 c 0
 -465 1368 -467 1358 -472 1350 c 0
 -477 1341 -484 1337 -494 1337 c 0
 -504 1337 -513 1341 -520 1350 c 0
 -527 1358 -530 1368 -530 1380 c 0
EndSplineSet
MinimumDistance: x19,-1 
EndChar
StartChar: uniF716
Encoding: 158 63254
OldEncoding: 63254
Width: 0
VWidth: 1000
Flags: W
HStem: 1395 86<-506 -408 -287 -190>
Fore
-412 1585 m 1
 -408 1481 l 1
 -506 1481 l 1
 -506 1395 l 1
 -403 1395 l 1
 -403 1290 l 1
 -293 1290 l 1
 -291 1395 l 1
 -190 1395 l 1
 -190 1481 l 1
 -287 1481 l 1
 -285 1585 l 1
 -412 1585 l 1
EndSplineSet
MinimumDistance: x6,4 y4,6 y4,5 
EndChar
StartChar: uniF717
Encoding: 159 63255
OldEncoding: 63255
Width: 0
VWidth: 1000
Flags: W
HStem: 1231 49<-324 -309>
VStem: -438 84<1339 1352> -279 56<1339 1352>
Fore
-197 1477 m 0
 -165 1490 -143 1505 -129 1522 c 0
 -115 1538 -109 1556 -109 1577 c 0
 -109 1581 -109 1586 -109 1591 c 0
 -109 1598 -110 1607 -113 1618 c 1
 -219 1595 l 1
 -216 1589 -214 1582 -213 1576 c 0
 -212 1570 -211 1563 -211 1556 c 0
 -211 1547 -219 1538 -234 1531 c 0
 -250 1523 -261 1518 -268 1516 c 0
 -324 1496 -367 1475 -395 1450 c 0
 -424 1425 -438 1392 -438 1350 c 0
 -438 1315 -427 1287 -406 1265 c 0
 -384 1242 -356 1231 -322 1231 c 0
 -293 1231 -269 1242 -251 1264 c 0
 -232 1285 -223 1313 -223 1348 c 0
 -223 1397 -238 1430 -266 1446 c 1
 -255 1453 -244 1459 -231 1463 c 0
 -219 1468 -208 1473 -197 1477 c 0
-354 1341 m 0
 -354 1356 -351 1370 -344 1382 c 0
 -337 1395 -328 1401 -317 1401 c 0
 -307 1401 -297 1395 -290 1382 c 0
 -282 1370 -279 1356 -279 1341 c 0
 -279 1322 -282 1307 -290 1296 c 0
 -297 1285 -307 1280 -317 1280 c 0
 -328 1280 -337 1285 -344 1296 c 0
 -351 1307 -354 1322 -354 1341 c 0
EndSplineSet
MinimumDistance: x15,-1 
EndChar
StartChar: uni0E01
Encoding: 161 3585
OldEncoding: 3585
Width: 813
VWidth: 1000
Flags: W
HStem: 0 21G<117 266 551 700> 688 100<352 398>
VStem: 117 149<0 417> 551 149<0 545>
Fore
700 0 m 1
 551 0 l 1
 551 524 l 2
 551 575 534 615 501 644 c 0
 467 673 427 688 379 688 c 0
 308 688 251 670 207 635 c 1
 261 624 311 588 354 528 c 1
 327 519 305 505 290 487 c 0
 274 470 266 448 266 422 c 2
 266 0 l 1
 117 0 l 1
 117 395 l 2
 117 433 125 466 140 492 c 0
 156 517 177 538 205 553 c 1
 186 560 164 565 140 568 c 0
 116 572 90 573 61 573 c 1
 72 610 90 642 115 668 c 0
 139 694 168 717 201 737 c 0
 257 771 316 788 379 788 c 0
 472 788 546 767 602 725 c 0
 668 679 700 612 700 524 c 2
 700 0 l 1
EndSplineSet
MinimumDistance: x0,-1 
EndChar
StartChar: uni0E02
Encoding: 162 3586
OldEncoding: 3586
Width: 739
VWidth: 1000
Flags: W
HStem: 0 72<104 178 328 432> 463 41<154 164> 713 75<213 244> 750 20G<467 616>
VStem: 51 62<582 600> 178 150<72 369> 205 51<582 600> 313 119<616 645> 467 149<111 769>
Fore
616 125 m 2
 616 770 l 1
 467 770 l 1
 467 125 l 2
 467 89 451 72 420 72 c 2
 328 72 l 1
 328 362 l 2
 328 375 334 394 346 419 c 0
 358 444 371 467 383 487 c 0
 402 519 415 544 422 564 c 0
 429 584 432 601 432 616 c 0
 432 670 413 712 374 742 c 0
 335 773 287 788 229 788 c 0
 175 788 131 770 99 734 c 0
 67 698 51 652 51 596 c 0
 51 581 54 566 59 550 c 0
 65 534 72 520 81 507 c 0
 90 494 101 483 114 475 c 0
 127 467 141 463 156 463 c 0
 187 463 212 477 229 506 c 0
 247 535 256 565 256 596 c 0
 256 612 254 628 251 644 c 0
 247 660 242 674 233 686 c 0
 228 697 221 706 213 713 c 1
 229 713 l 2
 250 713 269 707 287 695 c 0
 304 684 313 667 313 645 c 0
 313 626 310 610 303 597 c 0
 296 584 283 563 262 535 c 0
 238 500 217 470 202 442 c 0
 186 415 178 388 178 360 c 2
 178 72 l 1
 104 72 l 1
 104 0 l 1
 510 0 l 2
 581 0 616 42 616 125 c 2
113 584 m 0
 113 607 117 626 125 642 c 0
 133 658 144 666 158 666 c 0
 171 666 183 658 191 642 c 0
 200 626 205 607 205 584 c 0
 205 560 200 541 191 526 c 0
 183 511 171 504 158 504 c 0
 144 504 133 511 125 526 c 0
 117 541 113 560 113 584 c 0
EndSplineSet
MinimumDistance: x0,-1 y4,1 y4,2 x31,33 x31,32 
EndChar
StartChar: uni0E03
Encoding: 163 3587
OldEncoding: 3587
Width: 778
VWidth: 1000
Flags: W
HStem: 0 72<160 229 379 483> 457 51<137 144> 713 75<178 192 336.653 352> 752 20G<526 676>
VStem: 31 61<575 592> 186 52<575 592> 229 150<72 369> 244 55<625.063 642.913> 381 102<634 662> 526 150<115.814 772>
Fore
676 125 m 2
 676 772 l 1
 526 772 l 1
 526 125 l 2
 526 113 521 101 509 89 c 0
 497 77 485 72 473 72 c 2
 379 72 l 1
 379 360 l 2
 379 375 383 395 390 418 c 0
 398 441 410 466 426 494 c 0
 444 521 458 549 468 577 c 0
 478 605 483 624 483 635 c 0
 483 683 470 720 444 748 c 0
 418 775 386 788 346 788 c 0
 315 788 289 777 270 754 c 1
 261 765 250 773 238 779 c 0
 225 785 208 788 184 788 c 0
 160 788 138 783 119 772 c 0
 100 761 84 746 71 728 c 0
 58 710 48 688 41 665 c 0
 34 641 31 616 31 590 c 0
 31 550 42 518 65 494 c 0
 87 469 112 457 139 457 c 0
 172 457 197 470 213 498 c 0
 229 525 238 556 238 590 c 0
 238 625 232 654 222 675 c 0
 212 696 197 709 178 713 c 1
 205 713 223 703 231 685 c 0
 240 667 244 646 244 625 c 1
 299 625 l 1
 299 683 315 713 346 713 c 0
 369 713 381 696 381 662 c 0
 381 651 375 638 365 623 c 0
 354 608 339 587 319 561 c 0
 289 519 267 481 252 449 c 0
 237 416 229 386 229 358 c 2
 229 72 l 1
 160 72 l 1
 160 0 l 1
 573 0 l 2
 591 0 606 4 617 11 c 0
 629 19 640 29 651 43 c 0
 668 66 676 94 676 125 c 2
92 586 m 0
 92 609 97 628 105 643 c 0
 114 658 126 666 139 666 c 0
 153 666 164 658 173 643 c 0
 182 628 186 609 186 586 c 0
 186 563 182 544 173 529 c 0
 164 515 153 508 139 508 c 0
 126 508 114 515 105 529 c 0
 97 544 92 563 92 586 c 0
EndSplineSet
MinimumDistance: x0,-1 x36,38 x36,37 
EndChar
StartChar: uni0E04
Encoding: 164 3588
OldEncoding: 3588
Width: 782
VWidth: 1000
Flags: W
HStem: 0 21G<156 305 530 680> 301 51<351 367> 514 61<343 365> 690 98<343 377>
VStem: 41 121<495 535> 162 151<78 113> 416 51<430 449> 530 150<0 561>
Fore
352 301 m 0
 370 301 386 305 399 313 c 0
 413 322 425 332 435 345 c 0
 445 358 453 372 459 388 c 0
 464 404 467 420 467 436 c 0
 467 474 456 507 434 535 c 0
 412 562 382 575 344 575 c 0
 306 575 273 560 246 529 c 0
 218 499 201 459 195 412 c 1
 184 428 175 444 170 460 c 0
 165 475 162 493 162 512 c 0
 162 568 180 612 215 643 c 0
 251 674 303 690 373 690 c 0
 395 690 415 686 434 679 c 0
 453 671 470 661 484 648 c 0
 499 635 510 621 518 605 c 0
 526 589 530 573 530 557 c 2
 530 0 l 1
 680 0 l 1
 680 557 l 2
 680 597 670 632 650 663 c 0
 630 693 605 719 573 739 c 0
 523 772 457 788 375 788 c 0
 276 788 200 767 145 723 c 0
 113 700 87 670 69 634 c 0
 50 598 41 556 41 508 c 0
 41 490 45 467 54 437 c 0
 63 408 79 370 100 324 c 0
 119 281 134 241 145 203 c 0
 156 165 162 130 162 98 c 2
 162 78 l 1
 156 0 l 1
 305 0 l 1
 309 15 312 31 312 49 c 0
 313 67 313 84 313 100 c 0
 313 115 312 138 309 169 c 0
 307 200 305 225 305 244 c 0
 305 257 306 269 307 279 c 0
 309 288 311 299 313 311 c 1
 324 304 337 301 352 301 c 0
313 432 m 0
 313 455 318 475 328 490 c 0
 337 506 350 514 365 514 c 0
 380 514 392 506 401 490 c 0
 411 475 416 455 416 432 c 0
 416 409 411 390 401 375 c 0
 392 360 380 352 365 352 c 0
 350 352 337 360 328 375 c 0
 318 390 313 409 313 432 c 0
EndSplineSet
MinimumDistance: x18,-1 
EndChar
StartChar: uni0E05
Encoding: 165 3589
OldEncoding: 3589
Width: 798
VWidth: 1000
Flags: W
HStem: 0 21G<160 309 547 696> 301 51<355 371> 514 61<347 369> 694 94<248 266 461 479>
VStem: 41 117<527 561> 166 151<78 113> 420 51<430 449> 547 149<0 609>
Fore
356 301 m 0
 374 301 390 305 403 313 c 0
 417 322 429 332 439 345 c 0
 450 358 457 372 463 388 c 0
 468 404 471 420 471 436 c 0
 471 474 460 507 438 535 c 0
 416 562 386 575 348 575 c 0
 310 575 277 560 250 529 c 0
 223 499 205 459 199 412 c 1
 186 435 176 458 169 480 c 0
 161 503 158 526 158 549 c 0
 158 646 193 694 264 694 c 0
 298 694 322 664 334 604 c 1
 395 604 l 1
 405 664 430 694 471 694 c 0
 522 694 547 662 547 598 c 2
 547 0 l 1
 696 0 l 1
 696 594 l 2
 696 614 691 636 681 659 c 0
 671 683 656 704 637 723 c 0
 618 742 595 758 567 770 c 0
 540 782 510 788 477 788 c 0
 429 788 392 771 365 737 c 1
 339 771 300 788 250 788 c 0
 218 788 190 782 165 769 c 0
 140 756 118 739 99 717 c 0
 81 695 67 669 56 640 c 0
 46 611 41 580 41 547 c 0
 41 529 42 513 44 500 c 0
 46 486 49 472 53 457 c 0
 57 442 63 424 72 403 c 0
 80 383 90 357 102 326 c 0
 120 282 135 241 147 203 c 0
 160 165 166 130 166 98 c 2
 166 78 l 1
 160 0 l 1
 309 0 l 1
 313 15 316 31 316 49 c 0
 317 67 317 84 317 100 c 0
 317 115 316 138 313 169 c 0
 311 200 309 225 309 244 c 0
 309 257 310 269 311 279 c 0
 313 288 315 299 317 311 c 1
 328 304 341 301 356 301 c 0
317 432 m 0
 317 455 322 475 332 490 c 0
 341 506 354 514 369 514 c 0
 384 514 396 506 406 490 c 0
 415 475 420 455 420 432 c 0
 420 409 415 390 406 375 c 0
 396 360 384 352 369 352 c 0
 354 352 341 360 332 375 c 0
 322 390 317 409 317 432 c 0
EndSplineSet
MinimumDistance: x17,-1 
EndChar
StartChar: uni0E06
Encoding: 166 3590
OldEncoding: 3590
Width: 874
VWidth: 1000
Flags: W
HStem: 0 21G<616 772> 457 51<153 164> 713 75<199 211 357.393 372> 752 20G<621 772>
VStem: 51 62<569 603> 115 71<153 170> 207 51<569 603> 256 150<126 250 345 362> 264 55<625.063 643.123> 401 103<635 662> 621 151<238 772>
Fore
406 360 m 2
 406 375 409 395 417 418 c 0
 424 441 436 466 453 494 c 0
 470 521 483 549 492 577 c 0
 500 605 504 624 504 635 c 0
 504 683 491 720 465 748 c 0
 439 775 406 788 367 788 c 0
 335 788 310 777 291 754 c 1
 281 765 270 773 258 779 c 0
 246 785 228 788 205 788 c 0
 180 788 158 783 139 772 c 0
 120 761 104 746 91 728 c 0
 78 710 68 688 61 665 c 0
 55 641 51 616 51 590 c 0
 51 550 62 518 85 494 c 0
 108 469 132 457 160 457 c 0
 193 457 217 470 233 498 c 0
 250 525 258 556 258 590 c 0
 258 625 253 654 243 675 c 0
 232 696 218 709 199 713 c 1
 226 713 244 703 252 685 c 0
 260 667 264 646 264 625 c 1
 319 625 l 1
 319 683 335 713 367 713 c 0
 390 713 401 696 401 662 c 0
 401 651 396 638 385 623 c 0
 374 608 359 587 340 561 c 0
 310 519 288 481 275 449 c 0
 262 416 256 386 256 358 c 2
 256 342 l 1
 215 334 181 313 155 280 c 0
 128 246 115 208 115 164 c 0
 115 115 130 74 161 42 c 0
 191 10 231 -6 279 -6 c 0
 363 -6 406 38 406 125 c 2
 406 250 l 1
 456 239 499 212 534 168 c 0
 568 124 596 68 616 0 c 1
 772 0 l 1
 772 772 l 1
 621 772 l 1
 621 238 l 1
 593 268 560 293 521 312 c 0
 482 332 444 343 406 346 c 1
 406 360 l 2
113 586 m 0
 113 609 117 628 126 643 c 0
 135 658 146 666 160 666 c 0
 173 666 185 658 194 643 c 0
 202 628 207 609 207 586 c 0
 207 563 202 544 194 529 c 0
 185 515 173 508 160 508 c 0
 146 508 135 515 126 529 c 0
 117 544 113 563 113 586 c 0
256 250 m 1
 256 139 l 2
 256 131 255 123 252 115 c 0
 249 106 242 102 231 102 c 0
 219 102 209 108 200 118 c 0
 191 128 186 143 186 162 c 0
 186 186 194 206 209 221 c 0
 224 236 240 246 256 250 c 1
EndSplineSet
MinimumDistance: x38,-1 
EndChar
StartChar: uni0E07
Encoding: 167 3591
OldEncoding: 3591
Width: 604
VWidth: 1000
Flags: W
HStem: 0 21G<362 502>
VStem: 211 51<623 641> 352 150<199 522 623 641>
Fore
502 0 m 1
 502 635 l 2
 502 680 488 717 462 745 c 0
 435 774 399 788 352 788 c 0
 314 788 281 774 253 746 c 0
 225 719 211 683 211 639 c 0
 211 608 221 579 241 552 c 0
 260 525 286 512 317 512 c 0
 327 512 339 515 352 522 c 1
 352 199 l 1
 47 561 l 1
 0 512 l 1
 362 0 l 1
 502 0 l 1
262 639 m 0
 262 661 267 679 275 694 c 0
 284 709 295 717 307 717 c 0
 319 717 330 709 339 694 c 0
 348 679 352 661 352 639 c 0
 352 617 348 599 339 585 c 0
 330 570 319 563 307 563 c 0
 295 563 284 570 275 585 c 0
 267 599 262 617 262 639 c 0
EndSplineSet
MinimumDistance: x0,-1 
EndChar
StartChar: uni0E08
Encoding: 168 3592
OldEncoding: 3592
Width: 638
VWidth: 1000
Flags: W
HStem: 0 21G<387 537> 276 52<201 213> 492 61<205 233> 688 100<237 270>
VStem: 111 51<397 417> 387 150<0.0625701 52.8461 451 563>
Fore
537 0 m 1
 537 565 l 2
 537 598 530 628 518 655 c 0
 506 683 485 707 457 729 c 0
 432 748 403 763 369 773 c 0
 335 783 302 788 270 788 c 0
 154 788 62 724 -6 594 c 1
 47 563 l 1
 104 646 168 688 238 688 c 0
 280 688 316 675 345 649 c 0
 374 623 389 588 389 545 c 2
 389 451 l 1
 348 519 296 553 233 553 c 0
 195 553 165 539 143 510 c 0
 122 481 111 448 111 410 c 0
 111 371 120 340 139 314 c 0
 158 289 182 276 211 276 c 0
 241 276 265 288 282 311 c 0
 299 335 309 364 311 399 c 1
 317 388 320 381 322 377 c 0
 337 333 351 280 366 218 c 0
 380 156 387 83 387 0 c 1
 537 0 l 1
162 410 m 0
 162 433 166 452 174 468 c 0
 182 484 193 492 205 492 c 0
 217 492 228 484 237 468 c 0
 245 452 250 433 250 410 c 0
 250 386 245 367 237 351 c 0
 228 336 217 328 205 328 c 0
 193 328 182 336 174 351 c 0
 166 367 162 386 162 410 c 0
EndSplineSet
MinimumDistance: x0,-1 
EndChar
StartChar: uni0E09
Encoding: 169 3593
OldEncoding: 3593
Width: 921
VWidth: 1000
Flags: W
HStem: 0 21G<193 342> 688 100<354 388>
VStem: 51 51<393 411> 547 149<121 250 345 543> 748 71<153 172>
Fore
342 397 m 2
 342 442 328 479 301 508 c 0
 274 537 237 551 190 551 c 0
 152 551 119 537 92 509 c 0
 65 481 51 445 51 401 c 0
 51 370 61 341 81 314 c 0
 101 288 126 274 158 274 c 0
 167 274 179 278 193 285 c 1
 193 0 l 1
 342 0 l 1
 364 70 393 126 428 169 c 0
 464 212 503 240 547 254 c 1
 547 125 l 2
 547 81 559 48 584 27 c 0
 608 5 640 -6 678 -6 c 0
 772 -6 819 51 819 166 c 0
 819 216 809 256 787 285 c 0
 766 313 736 332 696 342 c 1
 696 541 l 2
 696 584 688 622 673 654 c 0
 657 686 631 713 594 735 c 0
 534 771 459 788 371 788 c 0
 339 788 308 784 276 774 c 0
 245 765 216 751 188 733 c 0
 161 715 137 694 116 669 c 0
 95 643 78 616 66 586 c 1
 117 557 l 1
 182 644 266 688 367 688 c 0
 421 688 465 674 498 646 c 0
 530 618 547 576 547 520 c 2
 547 346 l 1
 459 331 391 295 342 238 c 1
 342 397 l 2
102 401 m 0
 102 423 107 442 116 457 c 0
 125 472 135 479 147 479 c 0
 160 479 170 472 179 457 c 0
 188 442 193 423 193 401 c 0
 193 380 188 361 179 347 c 0
 170 333 160 326 147 326 c 0
 135 326 125 333 116 347 c 0
 107 361 102 380 102 401 c 0
748 158 m 0
 748 143 745 130 740 119 c 0
 736 108 729 102 721 102 c 0
 715 102 710 104 705 109 c 0
 699 113 696 120 696 131 c 2
 696 250 l 1
 715 246 729 234 736 214 c 0
 744 194 748 175 748 158 c 0
EndSplineSet
MinimumDistance: x15,-1 
EndChar
StartChar: uni0E0A
Encoding: 170 3594
OldEncoding: 3594
Width: 733
VWidth: 1000
Flags: W
HStem: 0 72<104 178 322 420> 463 41<154 164> 713 75<213 244>
VStem: 51 62<582 600> 178 144<72 369> 205 51<582 600> 461 149<111 449>
Fore
610 125 m 2
 610 430 l 2
 610 479 597 521 571 555 c 1
 573 555 l 1
 567 567 559 578 552 588 c 0
 544 597 535 606 524 612 c 1
 556 627 578 650 591 680 c 0
 604 710 610 748 610 795 c 2
 610 836 l 1
 453 836 l 1
 453 795 l 2
 453 735 440 694 416 674 c 1
 405 709 382 737 348 758 c 0
 314 778 274 788 229 788 c 0
 175 788 131 770 99 734 c 0
 67 698 51 652 51 596 c 0
 51 581 54 566 59 550 c 0
 65 534 72 520 81 507 c 0
 90 494 101 483 114 475 c 0
 127 467 141 463 156 463 c 0
 187 463 212 477 229 506 c 0
 247 535 256 565 256 596 c 0
 256 612 254 628 251 644 c 0
 247 660 242 674 233 686 c 0
 228 697 221 706 213 713 c 1
 229 713 l 2
 250 713 269 707 287 695 c 0
 304 684 313 667 313 645 c 0
 313 626 310 610 303 597 c 0
 296 584 283 563 262 535 c 0
 238 500 217 470 202 442 c 0
 186 415 178 388 178 360 c 2
 178 72 l 1
 104 72 l 1
 104 0 l 1
 500 0 l 2
 534 0 561 10 581 31 c 0
 600 51 610 83 610 125 c 2
461 430 m 2
 461 125 l 2
 461 89 445 72 414 72 c 2
 322 72 l 1
 322 362 l 2
 322 375 328 394 340 419 c 0
 352 444 365 467 377 487 c 0
 389 509 400 530 410 551 c 1
 425 540 437 525 446 505 c 0
 456 485 461 460 461 430 c 2
113 584 m 0
 113 607 117 626 125 642 c 0
 133 658 144 666 158 666 c 0
 171 666 183 658 191 642 c 0
 200 626 205 607 205 584 c 0
 205 560 200 541 191 526 c 0
 183 511 171 504 158 504 c 0
 144 504 133 511 125 526 c 0
 117 541 113 560 113 584 c 0
EndSplineSet
MinimumDistance: x0,-1 x32,34 x32,33 
EndChar
StartChar: uni0E0B
Encoding: 171 3595
OldEncoding: 3595
Width: 784
VWidth: 1000
Flags: W
HStem: 0 72<166 236 385 489> 457 51<137 144> 713 75<178 192 344 352>
VStem: 31 61<569 592> 186 52<570 592> 236 149<72 369> 244 55<625.063 642.913> 532 150<115.814 435>
Fore
682 125 m 2
 682 434 l 2
 682 531 655 595 600 625 c 1
 655 655 682 713 682 799 c 2
 682 838 l 1
 522 838 l 1
 522 799 l 2
 522 767 519 739 513 714 c 0
 507 688 498 672 487 664 c 1
 483 703 468 734 442 756 c 0
 416 778 386 788 350 788 c 0
 316 788 289 777 270 754 c 1
 261 765 250 773 238 779 c 0
 225 785 208 788 184 788 c 0
 160 788 138 783 119 772 c 0
 100 761 84 746 71 728 c 0
 58 710 48 688 41 665 c 0
 34 641 31 616 31 590 c 0
 31 550 42 518 65 494 c 0
 87 469 112 457 139 457 c 0
 172 457 197 470 213 498 c 0
 229 525 238 556 238 590 c 0
 238 625 232 654 222 675 c 0
 212 696 197 709 178 713 c 1
 205 713 223 703 231 685 c 0
 240 667 244 646 244 625 c 1
 299 625 l 1
 299 683 315 713 346 713 c 0
 369 713 381 696 381 662 c 0
 381 651 375 638 365 623 c 0
 354 608 339 587 319 561 c 0
 289 519 268 481 255 449 c 0
 242 416 236 386 236 358 c 2
 236 72 l 1
 166 72 l 1
 166 0 l 1
 575 0 l 2
 611 0 638 12 657 37 c 0
 666 48 672 61 676 78 c 0
 680 94 682 110 682 125 c 2
532 434 m 1
 532 125 l 2
 532 113 527 101 515 89 c 0
 503 77 492 72 479 72 c 2
 385 72 l 1
 385 360 l 2
 385 375 389 395 396 418 c 0
 404 441 416 466 432 494 c 0
 440 506 447 519 454 532 c 0
 460 546 466 559 471 571 c 1
 492 563 507 547 516 522 c 0
 526 498 531 468 532 434 c 1
92 586 m 0
 92 609 97 628 105 643 c 0
 114 658 126 666 139 666 c 0
 153 666 164 658 173 643 c 0
 182 628 186 609 186 586 c 0
 186 563 182 544 173 529 c 0
 164 515 153 508 139 508 c 0
 126 508 114 515 105 529 c 0
 97 544 92 563 92 586 c 0
EndSplineSet
MinimumDistance: x0,-1 x33,35 x33,34 
EndChar
StartChar: uni0E0C
Encoding: 172 3596
OldEncoding: 3596
Width: 1107
VWidth: 1000
Flags: W
HStem: -12 61<268 303> 0 21G<850 1006> 211 51<295 306> 690 98<351 401> 752 20G<856 1006>
VStem: 106 150<119 141 254 405> 350 51<110 141> 420 72<137 165> 563 150<137 245 341 533> 856 150<283 772>
Fore
1006 0 m 1
 1006 772 l 1
 856 772 l 1
 856 283 l 1
 816 314 769 334 713 342 c 1
 713 520 l 2
 713 567 703 607 683 641 c 0
 663 675 637 704 604 727 c 0
 550 768 474 788 379 788 c 0
 347 788 316 784 284 776 c 0
 252 768 221 755 193 737 c 0
 126 699 82 644 61 573 c 1
 128 573 178 567 211 555 c 1
 180 540 154 520 135 494 c 0
 116 468 106 435 106 395 c 2
 106 139 l 2
 106 91 122 54 152 28 c 0
 182 1 221 -12 268 -12 c 0
 357 -12 401 32 401 121 c 0
 401 137 400 154 396 171 c 0
 393 188 387 203 379 217 c 0
 371 231 360 242 346 250 c 0
 332 258 316 262 297 262 c 0
 283 262 270 259 256 254 c 1
 256 422 l 2
 256 449 266 472 285 489 c 0
 304 507 328 520 356 528 c 1
 313 588 261 625 203 637 c 1
 249 672 308 690 379 690 c 0
 429 690 473 675 509 644 c 0
 545 613 563 572 563 520 c 2
 563 338 l 1
 468 308 420 248 420 158 c 0
 420 109 434 68 462 36 c 0
 490 4 530 -12 582 -12 c 0
 669 -12 713 32 713 121 c 2
 713 248 l 1
 733 241 749 231 761 217 c 0
 772 203 784 188 795 170 c 0
 808 151 821 127 833 98 c 0
 844 70 850 37 850 0 c 1
 1006 0 l 1
256 129 m 0
 256 152 260 172 269 187 c 0
 278 203 289 211 303 211 c 0
 317 211 328 203 337 187 c 0
 346 172 350 152 350 129 c 0
 350 106 346 87 337 72 c 0
 328 57 317 49 303 49 c 0
 289 49 278 57 269 72 c 0
 260 87 256 106 256 129 c 0
563 246 m 1
 563 150 l 2
 563 130 560 117 553 109 c 0
 546 100 538 96 528 96 c 0
 520 96 512 100 504 109 c 0
 496 117 492 130 492 150 c 0
 492 181 499 204 515 219 c 0
 531 234 547 243 563 246 c 1
EndSplineSet
MinimumDistance: x0,-1 
EndChar
StartChar: uni0E0D
Encoding: 173 3597
OldEncoding: 3597
Width: 1101
VWidth: 1000
Flags: W
HStem: -387 74<744 771> -104 51<682 692> -12 61<268 303> 0 74<704 806> 211 51<295 306> 690 98<354 401> 752 20G<850 999>
VStem: 106 150<119 141 254 414> 350 51<119 141> 549 94<-196 -172> 555 150<74 542> 737 51<-182 -162> 850 149<119 772>
Fore
999 127 m 2
 999 772 l 1
 850 772 l 1
 850 127 l 2
 850 109 845 96 836 87 c 0
 826 78 814 74 799 74 c 2
 705 74 l 1
 705 520 l 2
 705 613 673 682 610 727 c 0
 583 748 550 763 510 773 c 0
 470 783 427 788 379 788 c 0
 315 788 255 771 199 737 c 0
 165 717 136 693 113 667 c 0
 89 640 72 609 61 573 c 1
 124 573 172 567 205 555 c 1
 173 540 149 520 132 494 c 0
 115 468 106 435 106 395 c 2
 106 139 l 2
 106 91 122 54 152 28 c 0
 182 1 221 -12 268 -12 c 0
 357 -12 401 32 401 121 c 0
 401 137 400 154 396 171 c 0
 393 188 387 203 379 217 c 0
 371 231 360 242 346 250 c 0
 332 258 316 262 297 262 c 0
 283 262 270 259 256 254 c 1
 256 422 l 2
 256 449 266 472 285 489 c 0
 304 507 328 520 356 528 c 1
 313 588 261 625 203 637 c 1
 249 672 308 690 379 690 c 0
 429 690 471 675 505 644 c 0
 538 613 555 572 555 520 c 2
 555 0 l 1
 889 0 l 2
 963 0 999 42 999 127 c 2
999 -53 m 1
 850 -53 l 1
 856 -145 l 1
 856 -165 854 -184 851 -203 c 0
 848 -222 842 -237 836 -248 c 0
 827 -264 817 -279 804 -293 c 0
 791 -307 778 -313 764 -313 c 0
 746 -313 730 -309 715 -301 c 1
 738 -294 756 -279 769 -256 c 0
 782 -233 788 -208 788 -180 c 0
 788 -147 779 -118 760 -92 c 0
 741 -66 715 -53 684 -53 c 0
 644 -53 612 -67 587 -93 c 0
 561 -120 549 -154 549 -195 c 0
 549 -251 568 -297 605 -333 c 0
 643 -369 689 -387 745 -387 c 0
 827 -387 890 -359 934 -304 c 0
 978 -249 999 -165 999 -53 c 1
256 129 m 0
 256 152 260 172 269 187 c 0
 278 203 289 211 303 211 c 0
 317 211 328 203 337 187 c 0
 346 172 350 152 350 129 c 0
 350 106 346 87 337 72 c 0
 328 57 317 49 303 49 c 0
 289 49 278 57 269 72 c 0
 260 87 256 106 256 129 c 0
643 -172 m 0
 643 -153 648 -137 656 -124 c 0
 665 -111 677 -104 690 -104 c 0
 704 -104 715 -111 724 -124 c 0
 733 -137 737 -153 737 -172 c 0
 737 -191 733 -208 724 -221 c 0
 715 -235 704 -242 690 -242 c 0
 677 -242 665 -235 656 -221 c 0
 648 -208 643 -191 643 -172 c 0
EndSplineSet
MinimumDistance: x0,-1 
EndChar
StartChar: uni0E0E
Encoding: 174 3598
OldEncoding: 3598
Width: 864
VWidth: 1000
Flags: W
HStem: -319 21G<612 762> -90 72<304 342> 698 101<434 474>
VStem: 41 51<123 134> 158 61<-182 -168> 188 150<130 154 256 418> 461 98<0 34> 612 150<-123 546>
Fore
762 -319 m 1
 762 528 l 2
 762 573 753 614 734 649 c 0
 716 685 691 715 659 741 c 0
 632 765 603 780 573 787 c 0
 543 795 506 799 461 799 c 0
 429 799 398 795 366 786 c 0
 333 778 303 765 274 748 c 0
 242 727 213 703 188 677 c 0
 164 650 145 618 133 582 c 1
 163 582 190 580 214 577 c 0
 238 573 259 568 279 561 c 1
 251 545 229 524 213 498 c 0
 197 472 188 440 188 401 c 2
 188 256 l 1
 175 263 163 266 154 266 c 0
 118 266 90 252 71 223 c 0
 51 195 41 162 41 125 c 0
 41 79 53 44 78 22 c 0
 102 -1 136 -12 178 -12 c 0
 205 -12 229 -7 250 4 c 0
 270 15 287 29 300 45 c 0
 313 61 323 79 329 98 c 0
 335 117 338 136 338 154 c 2
 338 428 l 2
 338 454 347 476 367 495 c 0
 386 513 409 526 436 535 c 1
 413 565 388 589 361 607 c 0
 335 626 308 638 281 645 c 1
 327 681 386 698 459 698 c 0
 508 698 546 683 572 652 c 0
 599 622 612 580 612 528 c 2
 612 -123 l 1
 597 -112 586 -103 578 -97 c 0
 569 -91 560 -85 549 -78 c 1
 552 -67 554 -51 556 -30 c 0
 558 -9 559 13 559 35 c 1
 461 35 l 1
 461 17 461 3 461 -8 c 0
 461 -20 459 -30 457 -37 c 1
 438 -31 418 -27 399 -24 c 0
 380 -20 361 -18 342 -18 c 0
 319 -18 296 -22 273 -29 c 0
 251 -35 231 -45 214 -58 c 0
 197 -71 183 -87 173 -106 c 0
 163 -126 158 -147 158 -170 c 0
 158 -193 162 -213 172 -230 c 0
 182 -247 195 -261 211 -271 c 0
 227 -282 246 -289 266 -294 c 0
 287 -299 307 -301 328 -301 c 0
 340 -301 351 -300 361 -299 c 0
 372 -298 381 -296 389 -293 c 0
 425 -283 452 -269 472 -250 c 0
 492 -231 506 -212 514 -195 c 1
 530 -210 547 -227 563 -248 c 0
 580 -268 596 -292 612 -319 c 1
 762 -319 l 1
391 -215 m 0
 384 -222 372 -228 353 -232 c 0
 335 -237 322 -240 313 -240 c 0
 282 -240 258 -233 243 -220 c 0
 227 -207 219 -190 219 -170 c 0
 219 -150 229 -131 248 -115 c 0
 267 -98 286 -90 305 -90 c 0
 338 -90 365 -95 385 -104 c 0
 406 -114 423 -124 438 -135 c 1
 436 -153 431 -168 424 -180 c 0
 417 -193 406 -204 391 -215 c 0
92 131 m 0
 92 154 97 174 105 190 c 0
 114 207 126 215 139 215 c 0
 153 215 165 207 174 190 c 0
 184 174 188 154 188 131 c 0
 188 108 184 88 174 73 c 0
 165 57 153 49 139 49 c 0
 126 49 114 57 105 73 c 0
 97 88 92 108 92 131 c 0
EndSplineSet
MinimumDistance: x0,-1 
EndChar
StartChar: uni0E0F
Encoding: 175 3599
OldEncoding: 3599
Width: 864
VWidth: 1000
Flags: W
HStem: -322 21G<442 518 627 762> -285 52<262 287> -94 71<263 287> 698 101<434 478>
VStem: 41 51<123 143> 131 51<-168 -145> 188 150<130 154 256 415> 375 90<2 35> 612 150<-90 543>
Fore
559 4 m 1
 498 -135 l 1
 491 -127 484 -119 476 -113 c 0
 469 -106 460 -99 451 -92 c 1
 453 -81 456 -63 460 -37 c 0
 463 -11 465 9 465 23 c 2
 465 35 l 1
 375 35 l 1
 375 -43 l 1
 360 -36 346 -31 334 -28 c 0
 322 -24 306 -23 287 -23 c 0
 246 -23 210 -35 178 -59 c 0
 147 -84 131 -116 131 -156 c 0
 131 -198 145 -230 173 -252 c 0
 201 -274 235 -285 274 -285 c 0
 306 -285 332 -278 354 -263 c 0
 376 -249 394 -229 408 -205 c 1
 416 -221 423 -240 430 -260 c 0
 437 -281 441 -301 442 -322 c 1
 518 -322 l 1
 565 -209 l 1
 627 -322 l 1
 762 -322 l 1
 762 528 l 2
 762 621 728 692 662 741 c 0
 633 762 603 777 573 785 c 0
 543 794 506 799 461 799 c 0
 429 799 398 795 366 786 c 0
 333 778 303 765 274 748 c 0
 242 727 213 703 188 677 c 0
 164 650 145 618 133 582 c 1
 163 582 190 580 214 577 c 0
 238 573 259 568 279 561 c 1
 251 545 229 524 213 498 c 0
 197 472 188 440 188 401 c 2
 188 256 l 1
 175 263 163 266 154 266 c 0
 118 266 90 252 71 223 c 0
 51 195 41 162 41 125 c 0
 41 79 53 44 78 22 c 0
 102 -1 136 -12 178 -12 c 0
 205 -12 229 -7 250 4 c 0
 270 15 287 29 300 45 c 0
 313 61 323 79 329 98 c 0
 335 117 338 136 338 154 c 2
 338 428 l 2
 338 454 347 476 367 495 c 0
 386 513 409 526 436 535 c 1
 413 565 388 589 361 607 c 0
 335 626 308 638 281 645 c 1
 327 681 386 698 459 698 c 0
 508 698 546 683 572 652 c 0
 599 622 612 580 612 528 c 2
 612 -90 l 1
 559 4 l 1
92 131 m 0
 92 154 97 174 105 190 c 0
 114 207 126 215 139 215 c 0
 153 215 165 207 174 190 c 0
 184 174 188 154 188 131 c 0
 188 108 184 88 174 73 c 0
 165 57 153 49 139 49 c 0
 126 49 114 57 105 73 c 0
 97 88 92 108 92 131 c 0
274 -233 m 0
 251 -233 230 -227 211 -215 c 0
 192 -203 182 -183 182 -156 c 0
 182 -139 190 -125 206 -113 c 0
 222 -100 241 -94 264 -94 c 0
 286 -94 305 -99 321 -108 c 0
 336 -116 349 -126 358 -137 c 1
 357 -145 354 -155 350 -166 c 0
 346 -177 341 -187 334 -198 c 0
 327 -208 318 -216 308 -223 c 0
 298 -230 287 -233 274 -233 c 0
EndSplineSet
MinimumDistance: x22,-1 
EndChar
StartChar: uni0E10
Encoding: 176 3600
OldEncoding: 3600
Width: 735
VWidth: 1000
Flags: W
HStem: -393 51<131 143> -256 61<131 143> -63 59<353 371> 0 21G<375 518> 211 51<199 213> 412 61<207 233> 629 92<467 489> 678 123<250 270>
VStem: 41 51<-307.159 -289> 111 51<326 344> 264 51<-138 -119> 369 149<10.1251 48.5333>
Fore
375 0 m 1
 518 0 l 1
 518 410 l 2
 518 446 508 480 487 510 c 0
 467 540 439 565 403 586 c 0
 376 602 345 614 311 621 c 0
 277 627 240 631 201 631 c 2
 156 631 l 1
 176 662 212 678 264 678 c 0
 270 678 279 676 292 672 c 0
 305 668 319 663 336 657 c 0
 339 656 342 655 347 653 c 0
 352 652 356 651 360 649 c 0
 385 642 406 637 423 634 c 0
 440 630 455 629 467 629 c 0
 549 629 604 683 633 791 c 1
 555 791 l 1
 545 771 536 755 526 741 c 0
 517 728 504 721 489 721 c 0
 483 721 472 725 458 734 c 0
 443 743 429 752 414 760 c 2
 383 774 l 2
 364 785 345 792 326 796 c 0
 307 799 287 801 268 801 c 0
 240 801 212 794 186 781 c 0
 160 768 138 751 118 728 c 0
 98 706 81 680 68 650 c 0
 54 621 45 589 41 555 c 1
 138 555 212 547 264 532 c 0
 330 512 365 471 369 410 c 1
 333 452 288 473 233 473 c 0
 191 473 160 460 140 435 c 0
 120 410 111 378 111 340 c 0
 111 310 120 281 139 253 c 0
 158 225 182 211 211 211 c 0
 238 211 261 221 281 242 c 0
 300 262 311 287 313 315 c 1
 349 250 367 148 369 10 c 1
 375 0 l 1
328 -238 m 1
 289 -291 l 1
 285 -283 281 -276 276 -272 c 1
 301 -231 l 1
 236 -195 l 1
 221 -223 l 1
 210 -215 198 -208 184 -203 c 0
 171 -197 156 -195 141 -195 c 0
 114 -195 90 -204 71 -224 c 0
 51 -244 41 -268 41 -297 c 0
 41 -324 50 -347 69 -366 c 0
 87 -384 110 -393 137 -393 c 0
 155 -393 172 -389 188 -382 c 0
 205 -374 220 -362 233 -344 c 1
 238 -350 l 1
 240 -361 242 -375 242 -393 c 1
 311 -393 l 1
 350 -348 l 1
 397 -393 l 1
 518 -393 l 1
 518 -145 l 2
 518 -117 512 -94 500 -77 c 0
 487 -60 477 -46 467 -37 c 0
 456 -26 442 -18 425 -12 c 0
 408 -7 390 -4 371 -4 c 0
 341 -4 315 -15 295 -37 c 0
 274 -59 264 -87 264 -121 c 0
 264 -132 265 -143 266 -155 c 0
 268 -166 271 -177 276 -188 c 0
 282 -199 289 -209 297 -218 c 0
 305 -227 315 -233 328 -238 c 1
162 336 m 0
 162 356 166 374 175 389 c 0
 184 404 195 412 207 412 c 0
 219 412 230 404 239 389 c 0
 247 374 252 356 252 336 c 0
 252 315 247 298 239 284 c 0
 230 269 219 262 207 262 c 0
 195 262 184 269 175 284 c 0
 166 298 162 315 162 336 c 0
315 -129 m 0
 315 -110 319 -94 327 -82 c 0
 334 -70 343 -63 354 -63 c 0
 365 -63 375 -70 383 -82 c 0
 391 -94 395 -110 395 -129 c 0
 395 -148 391 -164 383 -176 c 0
 375 -188 365 -195 354 -195 c 0
 343 -195 334 -188 327 -176 c 0
 319 -164 315 -148 315 -129 c 0
137 -342 m 0
 124 -342 113 -338 104 -329 c 0
 96 -320 92 -309 92 -297 c 0
 92 -285 97 -275 105 -267 c 0
 114 -260 124 -256 133 -256 c 0
 160 -256 181 -266 195 -285 c 1
 188 -298 180 -311 172 -324 c 0
 164 -336 152 -342 137 -342 c 0
395 -240 m 1
 395 -270 l 1
 371 -246 l 1
 376 -244 381 -243 384 -243 c 0
 387 -242 391 -241 395 -240 c 1
EndSplineSet
MinimumDistance: x1,-1 
EndChar
StartChar: uni0E11
Encoding: 177 3601
OldEncoding: 3601
Width: 917
VWidth: 1000
Flags: W
HStem: 0 21G<236 383 666 815> 457 51<137 144> 713 75<178 192 336.653 352>
VStem: 31 61<575 592> 186 52<575 592> 244 55<625.063 642.913> 381 108<634 662> 666 149<0 643>
DStem: 530 662 602 635 385 252 383 0
Fore
385 360 m 2
 385 375 389 395 396 418 c 0
 404 441 416 466 432 494 c 0
 450 521 464 549 474 577 c 0
 484 605 489 624 489 635 c 0
 489 683 475 720 447 748 c 0
 419 775 386 788 346 788 c 0
 315 788 289 777 270 754 c 1
 261 765 250 773 238 779 c 0
 225 785 208 788 184 788 c 0
 160 788 138 783 119 772 c 0
 100 761 84 746 71 728 c 0
 58 710 48 688 41 665 c 0
 34 641 31 616 31 590 c 0
 31 550 42 518 65 494 c 0
 87 469 112 457 139 457 c 0
 172 457 197 470 213 498 c 0
 229 525 238 556 238 590 c 0
 238 625 232 654 222 675 c 0
 212 696 197 709 178 713 c 1
 205 713 223 703 231 685 c 0
 240 667 244 646 244 625 c 1
 299 625 l 1
 299 683 315 713 346 713 c 0
 369 713 381 696 381 662 c 0
 381 651 375 638 365 623 c 0
 354 608 339 587 319 561 c 0
 289 519 268 481 255 449 c 0
 242 416 236 386 236 358 c 2
 236 0 l 1
 383 0 l 1
 602 635 l 2
 608 650 613 659 620 662 c 0
 626 664 633 666 641 666 c 0
 657 666 666 654 666 631 c 2
 666 0 l 1
 815 0 l 1
 815 653 l 2
 815 689 802 720 775 748 c 0
 749 775 717 788 680 788 c 0
 610 788 560 746 530 662 c 2
 385 252 l 1
 385 360 l 2
92 586 m 0
 92 609 97 628 105 643 c 0
 114 658 126 666 139 666 c 0
 153 666 164 658 173 643 c 0
 182 628 186 609 186 586 c 0
 186 563 182 544 173 529 c 0
 164 515 153 508 139 508 c 0
 126 508 114 515 105 529 c 0
 97 544 92 563 92 586 c 0
EndSplineSet
MinimumDistance: x36,-1 
EndChar
StartChar: uni0E12
Encoding: 178 3602
OldEncoding: 3602
Width: 1069
VWidth: 1000
Flags: W
HStem: 0 21G<141 291 811 967> 692 96<222 241 451 459> 752 20G<817 967>
VStem: 41 109<495 535> 141 150<0.0312733 27.8849> 203 51<421 443> 367 82<421 443> 383 74<149 183> 522 150<117 260 355 615> 817 150<301 772>
Fore
967 0 m 1
 967 772 l 1
 817 772 l 1
 817 301 l 1
 798 313 776 324 751 333 c 0
 725 342 699 350 672 356 c 1
 672 598 l 2
 672 655 654 701 617 736 c 0
 581 771 533 788 473 788 c 0
 416 788 372 769 342 731 c 1
 308 769 268 788 223 788 c 0
 188 788 160 780 139 764 c 0
 119 748 99 722 80 688 c 0
 65 661 55 632 49 601 c 0
 44 570 41 539 41 508 c 0
 41 453 52 391 74 322 c 0
 97 246 114 183 125 130 c 0
 136 77 141 34 141 0 c 1
 291 0 l 1
 291 34 295 66 304 96 c 0
 313 126 326 157 342 188 c 0
 382 255 409 305 425 339 c 0
 441 372 449 401 449 424 c 0
 449 462 439 496 419 524 c 0
 399 553 367 567 324 567 c 0
 288 567 259 554 237 527 c 0
 214 501 203 468 203 430 c 0
 203 403 211 376 227 350 c 0
 244 324 265 307 291 297 c 1
 250 240 l 1
 197 354 l 2
 182 386 170 415 162 441 c 0
 154 468 150 493 150 516 c 0
 150 561 156 600 168 633 c 0
 183 672 206 692 238 692 c 0
 279 692 303 662 311 602 c 1
 377 602 l 1
 382 662 407 692 451 692 c 0
 471 692 488 685 502 670 c 0
 515 655 522 631 522 600 c 2
 522 352 l 1
 483 341 450 320 423 289 c 0
 396 257 383 219 383 174 c 0
 383 51 436 -10 543 -10 c 0
 584 -10 615 1 638 23 c 0
 660 44 672 77 672 121 c 2
 672 260 l 1
 715 242 750 212 774 169 c 0
 799 126 811 70 811 0 c 1
 967 0 l 1
254 436 m 0
 254 459 259 479 270 494 c 0
 281 509 294 516 309 516 c 0
 324 516 338 509 349 494 c 0
 361 479 367 459 367 436 c 0
 367 413 361 394 349 379 c 0
 338 364 324 356 309 356 c 0
 294 356 281 364 270 379 c 0
 259 394 254 413 254 436 c 0
522 260 m 1
 522 125 l 2
 522 115 519 109 513 104 c 0
 507 100 500 98 494 98 c 0
 483 98 474 103 467 113 c 0
 460 122 457 140 457 166 c 0
 457 193 464 215 478 231 c 0
 493 248 507 257 522 260 c 1
EndSplineSet
MinimumDistance: x0,-1 
EndChar
StartChar: uni0E13
Encoding: 179 3603
OldEncoding: 3603
Width: 1191
VWidth: 1000
Flags: W
HStem: -12 61<268 303> 211 51<295 306> 690 98<346 381> 752 20G<844 993>
VStem: 106 150<119 141 254 405> 350 51<113 141> 555 150<291 533> 555 154<2.06258 37.3304> 844 149<113 261 357 772> 1061 72<163 181>
Fore
705 520 m 2
 705 612 672 681 606 727 c 0
 579 748 545 763 505 773 c 0
 465 783 421 788 373 788 c 0
 309 788 248 771 193 737 c 0
 126 699 82 644 61 573 c 1
 124 573 172 567 205 555 c 1
 173 540 149 520 132 494 c 0
 115 468 106 435 106 395 c 2
 106 139 l 2
 106 91 122 54 152 28 c 0
 182 1 221 -12 268 -12 c 0
 357 -12 401 32 401 121 c 0
 401 137 400 154 396 171 c 0
 393 188 387 203 379 217 c 0
 371 231 360 242 346 250 c 0
 332 258 316 262 297 262 c 0
 283 262 270 259 256 254 c 1
 256 422 l 2
 256 449 265 472 282 489 c 0
 299 507 322 520 350 528 c 1
 307 588 255 625 197 637 c 1
 243 672 302 690 373 690 c 0
 423 690 466 675 502 644 c 0
 537 613 555 572 555 520 c 2
 555 2 l 1
 709 2 l 1
 709 72 720 130 743 176 c 0
 754 197 769 214 786 228 c 0
 804 243 823 254 844 262 c 1
 844 123 l 2
 844 33 887 -12 975 -12 c 0
 1023 -12 1061 4 1090 36 c 0
 1118 68 1133 115 1133 176 c 0
 1133 221 1119 259 1093 289 c 0
 1066 319 1033 341 993 354 c 1
 993 772 l 1
 844 772 l 1
 844 358 l 1
 819 352 795 343 770 332 c 0
 745 321 724 307 705 291 c 1
 705 520 l 2
256 129 m 0
 256 152 260 172 269 187 c 0
 278 203 289 211 303 211 c 0
 317 211 328 203 337 187 c 0
 346 172 350 152 350 129 c 0
 350 106 346 87 337 72 c 0
 328 57 317 49 303 49 c 0
 289 49 278 57 269 72 c 0
 260 87 256 106 256 129 c 0
1061 168 m 0
 1061 143 1056 126 1047 115 c 0
 1037 104 1027 98 1016 98 c 0
 1001 98 993 106 993 121 c 2
 993 262 l 1
 1012 255 1028 243 1041 226 c 0
 1054 209 1061 190 1061 168 c 0
EndSplineSet
MinimumDistance: x33,-1 
EndChar
StartChar: uni0E14
Encoding: 180 3604
OldEncoding: 3604
Width: 780
VWidth: 1000
Flags: W
HStem: 0 21G<158 307 528 678> 690 98<342 378>
VStem: 41 131<488 518> 158 149<0.0312434 27.6689> 240 51<443 465> 399 82<443 465> 528 150<0 556>
Fore
678 0 m 1
 678 535 l 2
 678 616 645 681 580 727 c 0
 551 746 517 761 478 772 c 0
 439 783 399 788 358 788 c 0
 266 788 189 762 130 710 c 0
 71 657 41 584 41 489 c 0
 41 468 46 438 56 399 c 0
 67 361 81 313 100 256 c 0
 118 204 132 157 142 116 c 0
 153 74 158 35 158 0 c 1
 307 0 l 1
 307 30 310 61 316 94 c 0
 323 127 336 160 356 193 c 0
 399 258 429 310 447 349 c 0
 466 388 477 414 479 428 c 0
 481 433 481 444 481 459 c 0
 481 474 479 489 474 506 c 0
 469 522 462 537 453 550 c 0
 443 563 431 573 416 582 c 0
 401 590 383 594 362 594 c 0
 324 594 294 581 272 554 c 0
 251 527 240 495 240 457 c 0
 240 429 247 402 262 376 c 0
 277 349 298 332 326 326 c 1
 262 244 l 1
 213 352 l 2
 198 386 187 417 181 444 c 0
 175 472 172 496 172 516 c 0
 172 578 188 622 221 649 c 0
 254 677 299 690 356 690 c 0
 378 690 399 687 420 680 c 0
 440 673 459 663 475 650 c 0
 492 637 504 621 514 602 c 0
 524 583 528 560 528 535 c 2
 528 0 l 1
 678 0 l 1
291 461 m 0
 291 484 296 503 306 518 c 0
 316 533 329 541 344 541 c 0
 359 541 372 533 383 518 c 0
 394 503 399 484 399 461 c 0
 399 438 394 418 383 403 c 0
 372 388 359 381 344 381 c 0
 329 381 316 388 306 403 c 0
 296 418 291 438 291 461 c 0
EndSplineSet
MinimumDistance: x0,-1 
EndChar
StartChar: uni0E15
Encoding: 181 3605
OldEncoding: 3605
Width: 796
VWidth: 1000
Flags: W
HStem: 0 21G<164 313 545 694> 541 53<348 367> 692 96<249 269 477 502>
VStem: 41 125<504 529> 164 149<0.0312513 24.1907> 244 51<443 465> 403 82<443 465> 545 149<0 597>
Fore
694 0 m 1
 694 578 l 2
 694 639 677 689 643 729 c 0
 609 769 562 788 502 788 c 0
 446 788 403 769 373 731 c 1
 339 769 298 788 250 788 c 0
 217 788 186 781 156 766 c 0
 126 751 102 726 84 690 c 0
 70 663 60 635 52 606 c 0
 45 578 41 546 41 512 c 0
 41 487 44 463 50 438 c 0
 56 414 63 388 72 360 c 1
 72 362 l 1
 74 356 77 349 79 342 c 0
 81 335 83 328 86 322 c 2
 98 281 l 2
 117 216 133 162 145 117 c 0
 158 72 164 33 164 0 c 1
 313 0 l 1
 313 33 317 67 326 103 c 0
 334 140 346 169 362 193 c 0
 402 248 431 298 451 342 c 0
 470 386 481 414 483 428 c 0
 485 433 485 444 485 459 c 0
 485 474 483 489 478 506 c 0
 473 522 466 537 457 550 c 0
 447 563 435 573 420 582 c 0
 405 590 387 594 367 594 c 0
 330 594 300 581 278 554 c 0
 255 527 244 495 244 457 c 0
 244 429 251 402 266 376 c 0
 281 349 302 332 330 326 c 1
 268 246 l 1
 266 251 263 257 261 262 c 0
 259 268 257 274 254 281 c 0
 247 293 240 307 232 324 c 0
 225 340 218 354 213 367 c 0
 202 394 191 420 181 445 c 0
 171 471 166 494 166 516 c 0
 166 532 168 551 171 570 c 0
 174 590 180 609 187 628 c 0
 195 646 205 662 217 674 c 0
 229 686 244 692 262 692 c 0
 309 692 336 663 344 604 c 1
 406 604 l 1
 415 663 439 692 477 692 c 0
 496 692 512 683 525 665 c 0
 538 646 545 618 545 580 c 2
 545 0 l 1
 694 0 l 1
295 461 m 0
 295 484 300 503 310 518 c 0
 321 533 333 541 348 541 c 0
 363 541 376 533 387 518 c 0
 398 503 403 484 403 461 c 0
 403 438 398 418 387 403 c 0
 376 388 363 381 348 381 c 0
 333 381 321 388 310 403 c 0
 300 418 295 438 295 461 c 0
EndSplineSet
MinimumDistance: x0,-1 
EndChar
StartChar: uni0E16
Encoding: 182 3606
OldEncoding: 3606
Width: 798
VWidth: 1000
Flags: W
HStem: -12 71<272 309> 0 21G<547 696> 211 51<301 312> 690 98<342 388>
VStem: 109 149<127 149 254 405> 360 52<127 149> 547 149<0 533>
Fore
696 0 m 1
 696 520 l 2
 696 565 687 605 669 640 c 0
 650 675 625 704 594 727 c 0
 539 768 464 788 369 788 c 0
 337 788 307 785 278 777 c 0
 248 770 219 756 190 737 c 0
 158 717 129 694 104 668 c 0
 80 642 62 610 51 573 c 1
 80 573 106 572 130 568 c 0
 154 565 175 560 195 555 c 1
 137 524 109 470 109 395 c 2
 109 139 l 2
 109 91 123 54 152 28 c 0
 180 1 221 -12 272 -12 c 0
 365 -12 412 35 412 129 c 0
 412 166 402 197 382 223 c 0
 362 249 336 262 303 262 c 0
 295 262 287 261 280 260 c 0
 272 259 265 257 258 254 c 1
 258 422 l 2
 258 449 266 472 281 489 c 0
 296 507 317 520 344 528 c 1
 300 588 251 625 197 637 c 1
 243 672 300 690 369 690 c 0
 416 690 458 675 494 644 c 0
 529 613 547 572 547 520 c 2
 547 0 l 1
 696 0 l 1
258 135 m 0
 258 156 263 173 272 188 c 0
 282 203 294 211 309 211 c 0
 324 211 337 203 346 188 c 0
 356 173 360 156 360 135 c 0
 360 115 356 97 346 82 c 0
 337 67 324 59 309 59 c 0
 294 59 282 67 272 82 c 0
 263 97 258 115 258 135 c 0
EndSplineSet
MinimumDistance: x0,-1 
EndChar
StartChar: uni0E17
Encoding: 183 3607
OldEncoding: 3607
Width: 847
VWidth: 1000
Flags: W
HStem: 0 21G<182 332 596 745>
VStem: 31 51<627 662> 182 146<297 516 627 657> 596 149<0 641>
DStem: 428 641 496 571 328 297 332 0
Fore
328 635 m 2
 328 681 315 719 291 746 c 0
 266 774 228 788 176 788 c 0
 127 788 90 774 67 746 c 0
 43 719 31 684 31 643 c 0
 31 605 42 573 63 548 c 0
 85 523 112 510 143 510 c 0
 157 510 170 512 182 516 c 1
 182 0 l 1
 332 0 l 1
 496 571 l 2
 507 611 517 638 527 651 c 0
 538 665 549 672 561 672 c 0
 571 672 579 668 586 660 c 0
 593 653 596 642 596 629 c 2
 596 0 l 1
 745 0 l 1
 745 645 l 2
 745 687 733 722 707 749 c 0
 681 775 646 788 604 788 c 0
 588 788 571 787 554 783 c 0
 537 780 521 773 506 763 c 0
 491 753 477 738 463 719 c 0
 449 700 438 674 428 641 c 2
 328 297 l 1
 328 635 l 2
82 643 m 0
 82 666 86 686 95 702 c 0
 104 719 116 727 131 727 c 0
 146 727 158 719 168 702 c 0
 177 686 182 666 182 643 c 0
 182 620 177 600 168 585 c 0
 158 569 146 561 131 561 c 0
 116 561 104 569 95 585 c 0
 86 600 82 620 82 643 c 0
EndSplineSet
MinimumDistance: x16,-1 
EndChar
StartChar: uni0E18
Encoding: 184 3608
OldEncoding: 3608
Width: 737
VWidth: 1000
Flags: W
HStem: 0 72<80 129 279 386> 668 120<284 303> 758 20G<588 666>
VStem: 129 150<72 526> 424 149<111 403>
Fore
573 401 m 2
 573 441 561 475 537 504 c 0
 512 532 482 557 446 578 c 0
 419 594 387 606 349 612 c 0
 312 619 273 623 233 623 c 2
 199 623 l 1
 188 621 l 1
 209 652 245 668 297 668 c 0
 315 668 346 660 391 645 c 0
 440 630 476 623 498 623 c 0
 580 623 636 674 666 778 c 1
 588 778 l 1
 570 740 546 721 516 721 c 1
 416 764 l 2
 379 780 341 788 301 788 c 0
 272 788 244 782 217 769 c 0
 190 756 166 739 144 717 c 0
 123 695 105 669 90 640 c 0
 75 611 66 580 61 547 c 1
 129 547 l 1
 129 72 l 1
 80 72 l 1
 80 0 l 1
 471 0 l 2
 539 0 573 42 573 125 c 2
 573 401 l 2
424 125 m 2
 424 107 419 94 410 85 c 0
 400 76 388 72 373 72 c 2
 279 72 l 1
 279 526 l 1
 291 524 l 2
 329 516 361 501 386 479 c 0
 411 457 424 431 424 399 c 2
 424 125 l 2
EndSplineSet
MinimumDistance: x0,-1 x20,22 x20,21 
EndChar
StartChar: uni0E19
Encoding: 185 3609
OldEncoding: 3609
Width: 903
VWidth: 1000
Flags: W
HStem: 0 21G<186 334> 754 20G<537 686>
VStem: 41 45<629 647> 186 150<242 516 629 647> 537 149<113 256 353 774> 748 83<149 177>
Fore
831 174 m 0
 831 216 817 254 788 286 c 0
 760 318 726 339 686 350 c 1
 686 774 l 1
 537 774 l 1
 537 354 l 1
 453 339 386 302 336 242 c 1
 336 635 l 2
 336 681 323 719 297 746 c 0
 271 774 232 788 180 788 c 0
 131 788 96 774 74 746 c 0
 52 719 41 684 41 643 c 0
 41 605 51 573 71 548 c 0
 90 523 116 510 147 510 c 0
 161 510 174 512 186 516 c 1
 186 0 l 1
 334 0 l 1
 356 72 384 130 419 173 c 0
 454 216 493 244 537 258 c 1
 537 121 l 2
 537 107 539 93 545 78 c 0
 550 63 558 49 569 36 c 0
 580 23 594 12 609 3 c 0
 625 -6 643 -10 664 -10 c 0
 717 -10 758 5 787 36 c 0
 817 67 831 113 831 174 c 0
86 643 m 0
 86 666 90 686 99 702 c 0
 108 719 120 727 135 727 c 0
 150 727 162 719 172 702 c 0
 182 686 186 666 186 643 c 0
 186 620 182 600 172 585 c 0
 162 569 150 561 135 561 c 0
 120 561 108 569 99 585 c 0
 90 600 86 620 86 643 c 0
748 164 m 0
 748 141 743 124 735 113 c 0
 727 102 717 96 707 96 c 0
 693 96 686 106 686 125 c 2
 686 256 l 1
 704 248 719 236 730 220 c 0
 742 204 748 186 748 164 c 0
EndSplineSet
MinimumDistance: x0,-1 
EndChar
StartChar: uni0E1A
Encoding: 186 3610
OldEncoding: 3610
Width: 825
VWidth: 1000
Flags: W
HStem: 0 72<113 182 331 514> 752 20G<573 723>
VStem: 31 51<633 657> 182 150<72 516 633 657> 573 150<113.206 772>
Fore
332 635 m 2
 332 681 319 719 294 746 c 0
 269 774 230 788 178 788 c 0
 129 788 92 774 68 746 c 0
 43 719 31 684 31 643 c 0
 31 605 42 573 63 548 c 0
 85 523 112 510 143 510 c 0
 157 510 170 512 182 516 c 1
 182 72 l 1
 113 72 l 1
 113 0 l 1
 612 0 l 2
 648 0 675 10 694 31 c 0
 713 51 723 83 723 125 c 2
 723 772 l 1
 573 772 l 1
 573 125 l 2
 573 107 567 94 553 85 c 0
 539 76 526 72 512 72 c 2
 332 72 l 1
 332 635 l 2
82 643 m 0
 82 666 86 686 95 702 c 0
 104 719 116 727 131 727 c 0
 146 727 158 719 168 702 c 0
 177 686 182 666 182 643 c 0
 182 620 177 600 168 585 c 0
 158 569 146 561 131 561 c 0
 116 561 104 569 95 585 c 0
 86 600 82 620 82 643 c 0
EndSplineSet
MinimumDistance: x13,-1 x8,10 x8,9 
EndChar
StartChar: uni0E1B
Encoding: 187 3611
OldEncoding: 3611
Width: 823
VWidth: 1000
Flags: W
HStem: 0 72<113 182 331 528>
VStem: 31 51<633 657> 182 150<72 516 633 657> 571 150<112.129 1110>
Fore
332 635 m 2
 332 681 319 719 294 746 c 0
 269 774 230 788 178 788 c 0
 129 788 92 774 68 746 c 0
 43 719 31 684 31 643 c 0
 31 605 42 573 63 548 c 0
 85 523 112 510 143 510 c 0
 157 510 170 512 182 516 c 1
 182 72 l 1
 113 72 l 1
 113 0 l 1
 604 0 l 2
 640 0 668 10 689 31 c 0
 710 51 721 83 721 125 c 2
 721 1110 l 1
 571 1110 l 1
 571 125 l 2
 571 107 566 94 555 85 c 0
 544 76 532 72 518 72 c 2
 332 72 l 1
 332 635 l 2
82 643 m 0
 82 666 86 686 95 702 c 0
 104 719 116 727 131 727 c 0
 146 727 158 719 168 702 c 0
 177 686 182 666 182 643 c 0
 182 620 177 600 168 585 c 0
 158 569 146 561 131 561 c 0
 116 561 104 569 95 585 c 0
 86 600 82 620 82 643 c 0
EndSplineSet
MinimumDistance: x13,-1 x8,10 x8,9 
EndChar
StartChar: uni0E1C
Encoding: 188 3612
OldEncoding: 3612
Width: 817
VWidth: 1000
Flags: W
HStem: 0 21G<61 213 565 715> 510 51<253 264> 752 20G<565 715>
VStem: 61 150<184 516 633 645> 315 52<633 657> 565 150<193 772>
DStem: 385 315 385 494 565 0 565 193 385 494 385 315 211 184 213 0 385 315 385 494 565 0 565 193 385 494 385 315 211 184 213 0 385 315 385 494 565 0 565 193 385 494 385 315 211 184 213 0 385 315 385 494 565 0 565 193 385 494 385 315 211 184 213 0 385 315 385 494 565 0 565 193 385 494 385 315 211 184 213 0 385 315 385 494 565 0 565 193 385 494 385 315 211 184 213 0 385 315 385 494 565 0 565 193 385 494 385 315 211 184 213 0 385 315 385 494 565 0 565 193 385 494 385 315 211 184 213 0 385 315 385 494 565 0 565 193 385 494 385 315 211 184 213 0
Fore
715 0 m 1
 715 772 l 1
 565 772 l 1
 565 193 l 1
 385 494 l 1
 211 184 l 1
 211 516 l 1
 226 512 240 510 254 510 c 0
 285 510 312 523 334 548 c 0
 356 573 367 604 367 641 c 0
 367 682 355 717 331 745 c 0
 307 774 270 788 221 788 c 0
 169 788 130 774 102 745 c 0
 75 717 61 680 61 635 c 2
 61 0 l 1
 213 0 l 1
 385 315 l 1
 565 0 l 1
 715 0 l 1
211 643 m 0
 211 666 216 686 225 702 c 0
 235 719 247 727 262 727 c 0
 277 727 290 719 300 702 c 0
 310 686 315 666 315 643 c 0
 315 620 310 600 300 585 c 0
 290 569 277 561 262 561 c 0
 247 561 235 569 225 585 c 0
 216 600 211 620 211 643 c 0
EndSplineSet
MinimumDistance: x0,-1 
EndChar
StartChar: uni0E1D
Encoding: 189 3613
OldEncoding: 3613
Width: 817
VWidth: 1000
Flags: W
HStem: 0 21G<61 213 565 715> 510 51<253 264>
VStem: 61 150<184 516 633 645> 315 52<633 657> 565 150<193 1110>
DStem: 385 315 385 494 565 0 565 193 385 494 385 315 211 184 213 0 385 315 385 494 565 0 565 193 385 494 385 315 211 184 213 0 385 315 385 494 565 0 565 193 385 494 385 315 211 184 213 0 385 315 385 494 565 0 565 193 385 494 385 315 211 184 213 0 385 315 385 494 565 0 565 193 385 494 385 315 211 184 213 0 385 315 385 494 565 0 565 193 385 494 385 315 211 184 213 0 385 315 385 494 565 0 565 193 385 494 385 315 211 184 213 0 385 315 385 494 565 0 565 193 385 494 385 315 211 184 213 0 385 315 385 494 565 0 565 193 385 494 385 315 211 184 213 0
Fore
715 0 m 1
 715 1110 l 1
 565 1110 l 1
 565 193 l 1
 385 494 l 1
 211 184 l 1
 211 516 l 1
 226 512 240 510 254 510 c 0
 285 510 312 523 334 548 c 0
 356 573 367 604 367 641 c 0
 367 682 355 717 331 745 c 0
 307 774 270 788 221 788 c 0
 169 788 130 774 102 745 c 0
 75 717 61 680 61 635 c 2
 61 0 l 1
 213 0 l 1
 385 315 l 1
 565 0 l 1
 715 0 l 1
211 643 m 0
 211 666 216 686 225 702 c 0
 235 719 247 727 262 727 c 0
 277 727 290 719 300 702 c 0
 310 686 315 666 315 643 c 0
 315 620 310 600 300 585 c 0
 290 569 277 561 262 561 c 0
 247 561 235 569 225 585 c 0
 216 600 211 620 211 643 c 0
EndSplineSet
MinimumDistance: x0,-1 
EndChar
StartChar: uni0E1E
Encoding: 190 3614
OldEncoding: 3614
Width: 899
VWidth: 1000
Flags: W
HStem: 0 21G<182 342 633 797> 752 20G<647 797>
VStem: 31 51<633 657> 182 150<287 516 633 657> 647 150<287 772>
DStem: 489 465 489 788 633 0 647 287 489 788 489 465 332 287 342 0 489 465 489 788 633 0 647 287 489 788 489 465 332 287 342 0 489 465 489 788 633 0 647 287 489 788 489 465 332 287 342 0 489 465 489 788 633 0 647 287 489 788 489 465 332 287 342 0 489 465 489 788 633 0 647 287 489 788 489 465 332 287 342 0 489 465 489 788 633 0 647 287 489 788 489 465 332 287 342 0 489 465 489 788 633 0 647 287 489 788 489 465 332 287 342 0 489 465 489 788 633 0 647 287 489 788 489 465 332 287 342 0 489 465 489 788 633 0 647 287 489 788 489 465 332 287 342 0 489 465 489 788 633 0 647 287 489 788 489 465 332 287 342 0 489 465 489 788 633 0 647 287 489 788 489 465 332 287 342 0 489 465 489 788 633 0 647 287 489 788 489 465 332 287 342 0
Fore
332 635 m 2
 332 681 319 719 293 746 c 0
 267 774 228 788 176 788 c 0
 127 788 90 774 67 746 c 0
 43 719 31 684 31 643 c 0
 31 605 42 573 63 548 c 0
 85 523 112 510 143 510 c 0
 157 510 170 512 182 516 c 1
 182 0 l 1
 342 0 l 1
 489 465 l 1
 633 0 l 1
 797 0 l 1
 797 772 l 1
 647 772 l 1
 647 287 l 1
 489 788 l 1
 332 287 l 1
 332 635 l 2
82 643 m 0
 82 666 86 686 95 702 c 0
 104 719 116 727 131 727 c 0
 146 727 158 719 168 702 c 0
 177 686 182 666 182 643 c 0
 182 620 177 600 168 585 c 0
 158 569 146 561 131 561 c 0
 116 561 104 569 95 585 c 0
 86 600 82 620 82 643 c 0
EndSplineSet
MinimumDistance: x12,-1 
EndChar
StartChar: uni0E1F
Encoding: 191 3615
OldEncoding: 3615
Width: 899
VWidth: 1000
Flags: W
HStem: 0 21G<182 342 633 797>
VStem: 31 51<633 657> 182 150<287 516 633 657> 647 150<287 1110>
DStem: 489 465 489 788 633 0 647 287 489 788 489 465 332 287 342 0 489 465 489 788 633 0 647 287 489 788 489 465 332 287 342 0 489 465 489 788 633 0 647 287 489 788 489 465 332 287 342 0 489 465 489 788 633 0 647 287 489 788 489 465 332 287 342 0 489 465 489 788 633 0 647 287 489 788 489 465 332 287 342 0 489 465 489 788 633 0 647 287 489 788 489 465 332 287 342 0 489 465 489 788 633 0 647 287 489 788 489 465 332 287 342 0 489 465 489 788 633 0 647 287 489 788 489 465 332 287 342 0 489 465 489 788 633 0 647 287 489 788 489 465 332 287 342 0 489 465 489 788 633 0 647 287 489 788 489 465 332 287 342 0 489 465 489 788 633 0 647 287 489 788 489 465 332 287 342 0 489 465 489 788 633 0 647 287 489 788 489 465 332 287 342 0
Fore
332 635 m 2
 332 681 319 719 293 746 c 0
 267 774 228 788 176 788 c 0
 127 788 90 774 67 746 c 0
 43 719 31 684 31 643 c 0
 31 605 42 573 63 548 c 0
 85 523 112 510 143 510 c 0
 157 510 170 512 182 516 c 1
 182 0 l 1
 342 0 l 1
 489 465 l 1
 633 0 l 1
 797 0 l 1
 797 1110 l 1
 647 1110 l 1
 647 287 l 1
 489 788 l 1
 332 287 l 1
 332 635 l 2
82 643 m 0
 82 666 86 686 95 702 c 0
 104 719 116 727 131 727 c 0
 146 727 158 719 168 702 c 0
 177 686 182 666 182 643 c 0
 182 620 177 600 168 585 c 0
 158 569 146 561 131 561 c 0
 116 561 104 569 95 585 c 0
 86 600 82 620 82 643 c 0
EndSplineSet
MinimumDistance: x12,-1 
EndChar
StartChar: uni0E20
Encoding: 192 3616
OldEncoding: 3616
Width: 851
VWidth: 1000
Flags: W
HStem: 0 21G<600 750> 688 100<424 458>
VStem: 41 51<115 133> 188 150<130 154 256 405> 600 150<0 533>
Fore
750 518 m 2
 750 610 715 681 645 731 c 0
 616 752 588 766 559 775 c 0
 530 784 494 788 449 788 c 0
 384 788 324 771 268 737 c 0
 236 717 207 693 182 667 c 0
 158 640 139 608 127 571 c 1
 157 571 184 570 208 566 c 0
 232 563 253 558 272 551 c 1
 216 518 188 465 188 391 c 2
 188 256 l 1
 175 263 163 266 154 266 c 0
 118 266 90 252 71 223 c 0
 51 195 41 162 41 125 c 0
 41 79 54 44 79 22 c 0
 104 -1 138 -12 180 -12 c 0
 208 -12 231 -7 251 4 c 0
 271 15 287 29 300 45 c 0
 313 61 323 79 329 98 c 0
 335 117 338 136 338 154 c 2
 338 418 l 2
 338 444 347 466 367 484 c 0
 386 503 409 516 436 524 c 1
 413 554 387 579 358 597 c 0
 330 615 302 628 274 635 c 1
 321 670 378 688 446 688 c 0
 496 688 534 673 560 642 c 0
 587 611 600 570 600 518 c 2
 600 0 l 1
 750 0 l 1
 750 518 l 2
92 131 m 0
 92 154 97 174 105 190 c 0
 114 207 126 215 139 215 c 0
 153 215 165 207 174 190 c 0
 184 174 188 154 188 131 c 0
 188 108 184 88 174 73 c 0
 165 57 153 49 139 49 c 0
 126 49 114 57 105 73 c 0
 97 88 92 108 92 131 c 0
EndSplineSet
MinimumDistance: x0,-1 
EndChar
StartChar: uni0E21
Encoding: 193 3617
OldEncoding: 3617
Width: 827
VWidth: 1000
Flags: W
HStem: 0 21G<573 725> 752 20G<575 725>
VStem: 61 52<627 661> 76 71<144 175> 213 149<131 258 353 516 627 645> 575 150<236 772>
Fore
362 635 m 2
 362 681 350 719 325 746 c 0
 299 774 261 788 209 788 c 0
 160 788 123 774 98 746 c 0
 74 719 61 684 61 643 c 0
 61 605 72 573 94 548 c 0
 116 523 143 510 174 510 c 0
 188 510 201 512 213 516 c 1
 213 350 l 1
 167 335 132 311 110 279 c 0
 87 246 76 206 76 160 c 0
 76 112 90 71 119 38 c 0
 147 4 186 -12 233 -12 c 0
 274 -12 306 -1 329 22 c 0
 351 44 362 77 362 121 c 2
 362 260 l 1
 406 245 447 216 484 173 c 0
 522 130 552 72 573 0 c 1
 725 0 l 1
 725 772 l 1
 575 772 l 1
 575 236 l 1
 548 268 516 295 478 314 c 0
 441 334 402 347 362 354 c 1
 362 635 l 2
113 643 m 0
 113 666 117 686 126 702 c 0
 135 719 147 727 162 727 c 0
 177 727 189 719 199 702 c 0
 208 686 213 666 213 643 c 0
 213 620 208 600 199 585 c 0
 189 569 177 561 162 561 c 0
 147 561 135 569 126 585 c 0
 117 600 113 620 113 643 c 0
213 145 m 2
 213 113 202 96 180 96 c 0
 168 96 159 103 155 117 c 0
 150 130 147 145 147 160 c 0
 147 180 153 200 165 219 c 0
 176 238 193 251 213 258 c 1
 213 145 l 2
EndSplineSet
MinimumDistance: x18,-1 
EndChar
StartChar: uni0E22
Encoding: 194 3618
OldEncoding: 3618
Width: 745
VWidth: 1000
Flags: W
HStem: -12 78<342 377> 512 51<265 281> 752 20G<494 643>
VStem: 82 149<163 277 627 647> 326 51<627 661> 494 149<163 772>
Fore
643 168 m 2
 643 772 l 1
 494 772 l 1
 494 168 l 2
 494 137 479 112 451 93 c 0
 422 75 391 66 358 66 c 0
 327 66 298 75 271 93 c 0
 245 112 231 137 231 168 c 2
 231 260 l 2
 231 335 265 377 332 385 c 0
 343 388 351 393 355 400 c 0
 360 408 362 415 362 422 c 0
 358 441 345 451 322 451 c 0
 302 451 284 457 267 469 c 0
 250 481 238 497 231 516 c 1
 245 513 257 512 266 512 c 0
 298 512 324 524 345 549 c 0
 366 573 377 605 377 643 c 0
 377 684 366 719 344 746 c 0
 322 774 287 788 238 788 c 0
 187 788 148 774 122 746 c 0
 95 719 82 681 82 635 c 2
 82 559 l 2
 82 525 89 496 104 471 c 0
 119 446 144 427 178 412 c 1
 147 395 123 374 106 349 c 0
 90 324 82 293 82 256 c 2
 82 168 l 2
 82 109 116 61 184 25 c 0
 208 14 235 5 266 -2 c 0
 298 -9 329 -12 360 -12 c 0
 392 -12 422 -9 451 -2 c 0
 479 5 507 14 532 25 c 0
 568 44 595 65 614 88 c 0
 634 111 643 138 643 168 c 2
231 645 m 0
 231 668 236 688 245 703 c 0
 254 719 265 727 279 727 c 0
 292 727 303 719 312 703 c 0
 321 688 326 668 326 645 c 0
 326 622 321 602 312 587 c 0
 303 571 292 563 279 563 c 0
 265 563 254 571 245 587 c 0
 236 602 231 622 231 645 c 0
EndSplineSet
MinimumDistance: x0,-1 
EndChar
StartChar: uni0E23
Encoding: 195 3619
OldEncoding: 3619
Width: 681
VWidth: 1000
Flags: W
HStem: 211 51<274 287> 668 120<226 249> 760 20G<522 600>
VStem: 180 51<115 141> 328 149<123 141 256 405>
Fore
287 262 m 0
 254 262 228 248 209 221 c 0
 190 194 180 162 180 125 c 0
 180 84 191 51 214 26 c 0
 237 0 272 -12 319 -12 c 0
 371 -12 411 1 437 28 c 0
 464 54 477 91 477 139 c 2
 477 401 l 2
 477 479 443 538 375 578 c 0
 347 593 316 604 281 611 c 0
 245 619 208 623 168 623 c 2
 145 623 l 1
 135 621 l 1
 156 652 193 668 246 668 c 0
 255 668 266 666 276 663 c 0
 287 659 304 654 326 647 c 0
 373 631 409 623 432 623 c 0
 514 623 570 675 600 780 c 1
 522 780 l 1
 503 741 479 721 451 721 c 1
 350 764 l 2
 331 773 314 780 298 783 c 0
 282 787 265 788 246 788 c 0
 217 788 190 782 164 768 c 0
 138 754 115 736 96 713 c 0
 77 689 61 663 47 632 c 0
 33 601 25 569 20 537 c 1
 70 537 110 536 142 535 c 0
 174 533 203 529 227 522 c 0
 294 500 328 459 328 399 c 2
 328 256 l 1
 315 260 302 262 287 262 c 0
231 129 m 0
 231 152 236 172 245 187 c 0
 254 203 265 211 279 211 c 0
 292 211 304 203 313 187 c 0
 323 172 328 152 328 129 c 0
 328 106 323 87 313 72 c 0
 304 57 292 49 279 49 c 0
 265 49 254 57 245 72 c 0
 236 87 231 106 231 129 c 0
EndSplineSet
MinimumDistance: x6,-1 
EndChar
StartChar: uni0E24
Encoding: 196 3620
OldEncoding: 3620
Width: 808
VWidth: 1000
Flags: W
HStem: -317 21G<557 707> -12 71<283 319> 211 51<311 322> 690 98<352 398>
VStem: 119 149<127 148 254 404> 371 51<127 148> 557 150<-317 532>
Fore
707 -317 m 1
 707 520 l 2
 707 565 697 605 679 640 c 0
 660 675 636 704 604 727 c 0
 550 768 474 788 379 788 c 0
 347 788 317 785 288 777 c 0
 258 770 229 756 201 737 c 0
 168 717 139 694 115 668 c 0
 90 642 72 610 61 573 c 1
 90 573 116 572 140 568 c 0
 164 565 186 560 205 555 c 1
 147 524 119 470 119 395 c 2
 119 139 l 2
 119 91 133 54 162 28 c 0
 190 1 231 -12 283 -12 c 0
 375 -12 422 35 422 129 c 0
 422 166 412 197 392 223 c 0
 372 249 346 262 313 262 c 0
 305 262 297 261 290 260 c 0
 282 259 275 257 268 254 c 1
 268 422 l 2
 268 449 276 472 291 489 c 0
 306 507 327 520 354 528 c 1
 311 588 261 625 207 637 c 1
 253 672 311 690 379 690 c 0
 427 690 468 675 504 644 c 0
 539 613 557 572 557 520 c 2
 557 -317 l 1
 707 -317 l 1
268 135 m 0
 268 156 273 173 283 188 c 0
 292 203 304 211 319 211 c 0
 335 211 347 203 356 188 c 0
 366 173 371 156 371 135 c 0
 371 115 366 97 356 82 c 0
 347 67 335 59 319 59 c 0
 304 59 292 67 283 82 c 0
 273 97 268 115 268 135 c 0
EndSplineSet
MinimumDistance: x0,-1 
EndChar
StartChar: uni0E25
Encoding: 197 3621
OldEncoding: 3621
Width: 780
VWidth: 1000
Flags: W
HStem: 0 21G<528 678> 215 51<310 324> 463 92<345 371> 688 100<344 387>
VStem: 125 149<127 149 256 356> 371 51<115 145> 528 150<0 313 485 557>
Fore
678 0 m 1
 678 541 l 2
 678 584 669 622 652 653 c 0
 635 685 611 711 580 733 c 0
 554 752 523 766 487 775 c 0
 452 784 412 788 369 788 c 0
 239 788 143 720 82 584 c 1
 139 561 l 1
 199 646 274 688 365 688 c 0
 416 688 457 676 485 651 c 0
 514 627 528 588 528 537 c 2
 528 485 l 1
 504 509 476 526 445 538 c 0
 415 549 382 555 346 555 c 0
 281 555 227 537 186 500 c 0
 145 463 125 411 125 344 c 2
 125 143 l 2
 125 96 138 58 164 30 c 0
 190 2 229 -12 281 -12 c 0
 375 -12 422 35 422 129 c 0
 422 162 412 193 392 222 c 0
 372 252 345 266 311 266 c 0
 298 266 285 263 274 256 c 1
 274 354 l 2
 274 427 306 463 369 463 c 0
 408 463 442 450 470 425 c 0
 498 400 517 362 528 313 c 1
 528 0 l 1
 678 0 l 1
274 131 m 0
 274 154 279 174 288 190 c 0
 297 207 308 215 322 215 c 0
 335 215 347 207 356 190 c 0
 366 174 371 154 371 131 c 0
 371 108 366 88 356 73 c 0
 347 57 335 49 322 49 c 0
 308 49 297 57 288 73 c 0
 279 88 274 108 274 131 c 0
EndSplineSet
MinimumDistance: x0,-1 
EndChar
StartChar: uni0E26
Encoding: 198 3622
OldEncoding: 3622
Width: 858
VWidth: 1000
Flags: W
HStem: -317 21G<606 756> 688 100<440 474>
VStem: 41 51<114 133> 188 150<130 154 256 404> 606 150<-317 532>
Fore
756 518 m 2
 756 610 721 681 651 731 c 0
 623 752 594 766 565 775 c 0
 537 784 500 788 455 788 c 0
 390 788 330 771 274 737 c 0
 242 717 213 693 188 667 c 0
 164 640 145 608 133 571 c 1
 163 571 190 570 214 566 c 0
 238 563 259 558 279 551 c 1
 251 535 229 513 213 487 c 0
 197 461 188 429 188 391 c 2
 188 256 l 1
 175 263 163 266 154 266 c 0
 118 266 90 252 71 223 c 0
 51 195 41 162 41 125 c 0
 41 79 53 44 78 22 c 0
 102 -1 136 -12 178 -12 c 0
 205 -12 229 -7 250 4 c 0
 270 15 287 29 300 45 c 0
 313 61 323 79 329 98 c 0
 335 117 338 136 338 154 c 2
 338 418 l 2
 338 444 349 466 370 484 c 0
 391 503 415 516 442 524 c 1
 419 554 393 579 365 597 c 0
 336 615 308 628 281 635 c 1
 327 670 384 688 453 688 c 0
 502 688 540 673 566 642 c 0
 593 611 606 570 606 518 c 2
 606 -317 l 1
 756 -317 l 1
 756 518 l 2
92 131 m 0
 92 154 97 174 105 190 c 0
 114 207 126 215 139 215 c 0
 153 215 165 207 174 190 c 0
 184 174 188 154 188 131 c 0
 188 108 184 88 174 73 c 0
 165 57 153 49 139 49 c 0
 126 49 114 57 105 73 c 0
 97 88 92 108 92 131 c 0
EndSplineSet
MinimumDistance: x0,-1 
EndChar
StartChar: uni0E27
Encoding: 199 3623
OldEncoding: 3623
Width: 661
VWidth: 1000
Flags: W
HStem: 211 51<358 371> 690 98<245 285>
VStem: 264 51<115 141> 410 149<123 141 252 563>
Fore
369 262 m 0
 339 262 314 249 294 222 c 0
 274 196 264 163 264 125 c 0
 264 84 275 51 297 26 c 0
 319 0 354 -12 401 -12 c 0
 453 -12 493 1 519 28 c 0
 546 54 559 91 559 139 c 2
 559 565 l 2
 559 635 530 690 471 731 c 0
 444 750 414 765 381 774 c 0
 348 784 316 788 285 788 c 0
 158 788 63 724 0 596 c 1
 47 561 l 1
 103 647 169 690 246 690 c 0
 289 690 328 677 360 650 c 0
 393 624 410 588 410 545 c 2
 410 252 l 1
 404 255 398 257 390 259 c 0
 383 261 375 262 369 262 c 0
315 129 m 0
 315 152 320 172 329 187 c 0
 338 203 349 211 362 211 c 0
 376 211 387 203 396 187 c 0
 405 172 410 152 410 129 c 0
 410 106 405 87 396 72 c 0
 387 57 376 49 362 49 c 0
 349 49 338 57 329 72 c 0
 320 87 315 106 315 129 c 0
EndSplineSet
MinimumDistance: x6,-1 
EndChar
StartChar: uni0E28
Encoding: 200 3624
OldEncoding: 3624
Width: 819
VWidth: 1000
Flags: W
HStem: 0 21G<156 305 530 668> 301 51<351 367> 514 61<343 365> 688 100<342 394>
VStem: 41 121<495 535> 162 151<78 113> 416 51<430 449> 530 138<0 575>
Fore
717 831 m 1
 553 831 l 1
 553 815 553 801 552 788 c 0
 551 776 549 765 545 754 c 1
 496 777 439 788 375 788 c 0
 327 788 283 783 242 772 c 0
 201 761 167 745 139 723 c 0
 74 677 41 605 41 508 c 0
 41 490 45 467 54 437 c 0
 63 408 79 370 100 324 c 0
 119 281 134 241 145 203 c 0
 156 165 162 130 162 98 c 2
 162 78 l 1
 156 0 l 1
 305 0 l 1
 309 15 312 31 312 49 c 0
 313 67 313 84 313 100 c 0
 313 115 312 138 309 169 c 0
 307 200 305 225 305 244 c 0
 305 257 306 269 307 279 c 0
 309 288 311 299 313 311 c 1
 324 304 337 301 352 301 c 0
 370 301 386 305 399 313 c 0
 413 322 425 332 435 345 c 0
 445 358 453 372 459 388 c 0
 464 404 467 420 467 436 c 0
 467 474 456 507 434 535 c 0
 412 562 382 575 344 575 c 0
 306 575 273 560 246 529 c 0
 218 499 201 459 195 412 c 1
 184 428 175 444 170 460 c 0
 165 475 162 493 162 512 c 0
 162 569 180 613 215 643 c 0
 251 673 303 688 373 688 c 0
 412 688 449 678 481 656 c 0
 514 635 530 602 530 557 c 2
 530 0 l 1
 668 0 l 1
 668 557 l 2
 668 595 661 628 647 655 c 1
 659 677 671 702 683 730 c 0
 695 758 706 792 717 831 c 1
313 432 m 0
 313 455 318 475 328 490 c 0
 337 506 350 514 365 514 c 0
 380 514 392 506 401 490 c 0
 411 475 416 455 416 432 c 0
 416 409 411 390 401 375 c 0
 392 360 380 352 365 352 c 0
 350 352 337 360 328 375 c 0
 318 390 313 409 313 432 c 0
EndSplineSet
MinimumDistance: x37,-1 
EndChar
StartChar: uni0E29
Encoding: 201 3625
OldEncoding: 3625
Width: 983
VWidth: 1000
Flags: W
HStem: 0 72<111 182 331 578> 285 75<558 578> 559 51<490 498> 750 20G<616 766>
VStem: 31 51<633 657> 182 150<72 516 633 657> 356 93<476 496> 545 51<479 496> 616 150<111 285 598 769> 770 111<600.564 609.875>
Fore
332 635 m 2
 332 681 319 719 294 746 c 0
 269 774 230 788 178 788 c 0
 129 788 92 774 68 746 c 0
 43 719 31 684 31 643 c 0
 31 605 42 573 63 548 c 0
 85 523 112 510 143 510 c 0
 157 510 170 512 182 516 c 1
 182 72 l 1
 111 72 l 1
 111 0 l 1
 674 0 l 2
 701 0 726 14 748 43 c 0
 757 57 763 70 764 84 c 0
 765 98 766 111 766 125 c 2
 766 342 l 1
 842 410 881 500 881 610 c 1
 770 610 l 1
 770 602 769 598 766 598 c 1
 766 770 l 1
 616 770 l 1
 616 367 l 1
 600 362 585 360 571 360 c 0
 552 360 535 363 520 369 c 1
 543 375 562 390 575 413 c 0
 589 435 596 460 596 487 c 0
 596 519 587 547 568 572 c 0
 550 598 524 610 492 610 c 0
 401 610 356 566 356 477 c 0
 356 451 362 427 373 403 c 0
 384 380 398 360 416 342 c 0
 433 324 454 310 477 300 c 0
 500 290 524 285 549 285 c 2
 616 285 l 1
 616 125 l 2
 616 89 601 72 569 72 c 2
 332 72 l 1
 332 635 l 2
82 643 m 0
 82 666 86 686 95 702 c 0
 104 719 116 727 131 727 c 0
 146 727 158 719 168 702 c 0
 177 686 182 666 182 643 c 0
 182 620 177 600 168 585 c 0
 158 569 146 561 131 561 c 0
 116 561 104 569 95 585 c 0
 86 600 82 620 82 643 c 0
449 494 m 0
 449 513 453 528 462 541 c 0
 471 553 482 559 496 559 c 0
 509 559 521 553 530 541 c 0
 540 528 545 513 545 494 c 0
 545 474 540 459 530 446 c 0
 521 434 509 428 496 428 c 0
 482 428 471 434 462 446 c 0
 453 459 449 474 449 494 c 0
EndSplineSet
MinimumDistance: x16,-1 x8,10 x8,9 
EndChar
StartChar: uni0E2A
Encoding: 202 3626
OldEncoding: 3626
Width: 815
VWidth: 1000
Flags: W
HStem: 0 21G<508 657> 215 51<292 303> 463 92<325 350> 688 100<324 366>
VStem: 104 150<127 149 256 356> 350 51<115 145> 508 149<0 313 485 557>
Fore
641 641 m 1
 656 664 669 692 680 723 c 0
 691 754 702 790 713 829 c 1
 539 829 l 1
 537 814 536 800 535 786 c 0
 533 773 531 760 528 750 c 1
 481 776 421 788 348 788 c 0
 218 788 123 720 61 584 c 1
 119 561 l 1
 179 646 254 688 344 688 c 0
 396 688 436 676 465 651 c 0
 494 627 508 588 508 537 c 2
 508 485 l 1
 483 509 456 526 425 538 c 0
 394 549 361 555 326 555 c 0
 260 555 207 537 166 500 c 0
 125 463 104 411 104 344 c 2
 104 143 l 2
 104 96 118 58 144 30 c 0
 171 2 210 -12 262 -12 c 0
 355 -12 401 35 401 129 c 0
 401 162 392 193 372 222 c 0
 352 252 325 266 291 266 c 0
 277 266 265 263 254 256 c 1
 254 354 l 2
 254 427 285 463 348 463 c 0
 388 463 422 450 450 425 c 0
 478 400 497 362 508 313 c 1
 508 0 l 1
 657 0 l 1
 657 541 l 2
 657 579 651 612 639 641 c 1
 641 641 l 1
254 131 m 0
 254 154 258 174 267 190 c 0
 276 207 287 215 301 215 c 0
 315 215 326 207 336 190 c 0
 345 174 350 154 350 131 c 0
 350 108 345 88 336 73 c 0
 326 57 315 49 301 49 c 0
 287 49 276 57 267 73 c 0
 258 88 254 108 254 131 c 0
EndSplineSet
MinimumDistance: x29,-1 
EndChar
StartChar: uni0E2B
Encoding: 203 3627
OldEncoding: 3627
Width: 876
VWidth: 1000
Flags: W
HStem: 0 21G<182 332 616 766> 717 71<617 637>
VStem: 31 51<633 657> 182 150<244 516 633 657> 512 72<639 657> 616 150<0 455> 676 98<639 657>
DStem: 381 383 463 362 332 244 332 0
Fore
332 635 m 2
 332 681 319 719 293 746 c 0
 267 774 228 788 176 788 c 0
 127 788 90 774 67 746 c 0
 43 719 31 684 31 643 c 0
 31 605 42 573 63 548 c 0
 85 523 112 510 143 510 c 0
 157 510 170 512 182 516 c 1
 182 0 l 1
 332 0 l 1
 463 362 l 2
 478 406 499 436 525 453 c 0
 552 469 576 481 598 487 c 1
 605 485 610 479 612 470 c 0
 615 461 616 453 616 446 c 2
 616 0 l 1
 766 0 l 1
 766 438 l 2
 766 464 761 485 751 501 c 0
 740 516 730 529 721 539 c 1
 736 550 749 565 759 585 c 0
 769 605 774 626 774 649 c 0
 774 697 760 732 733 755 c 0
 706 777 672 788 633 788 c 0
 595 788 565 774 544 744 c 0
 523 715 512 683 512 649 c 0
 512 634 514 618 518 601 c 0
 522 584 530 569 543 555 c 1
 507 543 476 524 450 499 c 0
 423 473 400 435 381 383 c 2
 332 244 l 1
 332 635 l 2
82 643 m 0
 82 666 86 686 95 702 c 0
 104 719 116 727 131 727 c 0
 146 727 158 719 168 702 c 0
 177 686 182 666 182 643 c 0
 182 620 177 600 168 585 c 0
 158 569 146 561 131 561 c 0
 116 561 104 569 95 585 c 0
 86 600 82 620 82 643 c 0
676 651 m 0
 676 634 672 620 664 610 c 0
 655 601 646 594 635 590 c 1
 624 593 613 599 601 610 c 0
 589 621 584 634 584 649 c 0
 584 670 587 686 595 698 c 0
 602 711 613 717 627 717 c 0
 644 717 657 711 665 698 c 0
 672 686 676 670 676 651 c 0
EndSplineSet
MinimumDistance: x21,-1 
EndChar
StartChar: uni0E2C
Encoding: 204 3628
OldEncoding: 3628
Width: 1046
VWidth: 1000
Flags: W
HStem: 0 21G<182 338 639 803>
VStem: 31 51<633 657> 182 150<276 516 633 657> 518 62<831 862> 653 150<279 706> 815 129<959 973>
DStem: 489 457 492 768 639 0 653 279 492 768 489 457 332 276 338 0
Fore
332 635 m 2
 332 681 319 719 294 746 c 0
 269 774 230 788 178 788 c 0
 129 788 92 774 68 746 c 0
 43 719 31 684 31 643 c 0
 31 605 42 573 63 548 c 0
 85 523 112 510 143 510 c 0
 157 510 170 512 182 516 c 1
 182 0 l 1
 338 0 l 1
 489 457 l 1
 639 0 l 1
 803 0 l 1
 803 735 l 1
 897 790 944 869 944 973 c 1
 815 973 l 1
 815 942 l 2
 815 926 814 911 811 897 c 0
 808 883 805 871 801 860 c 1
 797 896 781 923 753 943 c 0
 725 963 691 973 651 973 c 0
 563 973 518 928 518 840 c 0
 518 800 531 769 557 745 c 0
 583 722 615 709 653 705 c 1
 653 279 l 1
 492 768 l 1
 332 276 l 1
 332 635 l 2
82 643 m 0
 82 666 86 686 95 702 c 0
 104 719 116 727 131 727 c 0
 146 727 158 719 168 702 c 0
 177 686 182 666 182 643 c 0
 182 620 177 600 168 585 c 0
 158 569 146 561 131 561 c 0
 116 561 104 569 95 585 c 0
 86 600 82 620 82 643 c 0
580 840 m 0
 580 856 581 872 585 888 c 0
 588 904 600 911 621 911 c 0
 634 911 643 906 647 894 c 0
 651 882 653 872 653 862 c 2
 653 784 l 1
 637 784 621 790 604 801 c 0
 588 812 580 825 580 840 c 0
EndSplineSet
MinimumDistance: x14,-1 
EndChar
StartChar: uni0E2D
Encoding: 205 3629
OldEncoding: 3629
Width: 768
VWidth: 1000
Flags: W
HStem: -10 78<360 397> 274 52<286 297> 688 100<328 364>
VStem: 96 150<165 281 390 410> 344 51<390 423> 516 150<165 561>
Fore
96 391 m 2
 96 168 l 2
 96 138 106 111 125 87 c 0
 144 63 171 42 205 25 c 0
 228 14 256 5 288 -1 c 0
 320 -7 352 -10 383 -10 c 0
 410 -10 439 -7 470 -1 c 0
 501 5 529 15 555 29 c 0
 591 48 618 69 637 92 c 0
 656 115 666 141 666 168 c 2
 666 559 l 2
 666 601 656 637 636 667 c 0
 616 696 589 721 555 741 c 0
 503 773 433 788 346 788 c 0
 212 788 117 721 61 586 c 1
 117 559 l 1
 178 645 253 688 340 688 c 0
 390 688 432 676 466 651 c 0
 499 627 516 590 516 541 c 2
 516 170 l 2
 516 139 501 114 472 95 c 0
 443 77 412 68 379 68 c 0
 346 68 316 77 288 95 c 0
 260 114 246 139 246 170 c 2
 246 281 l 1
 258 276 271 274 285 274 c 0
 316 274 342 287 364 312 c 0
 385 338 395 369 395 406 c 0
 395 446 383 481 359 510 c 0
 336 539 299 553 250 553 c 0
 209 553 173 538 142 507 c 0
 112 476 96 438 96 391 c 2
246 408 m 0
 246 431 251 451 260 467 c 0
 270 483 281 492 295 492 c 0
 309 492 320 483 330 467 c 0
 339 451 344 431 344 408 c 0
 344 384 339 365 330 349 c 0
 320 333 309 326 295 326 c 0
 281 326 270 333 260 349 c 0
 251 365 246 384 246 408 c 0
EndSplineSet
MinimumDistance: x9,-1 
EndChar
StartChar: uni0E2E
Encoding: 206 3630
OldEncoding: 3630
Width: 782
VWidth: 1000
Flags: W
HStem: -10 78<360 397> 246 51<286 297> 535 69<206 254> 692 99<328 366>
VStem: 61 95<621 631> 96 150<165 252 361 381> 344 51<361 391> 516 152<165 563>
Fore
96 362 m 2
 96 168 l 2
 96 138 106 111 125 87 c 0
 144 63 171 42 207 25 c 0
 230 14 257 5 289 -1 c 0
 320 -7 352 -10 383 -10 c 0
 410 -10 439 -7 470 -1 c 0
 501 5 529 15 555 29 c 0
 591 48 618 69 638 92 c 0
 658 115 668 141 668 168 c 2
 668 561 l 2
 668 588 662 613 649 634 c 0
 637 655 623 674 608 692 c 1
 622 710 636 733 651 761 c 0
 666 789 676 819 680 850 c 1
 541 850 l 1
 537 817 528 787 516 760 c 1
 471 780 416 791 350 791 c 0
 311 791 272 785 234 775 c 0
 197 765 167 752 143 737 c 0
 123 722 104 706 87 688 c 0
 70 670 61 651 61 629 c 0
 61 622 63 613 68 602 c 0
 79 575 99 557 129 548 c 0
 159 539 189 535 219 535 c 0
 249 535 277 537 303 541 c 0
 363 549 429 571 502 606 c 1
 507 598 511 588 513 577 c 0
 515 565 516 554 516 543 c 2
 516 170 l 2
 516 139 502 114 473 95 c 0
 444 77 413 68 379 68 c 0
 346 68 316 77 288 95 c 0
 260 114 246 139 246 170 c 2
 246 252 l 1
 258 248 271 246 285 246 c 0
 316 246 342 258 364 284 c 0
 385 309 395 340 395 377 c 0
 395 418 384 453 360 481 c 0
 337 510 301 524 252 524 c 0
 210 524 173 509 142 478 c 0
 112 447 96 409 96 362 c 2
303 612 m 0
 295 610 284 608 270 606 c 0
 257 605 242 604 227 604 c 0
 212 604 197 606 180 608 c 0
 164 611 156 616 156 623 c 0
 156 636 166 649 186 659 c 0
 212 674 239 684 267 687 c 0
 295 691 322 692 346 692 c 0
 380 692 410 685 436 670 c 1
 416 656 395 645 373 636 c 0
 351 627 328 619 303 612 c 0
246 379 m 0
 246 402 251 422 260 438 c 0
 270 455 281 463 295 463 c 0
 309 463 320 455 330 438 c 0
 339 422 344 402 344 379 c 0
 344 356 339 336 330 321 c 0
 320 305 309 297 295 297 c 0
 281 297 270 305 260 321 c 0
 251 336 246 356 246 379 c 0
EndSplineSet
MinimumDistance: x9,-1 
EndChar
StartChar: ThaiCharacterPaiyannoi
Encoding: 207 3631
OldEncoding: 3631
Width: 751
VWidth: 1000
Flags: W
HStem: 0 21G<475 625> 461 133<240 272> 737 51<231 249>
VStem: 104 82<636 666> 293 51<651 673> 475 150<0 641>
Fore
625 653 m 2
 625 677 621 696 613 713 c 0
 606 729 597 743 586 755 c 0
 575 766 563 775 550 780 c 0
 537 786 525 788 514 788 c 0
 468 788 432 772 408 739 c 0
 401 731 394 719 387 701 c 0
 380 684 373 667 367 649 c 0
 354 612 342 586 329 571 c 0
 316 556 304 549 295 549 c 1
 310 557 322 571 331 591 c 0
 340 611 344 632 344 655 c 0
 344 691 335 722 316 749 c 0
 298 775 271 788 236 788 c 0
 196 788 164 775 140 749 c 0
 116 722 104 685 104 637 c 0
 104 592 119 551 150 515 c 0
 180 479 221 461 272 461 c 0
 296 461 315 464 331 471 c 0
 346 478 361 487 375 498 c 0
 382 503 390 513 401 527 c 0
 412 542 423 560 432 584 c 0
 449 625 460 645 467 645 c 0
 472 645 475 642 475 635 c 2
 475 0 l 1
 625 0 l 1
 625 653 l 2
186 666 m 0
 186 685 191 701 202 716 c 0
 212 730 225 737 240 737 c 0
 255 737 267 730 278 716 c 0
 288 701 293 685 293 666 c 0
 293 646 288 630 278 615 c 0
 267 601 255 594 240 594 c 0
 225 594 212 601 202 615 c 0
 191 630 186 646 186 666 c 0
EndSplineSet
MinimumDistance: x0,-1 
EndChar
StartChar: uni0E30
Encoding: 208 3632
OldEncoding: 3632
Width: 641
VWidth: 1000
Flags: W
HStem: 12 78<214 240> 293 51<147 157> 446 78<214 240> 727 51<147 157>
VStem: 20 82<202 223 651 657> 207 51<217 237 651 669> 367 135<315 344 747 778>
Fore
502 778 m 1
 367 778 l 1
 367 743 364 711 358 684 c 0
 353 657 345 630 334 604 c 0
 308 551 272 524 227 524 c 0
 215 524 202 527 188 532 c 1
 210 541 227 556 240 579 c 0
 252 601 258 626 258 653 c 0
 258 685 248 713 227 739 c 0
 207 765 181 778 150 778 c 0
 107 778 75 765 53 737 c 0
 31 710 20 677 20 637 c 0
 20 611 26 586 36 563 c 0
 46 540 60 520 78 502 c 0
 96 484 116 470 140 461 c 0
 164 451 189 446 215 446 c 0
 300 446 369 477 422 539 c 0
 475 603 502 683 502 778 c 1
102 657 m 0
 102 677 107 693 117 707 c 0
 126 720 139 727 154 727 c 0
 169 727 181 720 191 707 c 0
 202 693 207 677 207 657 c 0
 207 638 202 622 191 609 c 0
 181 596 169 590 154 590 c 0
 139 590 126 596 117 609 c 0
 107 622 102 638 102 657 c 0
502 344 m 1
 367 344 l 1
 367 309 364 277 358 250 c 0
 353 223 345 196 334 170 c 0
 308 117 272 90 227 90 c 0
 215 90 202 93 188 98 c 1
 210 106 227 122 240 144 c 0
 252 167 258 192 258 219 c 0
 258 251 248 279 227 305 c 0
 207 331 181 344 150 344 c 0
 107 344 75 330 53 303 c 0
 31 276 20 242 20 203 c 0
 20 177 26 152 36 129 c 0
 46 106 60 85 78 68 c 0
 96 50 116 36 140 27 c 0
 164 17 189 12 215 12 c 0
 300 12 369 43 422 104 c 0
 475 169 502 248 502 344 c 1
102 223 m 0
 102 242 107 259 117 272 c 0
 126 286 139 293 154 293 c 0
 169 293 181 286 191 272 c 0
 202 259 207 242 207 223 c 0
 207 204 202 188 191 175 c 0
 181 162 169 156 154 156 c 0
 139 156 126 162 117 175 c 0
 107 188 102 204 102 223 c 0
EndSplineSet
MinimumDistance: x0,-1 
EndChar
StartChar: uni0E31
Encoding: 209 3633
OldEncoding: 3633
Width: 0
VWidth: 1000
Flags: W
HStem: 858 76<-298 -264> 1128 52<-407 -391>
VStem: -537 101<1043 1063> -352 59<1045 1067> -92 135<1148 1179>
Fore
43 1180 m 1
 -92 1180 l 1
 -92 1111 -105 1056 -131 1014 c 0
 -146 988 -168 968 -197 954 c 0
 -225 941 -252 934 -276 934 c 0
 -307 934 -334 938 -358 946 c 1
 -337 953 -320 968 -309 990 c 0
 -298 1013 -293 1036 -293 1059 c 0
 -293 1100 -304 1130 -326 1150 c 0
 -347 1170 -374 1180 -406 1180 c 0
 -441 1180 -472 1168 -498 1146 c 0
 -524 1123 -537 1090 -537 1044 c 0
 -537 987 -512 941 -463 905 c 0
 -441 890 -413 879 -379 870 c 0
 -345 862 -313 858 -283 858 c 0
 -238 858 -193 866 -147 881 c 0
 -102 896 -66 918 -39 948 c 0
 16 1007 43 1084 43 1180 c 1
-436 1061 m 0
 -436 1080 -432 1096 -423 1109 c 0
 -414 1122 -404 1128 -393 1128 c 0
 -382 1128 -373 1122 -365 1109 c 0
 -356 1096 -352 1080 -352 1061 c 0
 -352 1042 -356 1026 -365 1013 c 0
 -373 1000 -382 993 -393 993 c 0
 -404 993 -414 1000 -423 1013 c 0
 -432 1026 -436 1042 -436 1061 c 0
EndSplineSet
EndChar
StartChar: uni0E32
Encoding: 210 3634
OldEncoding: 3634
Width: 567
VWidth: 1000
Flags: W
HStem: 0 21G<295 444> 688 100<197 246>
VStem: 295 149<0 613>
Fore
444 0 m 1
 295 0 l 1
 295 598 l 2
 295 625 285 647 265 664 c 0
 245 680 223 688 197 688 c 0
 172 688 148 679 124 662 c 0
 100 644 78 616 57 578 c 1
 0 610 l 1
 22 670 54 715 96 744 c 0
 139 774 188 788 246 788 c 0
 303 788 351 772 388 739 c 0
 426 707 444 660 444 600 c 2
 444 0 l 1
EndSplineSet
MinimumDistance: x0,-1 
EndChar
StartChar: uni0E33
Encoding: 211 3635
OldEncoding: 3635
Width: 571
VWidth: 1000
Flags: W
HStem: 0 21G<287 436> 698 103<180 231> 924 94<-212.187 -200> 1092 94<-211.898 -200>
VStem: -328 95<1042.58 1058> -172 94<1042.6 1058> 287 149<0 621>
Fore
-172 1055 m 0
 -172 1079 -182 1092 -203 1092 c 0
 -223 1092 -233 1079 -233 1055 c 0
 -233 1030 -223 1018 -203 1018 c 0
 -182 1018 -172 1030 -172 1055 c 0
-78 1055 m 0
 -78 1019 -90 989 -114 963 c 0
 -138 937 -167 924 -203 924 c 0
 -238 924 -268 937 -292 963 c 0
 -316 989 -328 1019 -328 1055 c 0
 -328 1092 -316 1123 -293 1148 c 0
 -270 1173 -240 1186 -203 1186 c 0
 -167 1186 -138 1173 -114 1147 c 0
 -90 1121 -78 1090 -78 1055 c 0
436 0 m 1
 287 0 l 1
 287 608 l 2
 287 636 275 657 253 674 c 0
 230 690 206 698 180 698 c 0
 153 698 127 689 102 672 c 0
 78 654 55 625 35 586 c 1
 -25 621 l 1
 -1 682 32 727 75 757 c 0
 118 786 170 801 231 801 c 0
 289 801 337 784 377 751 c 0
 416 717 436 670 436 610 c 2
 436 0 l 1
EndSplineSet
MinimumDistance: x12,-1 
EndChar
StartChar: uni0E34
Encoding: 212 3636
OldEncoding: 3636
Width: 0
VWidth: 1000
Flags: W
HStem: 911 83<-555 -477> 1042 99<-481 -460>
Fore
-373 977 m 0
 -354 973 -335 968 -317 963 c 0
 -300 957 -282 951 -264 944 c 1
 -287 969 -318 991 -355 1012 c 0
 -393 1032 -430 1042 -467 1042 c 0
 -487 1042 -510 1040 -536 1035 c 0
 -561 1030 -573 1020 -573 1004 c 0
 -573 998 -567 995 -555 994 c 0
 -543 994 -530 993 -516 993 c 0
 -489 993 -464 992 -440 988 c 0
 -417 985 -395 981 -373 977 c 0
-174 821 m 1
 -197 836 -224 850 -255 861 c 0
 -286 873 -317 883 -348 891 c 0
 -369 896 -394 901 -424 905 c 0
 -454 909 -481 911 -504 911 c 0
 -513 911 -526 911 -543 911 c 0
 -559 911 -572 911 -582 909 c 0
 -606 907 -627 907 -644 911 c 0
 -661 915 -676 922 -688 932 c 0
 -696 937 -703 945 -709 955 c 0
 -714 966 -717 976 -717 985 c 0
 -717 1008 -707 1032 -686 1057 c 0
 -666 1081 -646 1098 -629 1108 c 0
 -610 1119 -587 1127 -560 1133 c 0
 -534 1138 -507 1141 -479 1141 c 0
 -445 1141 -408 1133 -369 1117 c 0
 -329 1101 -293 1080 -259 1053 c 0
 -226 1025 -198 993 -176 955 c 0
 -154 918 -143 877 -143 834 c 1
 -174 821 l 1
EndSplineSet
EndChar
StartChar: uni0E35
Encoding: 213 3637
OldEncoding: 3637
Width: 0
VWidth: 1000
Flags: W
HStem: 925 86<-562 -492> 1061 98<-481 -460>
VStem: -295 113<1098 1227>
Fore
-182 1227 m 1
 -295 1227 l 1
 -295 1098 l 1
 -355 1139 -416 1159 -479 1159 c 0
 -507 1159 -534 1156 -560 1151 c 0
 -587 1146 -610 1137 -629 1126 c 0
 -646 1117 -666 1099 -686 1074 c 0
 -707 1049 -717 1025 -717 1001 c 0
 -717 992 -714 982 -709 971 c 0
 -703 960 -696 952 -688 946 c 0
 -666 931 -631 924 -582 924 c 0
 -572 924 -559 924 -543 925 c 0
 -526 925 -513 926 -504 926 c 0
 -481 926 -454 924 -424 920 c 0
 -394 915 -369 911 -348 905 c 0
 -317 897 -283 885 -247 869 c 0
 -211 854 -176 835 -143 813 c 1
 -143 887 -156 943 -182 983 c 1
 -182 1227 l 1
-373 993 m 0
 -395 997 -417 1001 -440 1005 c 0
 -464 1008 -489 1010 -516 1010 c 0
 -530 1010 -543 1010 -555 1011 c 0
 -567 1011 -573 1015 -573 1022 c 0
 -573 1037 -561 1047 -536 1053 c 0
 -510 1058 -487 1061 -467 1061 c 0
 -430 1061 -393 1050 -355 1029 c 0
 -318 1008 -287 984 -264 958 c 1
 -282 967 -300 973 -317 979 c 0
 -335 984 -354 989 -373 993 c 0
EndSplineSet
MinimumDistance: x0,-1 
EndChar
StartChar: uni0E36
Encoding: 214 3638
OldEncoding: 3638
Width: 0
VWidth: 1000
Flags: W
HStem: 928 87<-562 -492> 1065 98<-481 -460> 1157 82<-277.199 -261>
VStem: -229 86<1109 1127>
Fore
-143 850 m 1
 -143 881 -149 911 -160 939 c 0
 -171 967 -184 993 -201 1016 c 1
 -184 1027 -171 1041 -160 1059 c 0
 -149 1077 -143 1096 -143 1118 c 0
 -143 1151 -156 1179 -180 1203 c 0
 -205 1227 -234 1239 -268 1239 c 0
 -298 1239 -324 1230 -346 1212 c 0
 -368 1195 -382 1173 -389 1147 c 1
 -422 1158 -452 1163 -479 1163 c 0
 -507 1163 -534 1161 -560 1155 c 0
 -587 1150 -610 1141 -629 1130 c 0
 -646 1121 -666 1104 -686 1078 c 0
 -707 1053 -717 1029 -717 1006 c 0
 -717 984 -707 965 -688 950 c 0
 -676 941 -661 935 -644 932 c 0
 -627 929 -606 928 -582 928 c 2
 -504 928 l 2
 -481 928 -454 926 -423 922 c 0
 -392 918 -367 913 -348 909 c 0
 -315 902 -284 893 -254 880 c 0
 -224 867 -197 853 -174 838 c 1
 -143 850 l 1
-373 997 m 0
 -395 1003 -417 1007 -440 1010 c 0
 -464 1012 -489 1014 -516 1014 c 0
 -530 1014 -543 1014 -555 1015 c 0
 -567 1015 -573 1019 -573 1024 c 0
 -573 1040 -561 1051 -536 1057 c 0
 -510 1062 -487 1065 -467 1065 c 0
 -430 1065 -393 1054 -355 1033 c 0
 -318 1012 -287 989 -264 963 c 1
 -302 978 -339 989 -373 997 c 0
-307 1118 m 0
 -307 1129 -303 1138 -296 1146 c 0
 -288 1153 -279 1157 -268 1157 c 0
 -257 1157 -248 1153 -241 1146 c 0
 -233 1138 -229 1129 -229 1118 c 0
 -229 1107 -233 1098 -241 1091 c 0
 -248 1083 -257 1079 -268 1079 c 0
 -279 1079 -288 1083 -296 1091 c 0
 -303 1098 -307 1107 -307 1118 c 0
EndSplineSet
MinimumDistance: x0,-1 
EndChar
StartChar: uni0E37
Encoding: 215 3639
OldEncoding: 3639
Width: 0
VWidth: 1000
Flags: W
HStem: 927 86<-563 -492> 1063 98<-481 -460>
VStem: -270 96<1085 1227>
Fore
-479 1161 m 0
 -507 1161 -534 1159 -561 1154 c 0
 -588 1149 -611 1141 -629 1128 c 0
 -646 1116 -666 1098 -686 1074 c 0
 -707 1050 -717 1027 -717 1004 c 0
 -717 994 -714 984 -709 973 c 0
 -703 962 -696 954 -688 948 c 0
 -666 933 -631 926 -582 926 c 0
 -572 926 -559 926 -543 927 c 0
 -526 927 -513 928 -504 928 c 0
 -481 928 -454 926 -424 922 c 0
 -394 918 -369 913 -348 907 c 0
 -317 899 -283 887 -247 871 c 0
 -211 856 -176 837 -143 815 c 1
 -143 842 -146 870 -152 898 c 0
 -157 926 -165 950 -174 969 c 1
 -174 1227 l 1
 -270 1227 l 1
 -270 1085 l 1
 -279 1092 -289 1098 -301 1104 c 2
 -313 1110 l 1
 -313 1227 l 1
 -408 1227 l 1
 -408 1153 l 1
 -418 1156 -430 1158 -443 1159 c 0
 -456 1161 -468 1161 -479 1161 c 0
-373 995 m 0
 -395 999 -417 1003 -440 1007 c 0
 -464 1010 -489 1012 -516 1012 c 0
 -530 1012 -543 1012 -555 1013 c 0
 -567 1013 -573 1017 -573 1024 c 0
 -573 1039 -561 1049 -536 1055 c 0
 -510 1060 -487 1063 -467 1063 c 0
 -430 1063 -393 1052 -355 1031 c 0
 -318 1010 -287 986 -264 961 c 1
 -282 969 -300 976 -317 981 c 0
 -335 986 -354 991 -373 995 c 0
EndSplineSet
MinimumDistance: x15,-1 
EndChar
StartChar: uni0E38
Encoding: 216 3640
OldEncoding: 3640
Width: 0
VWidth: 1000
Flags: W
VStem: -342 51<-178 -144> -225 123<-369 -279 -178 -144>
Fore
-102 -369 m 1
 -102 -156 l 2
 -102 -120 -114 -90 -138 -67 c 0
 -162 -43 -190 -31 -223 -31 c 0
 -263 -31 -293 -42 -312 -65 c 0
 -332 -87 -342 -119 -342 -160 c 0
 -342 -173 -340 -187 -337 -202 c 0
 -333 -216 -328 -229 -322 -240 c 0
 -312 -255 -301 -266 -288 -272 c 0
 -275 -279 -261 -283 -246 -283 c 0
 -243 -283 -236 -281 -225 -279 c 1
 -225 -369 l 1
 -102 -369 l 1
-291 -162 m 0
 -291 -143 -288 -126 -282 -113 c 0
 -275 -99 -268 -92 -258 -92 c 0
 -248 -92 -241 -99 -234 -113 c 0
 -228 -126 -225 -143 -225 -162 c 0
 -225 -181 -228 -197 -234 -211 c 0
 -241 -225 -248 -231 -258 -231 c 0
 -268 -231 -275 -225 -282 -211 c 0
 -288 -197 -291 -181 -291 -162 c 0
EndSplineSet
MinimumDistance: x0,-1 
EndChar
StartChar: uni0E39
Encoding: 217 3641
OldEncoding: 3641
Width: 0
VWidth: 1000
Flags: W
HStem: -369 78<-266 -256>
VStem: -537 52<-177.221 -144> -408 127<-178 -144> -236 134<-266 -41>
Fore
-281 -156 m 2
 -281 -120 -293 -90 -318 -67 c 0
 -344 -43 -374 -31 -410 -31 c 0
 -494 -31 -537 -74 -537 -160 c 0
 -537 -188 -529 -214 -514 -238 c 0
 -494 -268 -467 -283 -434 -283 c 0
 -425 -283 -416 -281 -408 -276 c 1
 -398 -338 -356 -369 -283 -369 c 2
 -233 -369 l 2
 -146 -369 -102 -328 -102 -246 c 2
 -102 -41 l 1
 -236 -41 l 1
 -236 -264 l 2
 -236 -282 -243 -291 -258 -291 c 0
 -273 -291 -281 -282 -281 -264 c 2
 -281 -156 l 2
-485 -162 m 0
 -485 -143 -482 -126 -474 -113 c 0
 -467 -99 -457 -92 -446 -92 c 0
 -436 -92 -426 -99 -419 -113 c 0
 -411 -126 -408 -143 -408 -162 c 0
 -408 -181 -411 -197 -419 -211 c 0
 -426 -225 -436 -231 -446 -231 c 0
 -457 -231 -467 -225 -474 -211 c 0
 -482 -197 -485 -181 -485 -162 c 0
EndSplineSet
MinimumDistance: x9,-1 
EndChar
StartChar: uni0E3A
Encoding: 218 3642
OldEncoding: 3642
Width: 0
VWidth: 1000
Flags: W
Fore
-127 -113 m 0
 -127 -136 -135 -155 -151 -171 c 0
 -166 -187 -186 -195 -209 -195 c 0
 -232 -195 -252 -187 -267 -171 c 0
 -283 -155 -291 -136 -291 -113 c 0
 -291 -89 -283 -70 -266 -54 c 0
 -250 -39 -231 -31 -209 -31 c 0
 -186 -31 -166 -39 -151 -54 c 0
 -135 -70 -127 -89 -127 -113 c 0
EndSplineSet
EndChar
StartChar: zerospace
Encoding: 220 8203
OldEncoding: 8203
Width: 1064
VWidth: 1000
Flags: W
HStem: 0 80<274 820>
VStem: 131 88<-244 -51> 889 88<-244 -61>
Fore
977 -244 m 1
 889 -244 l 1
 889 -70 l 2
 889 -23 862 -0 807 0 c 2
 287 0 l 2
 242 0 219 -21 219 -63 c 2
 219 -244 l 1
 131 -244 l 1
 131 80 l 1
 977 80 l 1
 977 -244 l 1
EndSplineSet
MinimumDistance: x0,-1 y4,7 y4,6 y3,0 y3,1 
EndChar
StartChar: dottedcircle
Encoding: 221 9676
OldEncoding: 63260
Width: 1269
VWidth: 1000
Flags: W
HStem: 31 0<236.615 660 246.462 660> 31 100<452 470> 45 100<821.959 838> 153 100<324 338> 169 100<932 950> 343 100<980 998> 352 100<276 290> 523 100<932 950> 531 100<327 342> 643 100<805.959 822> 653 100<468 476> 699 100<647.959 663>
VStem: 229 100<391 404> 278 100<192.959 206> 288 100<571 590> 410 100<76 83> 424 100<692 705> 610 100<28 34 741 755> 766 100<684 703> 782 100<92 98> 892 100<208.959 222 562.959 583> 940 100<382.959 404>
Fore
322.68 603.454 m 6
458.68 725.454 m 6
444.68 103.454 m 6
312.68 225.454 m 6
816.68 117.454 m 6
926.68 241.454 m 6
926.68 595.454 m 6
800.68 715.454 m 6
974.68 415.454 m 6
263.68 424.454 m 6
642.68 771.454 m 6
338 631 m 0
 365.63 630.999 388 608.631 388 581 c 0
 388 553.37 365.63 531 338 531 c 0
 310.37 531 288 553.37 288 581 c 0
 288 608.629 310.37 631.001 338 631 c 0
338 581 m 0
 337.959 581 338 580.959 338 581 c 0
 338 581.041 337.959 581 338 581 c 0
 338.041 581 338 581.041 338 581 c 0
 338 580.958 338.042 581 338 581 c 0
474 753 m 0
 501.63 752.999 524 730.632 524 703 c 0
 524 675.369 501.631 653 474 653 c 0
 446.37 653 424 675.37 424 703 c 0
 424 730.63 446.37 753.001 474 753 c 0
474 703 m 0
 473.958 703 474 702.958 474 703 c 0
 474 703.041 473.959 703 474 703 c 0
 474.042 703 474 703.042 474 703 c 0
 474 702.958 474.042 703 474 703 c 0
460 131 m 0
 487.63 131 510 108.63 510 81 c 0
 510 53.3699 487.631 31.0001 460 31 c 0
 432.37 30.9999 410 53.37 410 81 c 0
 410 108.63 432.37 131 460 131 c 0
460 81 m 0
 459.958 81 460 80.9586 460 81 c 0
 460 81.041 459.959 81 460 81 c 0
 460.041 81 460 81.0413 460 81 c 0
 460 80.9588 460.041 81 460 81 c 0
328 253 m 0
 355.63 253 378 230.631 378 203 c 0
 378 175.37 355.63 153 328 153 c 0
 300.37 153 278 175.37 278 203 c 0
 278 230.63 300.37 253 328 253 c 0
328 203 m 0
 327.959 203 328 202.959 328 203 c 0
 328 203.041 327.959 203 328 203 c 0
 328.041 203 328 203.041 328 203 c 0
 328 202.959 328.041 203 328 203 c 0
832 145 m 0
 859.63 145 882 122.63 882 95 c 0
 882 67.3698 859.63 45.0001 832 45 c 0
 804.369 44.9999 782.001 67.37 782 95 c 0
 781.999 122.63 804.37 145 832 145 c 0
832 95 m 0
 831.959 95.0001 831.999 94.9593 832 95 c 0
 832.001 95.0415 831.959 95.0001 832 95 c 0
 832.04 94.9999 832.001 95.0405 832 95 c 0
 831.999 94.9582 832.042 94.9999 832 95 c 0
942 269 m 0
 969.63 269 992 246.631 992 219 c 0
 992 191.37 969.63 169 942 169 c 0
 914.369 169 892.001 191.37 892 219 c 0
 891.999 246.63 914.371 269 942 269 c 0
942 219 m 0
 941.959 219 941.999 218.959 942 219 c 0
 942.001 219.041 941.959 219 942 219 c 0
 942.04 219 942.001 219.041 942 219 c 0
 941.999 218.958 942.042 219 942 219 c 0
942 623 m 0
 969.63 622.999 992 600.631 992 573 c 0
 992 545.37 969.63 523 942 523 c 0
 914.369 523 892.001 545.37 892 573 c 0
 891.999 600.629 914.371 623.001 942 623 c 0
942 573 m 0
 941.959 573 941.999 572.959 942 573 c 0
 942.001 573.042 941.958 573 942 573 c 0
 942.04 573 942.001 573.041 942 573 c 0
 941.999 572.958 942.042 573 942 573 c 0
816 743 m 0
 843.63 742.999 866 720.632 866 693 c 0
 866 665.369 843.63 643 816 643 c 0
 788.369 642.999 766.001 665.37 766 693 c 0
 765.999 720.63 788.37 743.001 816 743 c 0
816 693 m 0
 815.958 693 816 692.958 816 693 c 0
 816 693.042 815.958 693 816 693 c 0
 816.042 693 816.001 693.042 816 693 c 0
 815.999 692.958 816.042 693 816 693 c 0
990 443 m 0
 1017.63 443 1040 420.63 1040 393 c 0
 1040 365.37 1017.63 343 990 343 c 0
 962.369 343 940.001 365.37 940 393 c 0
 939.999 420.63 962.371 443 990 443 c 0
990 393 m 0
 989.959 393 989.999 392.959 990 393 c 0
 990.001 393.041 989.959 393 990 393 c 0
 990.04 393 990.001 393.041 990 393 c 0
 989.999 392.958 990.042 393 990 393 c 0
279 452 m 0
 306.63 452 329 429.63 329 402 c 0
 329 374.37 306.63 352 279 352 c 0
 251.37 352 229 374.37 229 402 c 0
 229 429.63 251.37 452 279 452 c 0
279 402 m 0
 278.959 402 279 401.959 279 402 c 0
 279 402.041 278.959 402 279 402 c 0
 279.041 402 279 402.041 279 402 c 0
 279 401.959 279.041 402 279 402 c 0
660 81 m 0
 687.63 81 710.001 58.6301 710 31 c 0
 709.999 3.36988 687.632 -19 660 -19 c 0
 632.369 -19 610 3.36997 610 31 c 0
 610 58.6301 632.37 81 660 81 c 0
660 31 m 0
 659.958 30.9999 660.039 31.015 660 31 c 0
 660 31 l 0
 660 31 l 0
 659.961 31.0149 660.041 31.0001 660 31 c 0
658 799 m 0
 685.63 798.999 708.001 776.632 708 749 c 0
 707.999 721.369 685.632 699.001 658 699 c 0
 630.369 698.999 608 721.37 608 749 c 0
 608 776.63 630.37 799.001 658 799 c 0
658 749 m 0
 657.958 749 658 748.958 658 749 c 0
 658 749.041 657.959 749 658 749 c 0
 658.042 749 658 749.042 658 749 c 0
 658 748.958 658.042 749 658 749 c 0
EndSplineSet
MinimumDistance: x76,-1 
EndChar
